{
.appVersion = "3112";
.formatVersion = 3;
customParameters = (
{
name = panose;
value = (
0,
0,
0,
0,
0,
0,
0,
0,
0,
0
);
},
{
name = unicodeRanges;
value = (
0,
1,
2,
3,
4,
5,
6,
24,
29,
31,
32,
33,
35,
37,
38,
45,
69
);
},
{
name = codePageRanges;
value = (
"1252",
"1254",
"874",
"bit 29"
);
},
{
name = blueScale;
value = 0.037;
}
);
date = "2022-12-18 18:01:12 +0000";
familyName = "Pure Pin One";
featurePrefixes = (
{
code = "lookup SUB_1 {
	sub yoYing-thai by yoYing-thai.less;
	sub doChada-thai by doChada-thai.short;
	sub toPatak-thai by toPatak-thai.short;
	sub thoThan-thai by thoThan-thai.less;
	sub maiEk-thai by maiEk-thai.small;
	sub maiTho-thai by maiTho-thai.small;
	sub maiTri-thai by maiTri-thai.small;
	sub maiChattawa-thai by maiChattawa-thai.small;
	sub thanthakhat-thai by thanthakhat-thai.small;
	sub phinthu-thai by phinthu-thai.small;
	sub saraU-thai by saraU-thai.small;
	sub saraUu-thai by saraUu-thai.small;
} SUB_1;
lookup SUB_14 {
	sub i by idotless;
	sub j by jdotless;
	sub yoYing-thai by yoYing-thai.less;
	sub doChada-thai by doChada-thai.short;
	sub toPatak-thai by toPatak-thai.short;
	sub thoThan-thai by thoThan-thai.less;
	sub ru-thai by ru-thai.short;
	sub lu-thai by lu-thai.short;
	sub loChula-thai by loChula-thai.short;
	sub maiEk-thai by maiEk-thai.small;
	sub maiTho-thai by maiTho-thai.small;
	sub maiTri-thai by maiTri-thai.small;
	sub maiChattawa-thai by maiChattawa-thai.small;
	sub thanthakhat-thai by thanthakhat-thai.small;
	sub maitaikhu-thai by maitaikhu-thai.small;
	sub phinthu-thai by phinthu-thai.small;
	sub saraU-thai by saraU-thai.small;
	sub saraUu-thai by saraUu-thai.small;
} SUB_14;
lookup SUB_15 {
	sub maiHanaKat-thai by maiHanaKat-thai.narrow;
	sub maiEk-thai by maiEk-thai.narrow;
	sub maiTho-thai by maiTho-thai.narrow;
	sub maiTri-thai by maiTri-thai.narrow;
	sub thanthakhat-thai by thanthakhat-thai.narrow;
	sub maitaikhu-thai by maitaikhu-thai.narrow;
	sub saraI-thai by saraI-thai.narrow;

glyphs = (
{
glyphname = A;
kernLeft = A;
kernRight = A;
layers = (
{
hints = (
{
horizontal = 1;
place = (0, 8);
place = (0, 8);
type = Stem;
},
{
horizontal = 1;
place = (400, 8);
place = (400, 8);
type = Stem;
},
{
horizontal = 1;
place = (600, 7);
place = (600, 7);
type = Stem;
},
{
place = (58, 8);
place = (58, 8);
type = Stem;
},
{
place = (310, 8);
place = (310, 8);
type = Stem;
}
);
layerId = m01;
shapes = (
{
closed = 1;
nodes = (
(310,408,l),
(66,408,l),
(66,478,ls),
(66,545,o),
(121,600,o),
(188,600,cs),
(255,600,o),
(310,545,o),
(310,478,cs)
);
},
{
closed = 1;
nodes = (
(25,0,l),
(99,0,l),
(99,8,l),
(94,8,ls),
(79,8,o),
(66,20,o),
(66,36,cs),
(66,400,l),
(310,400,l),
(310,8,l),
(277,8,l),
(277,0,l),
(351,0,l),
(351,8,l),
(346,8,ls),
(330,8,o),
(318,20,o),
(318,36,cs),
(318,478,ls),
(318,551,o),
(256,611,o),
(181,607,cs),
(112,604,o),
(58,543,o),
(58,474,cs),
(58,8,l),
(25,8,l)
);
}
);
width = 361;
}
);
note = A;
unicode = 65;
},
{
glyphname = Aacute;
kernLeft = A;
layers = (
{
hints = (
{
horizontal = 1;
place = (0, 8);
place = (0, 8);
type = Stem;
},
{
horizontal = 1;
place = (400, 8);
place = (400, 8);
type = Stem;
},
{
horizontal = 1;
place = (600, 7);
place = (600, 7);
type = Stem;
},
{
place = (58, 8);
place = (58, 8);
type = Stem;
},
{
place = (310, 8);
place = (310, 8);
type = Stem;
}
);
layerId = m01;
shapes = (
{
closed = 1;
nodes = (
(310,408,l),
(66,408,l),
(66,478,ls),
(66,545,o),
(121,600,o),
(188,600,cs),
(255,600,o),
(310,545,o),
(310,478,cs)
);
},
{
closed = 1;
nodes = (
(25,0,l),
(99,0,l),
(99,8,l),
(94,8,ls),
(79,8,o),
(66,20,o),
(66,36,cs),
(66,400,l),
(310,400,l),
(310,8,l),
(277,8,l),
(277,0,l),
(351,0,l),
(351,8,l),
(346,8,ls),
(330,8,o),
(318,20,o),
(318,36,cs),
(318,478,ls),
(318,551,o),
(256,611,o),
(181,607,cs),
(112,604,o),
(58,543,o),
(58,474,cs),
(58,8,l),
(25,8,l)
);
},
{
closed = 1;
nodes = (
(181,651,l),
(189,651,l),
(225,727,l),
(217,727,l)
);
}
);
width = 361;
}
);
note = Aacute;
unicode = 193;
},
{
glyphname = Abreve;
kernLeft = A;
layers = (
{
hints = (
{
horizontal = 1;
place = (0, 8);
place = (0, 8);
type = Stem;
},
{
horizontal = 1;
place = (400, 8);
place = (400, 8);
type = Stem;
},
{
horizontal = 1;
place = (600, 7);
place = (600, 7);
type = Stem;
},
{
horizontal = 1;
place = (699, 21);
target = up;
type = BottomGhost;
},
{
place = (58, 8);
place = (58, 8);
type = Stem;
},
{
place = (310, 8);
place = (310, 8);
type = Stem;
},
{
horizontal = 1;
place = (600, 58);
place = (600, 58);
type = Stem;
},
{
horizontal = 1;
place = (694, 21);
target = up;
type = BottomGhost;
}
);
layerId = m01;
shapes = (
{
closed = 1;
nodes = (
(310,408,l),
(66,408,l),
(66,478,ls),
(66,545,o),
(121,600,o),
(188,600,cs),
(255,600,o),
(310,545,o),
(310,478,cs)
);
},
{
closed = 1;
nodes = (
(25,0,l),
(99,0,l),
(99,8,l),
(94,8,ls),
(79,8,o),
(66,20,o),
(66,36,cs),
(66,400,l),
(310,400,l),
(310,8,l),
(277,8,l),
(277,0,l),
(351,0,l),
(351,8,l),
(346,8,ls),
(330,8,o),
(318,20,o),
(318,36,cs),
(318,478,ls),
(318,551,o),
(256,611,o),
(181,607,cs),
(112,604,o),
(58,543,o),
(58,474,cs),
(58,8,l),
(25,8,l)
);
},
{
closed = 1;
nodes = (
(117,699,l),
(137,677,o),
(163,665,o),
(189,665,cs),
(215,665,o),
(240,677,o),
(260,699,c),
(266,694,l),
(244,670,o),
(217,658,o),
(189,658,cs),
(161,658,o),
(133,670,o),
(112,694,c)
);
}
);
width = 361;
}
);
note = Abreve;
unicode = 258;
},
{
glyphname = Acircumflex;
kernLeft = A;
layers = (
{
hints = (
{
horizontal = 1;
place = (0, 8);
place = (0, 8);
type = Stem;
},
{
horizontal = 1;
place = (400, 8);
place = (400, 8);
type = Stem;
},
{
horizontal = 1;
place = (600, 7);
place = (600, 7);
type = Stem;
},
{
horizontal = 1;
place = (718, 9);
place = (718, 9);
type = Stem;
},
{
place = (58, 8);
place = (58, 8);
type = Stem;
},
{
place = (310, 8);
place = (310, 8);
type = Stem;
}
);
layerId = m01;
shapes = (
{
closed = 1;
nodes = (
(310,408,l),
(66,408,l),
(66,478,ls),
(66,545,o),
(121,600,o),
(188,600,cs),
(255,600,o),
(310,545,o),
(310,478,cs)
);
},
{
closed = 1;
nodes = (
(25,0,l),
(99,0,l),
(99,8,l),
(94,8,ls),
(79,8,o),
(66,20,o),
(66,36,cs),
(66,400,l),
(310,400,l),
(310,8,l),
(277,8,l),
(277,0,l),
(351,0,l),
(351,8,l),
(346,8,ls),
(330,8,o),
(318,20,o),
(318,36,cs),
(318,478,ls),
(318,551,o),
(256,611,o),
(181,607,cs),
(112,604,o),
(58,543,o),
(58,474,cs),
(58,8,l),
(25,8,l)
);
},
{
closed = 1;
nodes = (
(147,651,l),
(155,651,l),
(187,718,l),
(218,651,l),
(226,651,l),
(191,727,l),
(183,727,l)
);
}
);
width = 361;
}
);
note = Acircumflex;
unicode = 194;
},
{
glyphname = Adieresis;
kernLeft = A;
layers = (
{
hints = (
{
horizontal = 1;
place = (0, 8);
place = (0, 8);
type = Stem;
},
{
horizontal = 1;
place = (400, 8);
place = (400, 8);
type = Stem;
},
{
horizontal = 1;
place = (600, 7);
place = (600, 7);
type = Stem;
},
{
horizontal = 1;
place = (678, 30);
place = (678, 30);
type = Stem;
},
{
place = (58, 8);
place = (58, 8);
type = Stem;
},
{
place = (127, 30);
place = (127, 30);
type = Stem;
},
{
place = (220, 30);
place = (220, 30);
type = Stem;
},
{
place = (310, 8);
place = (310, 8);
type = Stem;
}
);
layerId = m01;
shapes = (
{
closed = 1;
nodes = (
(310,408,l),
(66,408,l),
(66,478,ls),
(66,545,o),
(121,600,o),
(188,600,cs),
(255,600,o),
(310,545,o),
(310,478,cs)
);
},
{
closed = 1;
nodes = (
(25,0,l),
(99,0,l),
(99,8,l),
(94,8,ls),
(79,8,o),
(66,20,o),
(66,36,cs),
(66,400,l),
(310,400,l),
(310,8,l),
(277,8,l),
(277,0,l),
(351,0,l),
(351,8,l),
(346,8,ls),
(330,8,o),
(318,20,o),
(318,36,cs),
(318,478,ls),
(318,551,o),
(256,611,o),
(181,607,cs),
(112,604,o),
(58,543,o),
(58,474,cs),
(58,8,l),
(25,8,l)
);
},
{
closed = 1;
nodes = (
(127,685,o),
(134,678,o),
(142,678,cs),
(150,678,o),
(157,685,o),
(157,693,cs),
(157,701,o),
(150,708,o),
(142,708,cs),
(134,708,o),
(127,701,o),
(127,693,cs)
);
},
{
closed = 1;
nodes = (
(220,685,o),
(227,678,o),
(235,678,cs),
(243,678,o),
(250,685,o),
(250,693,cs),
(250,701,o),
(243,708,o),
(235,708,cs),
(227,708,o),
(220,701,o),
(220,693,cs)
);
}
);
width = 361;
}
);
note = Adieresis;
unicode = 196;
},
{
glyphname = Agrave;
kernLeft = A;
layers = (
{
hints = (
{
horizontal = 1;
place = (0, 8);
place = (0, 8);
type = Stem;
},
{
horizontal = 1;
place = (400, 8);
place = (400, 8);
type = Stem;
},
{
horizontal = 1;
place = (600, 7);
place = (600, 7);
type = Stem;
},
{
place = (58, 8);
place = (58, 8);
type = Stem;
},
{
place = (310, 8);
place = (310, 8);
type = Stem;
}
);
layerId = m01;
shapes = (
{
closed = 1;
nodes = (
(310,408,l),
(66,408,l),
(66,478,ls),
(66,545,o),
(121,600,o),
(188,600,cs),
(255,600,o),
(310,545,o),
(310,478,cs)
);
},
{
closed = 1;
nodes = (
(25,0,l),
(99,0,l),
(99,8,l),
(94,8,ls),
(79,8,o),
(66,20,o),
(66,36,cs),
(66,400,l),
(310,400,l),
(310,8,l),
(277,8,l),
(277,0,l),
(351,0,l),
(351,8,l),
(346,8,ls),
(330,8,o),
(318,20,o),
(318,36,cs),
(318,478,ls),
(318,551,o),
(256,611,o),
(181,607,cs),
(112,604,o),
(58,543,o),
(58,474,cs),
(58,8,l),
(25,8,l)
);
},
{
closed = 1;
nodes = (
(151,727,l),
(186,651,l),
(194,651,l),
(159,727,l)
);
}
);
width = 361;
}
);
note = Agrave;
unicode = 192;
},
{
glyphname = Amacron;
kernLeft = A;
layers = (
{
hints = (
{
horizontal = 1;
place = (0, 8);
place = (0, 8);
type = Stem;
},
{
horizontal = 1;
place = (400, 8);
place = (400, 8);
type = Stem;
},
{
horizontal = 1;
place = (600, 7);
place = (600, 7);
type = Stem;
},
{
horizontal = 1;
place = (674, 8);
place = (674, 8);
type = Stem;
},
{
place = (58, 8);
place = (58, 8);
type = Stem;
},
{
place = (310, 8);
place = (310, 8);
type = Stem;
}
);
layerId = m01;
shapes = (
{
closed = 1;
nodes = (
(310,408,l),
(66,408,l),
(66,478,ls),
(66,545,o),
(121,600,o),
(188,600,cs),
(255,600,o),
(310,545,o),
(310,478,cs)
);
},
{
closed = 1;
nodes = (
(25,0,l),
(99,0,l),
(99,8,l),
(94,8,ls),
(79,8,o),
(66,20,o),
(66,36,cs),
(66,400,l),
(310,400,l),
(310,8,l),
(277,8,l),
(277,0,l),
(351,0,l),
(351,8,l),
(346,8,ls),
(330,8,o),
(318,20,o),
(318,36,cs),
(318,478,ls),
(318,551,o),
(256,611,o),
(181,607,cs),
(112,604,o),
(58,543,o),
(58,474,cs),
(58,8,l),
(25,8,l)
);
},
{
closed = 1;
nodes = (
(123,674,l),
(253,674,l),
(253,682,l),
(123,682,l)
);
}
);
width = 376;
}
);
note = Amacron;
unicode = 256;
},
{
glyphname = Aring;
kernLeft = A;
layers = (
{
hints = (
{
horizontal = 1;
place = (0, 8);
place = (0, 8);
type = Stem;
},
{
horizontal = 1;
place = (400, 8);
place = (400, 8);
type = Stem;
},
{
horizontal = 1;
place = (600, 7);
place = (600, 7);
type = Stem;
},
{
horizontal = 1;
place = (702, 8);
place = (702, 8);
type = Stem;
},
{
place = (58, 8);
place = (58, 8);
type = Stem;
},
{
place = (163, 8);
place = (163, 8);
type = Stem;
},
{
place = (310, 8);
place = (310, 8);
type = Stem;
},
{
horizontal = 1;
place = (664, 8);
place = (664, 8);
type = Stem;
},
{
place = (201, 8);
place = (201, 8);
type = Stem;
}
);
layerId = m01;
shapes = (
{
closed = 1;
nodes = (
(310,408,l),
(66,408,l),
(66,478,ls),
(66,545,o),
(121,600,o),
(188,600,cs),
(255,600,o),
(310,545,o),
(310,478,cs)
);
},
{
closed = 1;
nodes = (
(25,0,l),
(99,0,l),
(99,8,l),
(94,8,ls),
(79,8,o),
(66,20,o),
(66,36,cs),
(66,400,l),
(310,400,l),
(310,8,l),
(277,8,l),
(277,0,l),
(351,0,l),
(351,8,l),
(346,8,ls),
(330,8,o),
(318,20,o),
(318,36,cs),
(318,478,ls),
(318,551,o),
(256,611,o),
(181,607,cs),
(112,604,o),
(58,543,o),
(58,474,cs),
(58,8,l),
(25,8,l)
);
},
{
closed = 1;
nodes = (
(163,675,o),
(174,664,o),
(186,664,cs),
(198,664,o),
(209,675,o),
(209,687,cs),
(209,699,o),
(198,710,o),
(186,710,cs),
(174,710,o),
(163,699,o),
(163,687,cs)
);
},
{
closed = 1;
nodes = (
(171,695,o),
(178,702,o),
(186,702,cs),
(194,702,o),
(201,695,o),
(201,687,cs),
(201,679,o),
(194,672,o),
(186,672,cs),
(178,672,o),
(171,679,o),
(171,687,cs)
);
}
);
width = 361;
}
);
note = Aring;
unicode = 197;
},
{
glyphname = Atilde;
kernLeft = A;
layers = (
{
hints = (
{
horizontal = 1;
place = (0, 8);
place = (0, 8);
type = Stem;
},
{
horizontal = 1;
place = (400, 8);
place = (400, 8);
type = Stem;
},
{
horizontal = 1;
place = (600, 7);
place = (600, 7);
type = Stem;
},
{
horizontal = 1;
place = (695, 21);
target = up;
type = BottomGhost;
},
{
place = (58, 8);
place = (58, 8);
type = Stem;
},
{
place = (310, 8);
place = (310, 8);
type = Stem;
}
);
layerId = m01;
shapes = (
{
closed = 1;
nodes = (
(310,408,l),
(66,408,l),
(66,478,ls),
(66,545,o),
(121,600,o),
(188,600,cs),
(255,600,o),
(310,545,o),
(310,478,cs)
);
},
{
closed = 1;
nodes = (
(25,0,l),
(99,0,l),
(99,8,l),
(94,8,ls),
(79,8,o),
(66,20,o),
(66,36,cs),
(66,400,l),
(310,400,l),
(310,8,l),
(277,8,l),
(277,0,l),
(351,0,l),
(351,8,l),
(346,8,ls),
(330,8,o),
(318,20,o),
(318,36,cs),
(318,478,ls),
(318,551,o),
(256,611,o),
(181,607,cs),
(112,604,o),
(58,543,o),
(58,474,cs),
(58,8,l),
(25,8,l)
);
},
{
closed = 1;
nodes = (
(116,665,l),
(117,667,o),
(132,700,o),
(156,703,cs),
(169,704,o),
(182,697,o),
(193,682,cs),
(202,670,o),
(212,665,o),
(221,666,cs),
(239,667,o),
(253,695,o),
(253,695,c),
(260,692,l),
(259,691,o),
(244,660,o),
(221,658,cs),
(219,658,ls),
(208,658,o),
(197,664,o),
(187,677,cs),
(177,690,o),
(167,696,o),
(157,695,cs),
(137,693,o),
(123,662,o),
(123,662,c)
);
}
);
width = 361;
}
);
note = Atilde;
unicode = 195;
},
{
glyphname = AE;
kernLeft = A;
kernRight = AE;
layers = (
{
hints = (
{
horizontal = 1;
place = (0, 7);
place = (0, 7);
type = Stem;
},
{
horizontal = 1;
place = (400, 8);
place = (400, 8);
type = Stem;
},
{
horizontal = 1;
place = (592, 8);
place = (592, 8);
type = Stem;
},
{
place = (67, 8);
place = (67, 8);
type = Stem;
},
{
place = (319, 7);
place = (319, 7);
type = Stem;
},
{
horizontal = 1;
place = (600, 7);
place = (600, 7);
type = Stem;
}
);
layerId = m01;
shapes = (
{
closed = 1;
nodes = (
(35,0,l),
(109,0,l),
(109,7,l),
(103,7,ls),
(87,7,o),
(75,20,o),
(75,36,cs),
(75,400,l),
(319,400,l),
(319,32,ls),
(319,14,o),
(333,0,o),
(351,0,cs),
(569,0,l),
(569,7,l),
(351,7,ls),
(337,7,o),
(326,18,o),
(326,32,cs),
(326,400,l),
(541,400,l),
(541,408,l),
(326,408,l),
(326,567,ls),
(326,581,o),
(337,592,o),
(351,592,cs),
(569,592,l),
(569,600,l),
(351,600,ls),
(333,600,o),
(319,585,o),
(319,567,cs),
(319,519,l),
(301,570,o),
(253,607,o),
(195,607,cs),
(124,607,o),
(67,545,o),
(67,474,cs),
(67,7,l),
(35,7,l)
);
},
{
closed = 1;
nodes = (
(75,408,l),
(75,474,ls),
(75,541,o),
(128,600,o),
(197,600,cs),
(265,600,o),
(319,544,o),
(319,477,cs),
(319,408,l)
);
}
);
width = 604;
}
);
note = AE;
unicode = 198;
},
{
glyphname = B;
kernLeft = B;
kernRight = A;
layers = (
{
hints = (
{
horizontal = 1;
place = (0, 8);
place = (0, 8);
type = Stem;
},
{
horizontal = 1;
place = (400, 7);
place = (400, 7);
type = Stem;
},
{
horizontal = 1;
place = (592, 8);
place = (592, 8);
type = Stem;
},
{
place = (30, 8);
place = (30, 8);
type = Stem;
},
{
place = (277, 8);
place = (277, 8);
type = Stem;
}
);
layerId = m01;
shapes = (
{
closed = 1;
nodes = (
(277,489,ls),
(277,444,o),
(241,407,o),
(196,407,cs),
(38,407,l),
(38,579,ls),
(38,586,o),
(44,592,o),
(51,592,cs),
(196,592,ls),
(241,592,o),
(277,556,o),
(277,511,cs)
);
},
{
closed = 1;
nodes = (
(30,21,ls),
(30,9,o),
(40,0,o),
(51,0,cs),
(196,0,ls),
(245,0,o),
(285,40,o),
(285,89,cs),
(285,318,ls),
(285,359,o),
(258,393,o),
(221,404,c),
(258,414,o),
(285,448,o),
(285,489,cs),
(285,511,ls),
(285,560,o),
(245,600,o),
(196,600,cs),
(51,600,ls),
(40,600,o),
(30,590,o),
(30,579,cs)
);
},
{
closed = 1;
nodes = (
(38,400,l),
(196,400,ls),
(241,400,o),
(277,363,o),
(277,318,cs),
(277,89,ls),
(277,44,o),
(241,8,o),
(196,8,cs),
(51,8,ls),
(44,8,o),
(38,13,o),
(38,21,cs)
);
}
);
width = 315;
}
);
note = B;
unicode = 66;
},
{
glyphname = C;
kernLeft = C;
kernRight = C;
layers = (
{
hints = (
{
horizontal = 1;
place = (-8, 8);
place = (-8, 8);
type = Stem;
},
{
horizontal = 1;
place = (599, 8);
place = (599, 8);
type = Stem;
},
{
place = (30, 8);
place = (30, 8);
type = Stem;
},
{
place = (282, 8);
place = (282, 8);
type = Stem;
}
);
layerId = m01;
shapes = (
{
closed = 1;
nodes = (
(227,599,o),
(282,544,o),
(282,477,c),
(290,477,l),
(290,548,o),
(231,607,o),
(160,607,cs),
(88,607,o),
(30,548,o),
(30,477,cs),
(30,122,ls),
(30,50,o),
(88,-8,o),
(160,-8,cs),
(231,-8,o),
(290,50,o),
(290,122,c),
(282,122,l),
(282,54,o),
(227,0,o),
(160,0,cs),
(93,0,o),
(38,54,o),
(38,122,cs),
(38,477,ls),
(38,544,o),
(93,599,o),
(160,599,cs)
);
}
);
width = 320;
}
);
note = C;
unicode = 67;
},
{
glyphname = Ccedilla;
kernLeft = C;
kernRight = C;
layers = (
{
hints = (
{
horizontal = 1;
place = (-152, 7);
place = (-152, 7);
type = Stem;
},
{
horizontal = 1;
place = (-82, 7);
place = (-82, 7);
type = Stem;
},
{
horizontal = 1;
place = (-8, 8);
place = (-8, 8);
type = Stem;
},
{
horizontal = 1;
place = (599, 8);
place = (599, 8);
type = Stem;
},
{
place = (30, 8);
place = (30, 8);
type = Stem;
},
{
place = (115, 7);
place = (115, 7);
type = Stem;
},
{
place = (202, 8);
place = (202, 8);
type = Stem;
},
{
place = (282, 8);
place = (282, 8);
type = Stem;
}
);
layerId = m01;
shapes = (
{
closed = 1;
nodes = (
(227,599,o),
(282,544,o),
(282,477,c),
(290,477,l),
(290,548,o),
(231,607,o),
(160,607,cs),
(88,607,o),
(30,548,o),
(30,477,cs),
(30,122,ls),
(30,54,o),
(82,-2,o),
(149,-8,c),
(115,-70,ls),
(112,-76,o),
(116,-82,o),
(124,-82,cs),
(171,-82,ls),
(188,-82,o),
(202,-96,o),
(202,-114,cs),
(202,-131,o),
(188,-145,o),
(171,-145,cs),
(112,-145,l),
(112,-152,l),
(171,-152,ls),
(192,-152,o),
(210,-135,o),
(210,-114,cs),
(210,-92,o),
(192,-75,o),
(171,-75,cs),
(124,-75,ls),
(122,-75,o),
(121,-74,o),
(122,-72,cs),
(156,-8,l),
(160,-8,ls),
(231,-8,o),
(290,50,o),
(290,122,c),
(282,122,l),
(282,54,o),
(227,0,o),
(160,0,cs),
(93,0,o),
(38,54,o),
(38,122,cs),
(38,477,ls),
(38,544,o),
(93,599,o),
(160,599,cs)
);
}
);
width = 320;
}
);
note = Ccedilla;
unicode = 199;
},
{
glyphname = Ccircumflex;
kernLeft = C;
kernRight = C;
layers = (
{
hints = (
{
horizontal = 1;
place = (-8, 8);
place = (-8, 8);
type = Stem;
},
{
horizontal = 1;
place = (599, 8);
place = (599, 8);
type = Stem;
},
{
horizontal = 1;
place = (718, 9);
place = (718, 9);
type = Stem;
},
{
place = (30, 8);
place = (30, 8);
type = Stem;
},
{
place = (282, 8);
place = (282, 8);
type = Stem;
}
);
layerId = m01;
shapes = (
{
closed = 1;
nodes = (
(227,599,o),
(282,544,o),
(282,477,c),
(290,477,l),
(290,548,o),
(231,607,o),
(160,607,cs),
(88,607,o),
(30,548,o),
(30,477,cs),
(30,122,ls),
(30,50,o),
(88,-8,o),
(160,-8,cs),
(231,-8,o),
(290,50,o),
(290,122,c),
(282,122,l),
(282,54,o),
(227,0,o),
(160,0,cs),
(93,0,o),
(38,54,o),
(38,122,cs),
(38,477,ls),
(38,544,o),
(93,599,o),
(160,599,cs)
);
},
{
closed = 1;
nodes = (
(120,651,l),
(128,651,l),
(160,718,l),
(191,651,l),
(199,651,l),
(164,727,l),
(156,727,l)
);
}
);
width = 320;
}
);
note = Ccircumflex;
unicode = 264;
},
{
glyphname = Cdotaccent;
kernLeft = C;
kernRight = C;
layers = (
{
hints = (
{
horizontal = 1;
place = (-8, 8);
place = (-8, 8);
type = Stem;
},
{
horizontal = 1;
place = (599, 8);
place = (599, 8);
type = Stem;
},
{
horizontal = 1;
place = (660, 30);
place = (660, 30);
type = Stem;
},
{
place = (30, 8);
place = (30, 8);
type = Stem;
},
{
place = (145, 30);
place = (145, 30);
type = Stem;
},
{
place = (282, 8);
place = (282, 8);
type = Stem;
}
);
layerId = m01;
shapes = (
{
closed = 1;
nodes = (
(227,599,o),
(282,544,o),
(282,477,c),
(290,477,l),
(290,548,o),
(231,607,o),
(160,607,cs),
(88,607,o),
(30,548,o),
(30,477,cs),
(30,122,ls),
(30,50,o),
(88,-8,o),
(160,-8,cs),
(231,-8,o),
(290,50,o),
(290,122,c),
(282,122,l),
(282,54,o),
(227,0,o),
(160,0,cs),
(93,0,o),
(38,54,o),
(38,122,cs),
(38,477,ls),
(38,544,o),
(93,599,o),
(160,599,cs)
);
},
{
closed = 1;
nodes = (
(145,667,o),
(152,660,o),
(160,660,cs),
(168,660,o),
(175,667,o),
(175,675,cs),
(175,683,o),
(168,690,o),
(160,690,cs),
(152,690,o),
(145,683,o),
(145,675,cs)
);
}
);
width = 320;
}
);
note = Cdotaccent;
unicode = 266;
},
{
glyphname = D;
kernLeft = D;
kernRight = D;
layers = (
{
hints = (
{
horizontal = 1;
place = (0, 8);
place = (0, 8);
type = Stem;
},
{
horizontal = 1;
place = (592, 8);
place = (592, 8);
type = Stem;
},
{
place = (30, 7);
place = (30, 7);
type = Stem;
},
{
place = (276, 8);
place = (276, 8);
type = Stem;
}
);
layerId = m01;
shapes = (
{
closed = 1;
nodes = (
(276,89,ls),
(276,44,o),
(240,8,o),
(195,8,cs),
(50,8,ls),
(43,8,o),
(37,13,o),
(37,21,cs),
(37,579,ls),
(37,586,o),
(43,592,o),
(50,592,cs),
(195,592,ls),
(240,592,o),
(276,556,o),
(276,511,cs)
);
},
{
closed = 1;
nodes = (
(30,21,ls),
(30,9,o),
(39,0,o),
(50,0,cs),
(195,0,ls),
(244,0,o),
(284,40,o),
(284,89,cs),
(284,511,ls),
(284,560,o),
(244,600,o),
(195,600,cs),
(50,600,ls),
(39,600,o),
(30,590,o),
(30,579,cs)
);
}
);
width = 314;
}
);
note = D;
unicode = 68;
},
{
glyphname = Eth;
kernLeft = D;
kernRight = D;
layers = (
{
hints = (
{
horizontal = 1;
place = (0, 8);
place = (0, 8);
type = Stem;
},
{
horizontal = 1;
place = (400, 8);
place = (400, 8);
type = Stem;
},
{
horizontal = 1;
place = (592, 8);
place = (592, 8);
type = Stem;
},
{
place = (75, 7);
place = (75, 7);
type = Stem;
},
{
place = (321, 8);
place = (321, 8);
type = Stem;
}
);
layerId = m01;
shapes = (
{
closed = 1;
nodes = (
(321,89,ls),
(321,44,o),
(285,8,o),
(240,8,cs),
(95,8,ls),
(88,8,o),
(82,13,o),
(82,21,cs),
(82,400,l),
(210,400,l),
(210,408,l),
(82,408,l),
(82,579,ls),
(82,586,o),
(88,592,o),
(95,592,cs),
(240,592,ls),
(285,592,o),
(321,556,o),
(321,511,cs)
);
},
{
closed = 1;
nodes = (
(36,400,l),
(75,400,l),
(75,21,ls),
(75,9,o),
(84,0,o),
(95,0,cs),
(240,0,ls),
(289,0,o),
(329,40,o),
(329,89,cs),
(329,511,ls),
(329,560,o),
(289,600,o),
(240,600,cs),
(95,600,ls),
(84,600,o),
(75,590,o),
(75,579,cs),
(75,408,l),
(36,408,l)
);
}
);
width = 360;
}
);
note = Eth;
unicode = 208;
},
{
glyphname = E;
kernLeft = E;
kernRight = AE;
layers = (
{
hints = (
{
horizontal = 1;
place = (0, 7);
place = (0, 7);
type = Stem;
},
{
horizontal = 1;
place = (352, 7);
place = (352, 7);
type = Stem;
},
{
horizontal = 1;
place = (592, 8);
place = (592, 8);
type = Stem;
},
{
place = (30, 7);
place = (30, 7);
type = Stem;
}
);
layerId = m01;
shapes = (
{
closed = 1;
nodes = (
(30,32,ls),
(30,14,o),
(44,0,o),
(62,0,cs),
(280,0,l),
(280,7,l),
(62,7,ls),
(48,7,o),
(37,18,o),
(37,32,cs),
(37,352,l),
(252,352,l),
(252,359,l),
(37,359,l),
(37,567,ls),
(37,581,o),
(48,592,o),
(62,592,cs),
(280,592,l),
(280,600,l),
(62,600,ls),
(44,600,o),
(30,585,o),
(30,567,cs)
);
}
);
width = 310;
}
);
note = E;
unicode = 69;
},
{
glyphname = Eacute;
kernLeft = E;
kernRight = AE;
layers = (
{
hints = (
{
horizontal = 1;
place = (0, 7);
place = (0, 7);
type = Stem;
},
{
horizontal = 1;
place = (352, 7);
place = (352, 7);
type = Stem;
},
{
horizontal = 1;
place = (592, 8);
place = (592, 8);
type = Stem;
},
{
place = (30, 7);
place = (30, 7);
type = Stem;
}
);
layerId = m01;
shapes = (
{
closed = 1;
nodes = (
(30,32,ls),
(30,14,o),
(44,0,o),
(62,0,cs),
(280,0,l),
(280,7,l),
(62,7,ls),
(48,7,o),
(37,18,o),
(37,32,cs),
(37,352,l),
(252,352,l),
(252,359,l),
(37,359,l),
(37,567,ls),
(37,581,o),
(48,592,o),
(62,592,cs),
(280,592,l),
(280,600,l),
(62,600,ls),
(44,600,o),
(30,585,o),
(30,567,cs)
);
},
{
closed = 1;
nodes = (
(135,651,l),
(143,651,l),
(179,727,l),
(171,727,l)
);
}
);
width = 310;
}
);
note = Eacute;
unicode = 201;
},
{
glyphname = Ecircumflex;
kernLeft = E;
kernRight = AE;
layers = (
{
hints = (
{
horizontal = 1;
place = (0, 7);
place = (0, 7);
type = Stem;
},
{
horizontal = 1;
place = (352, 7);
place = (352, 7);
type = Stem;
},
{
horizontal = 1;
place = (592, 8);
place = (592, 8);
type = Stem;
},
{
horizontal = 1;
place = (718, 9);
place = (718, 9);
type = Stem;
},
{
place = (30, 7);
place = (30, 7);
type = Stem;
}
);
layerId = m01;
shapes = (
{
closed = 1;
nodes = (
(30,32,ls),
(30,14,o),
(44,0,o),
(62,0,cs),
(280,0,l),
(280,7,l),
(62,7,ls),
(48,7,o),
(37,18,o),
(37,32,cs),
(37,352,l),
(252,352,l),
(252,359,l),
(37,359,l),
(37,567,ls),
(37,581,o),
(48,592,o),
(62,592,cs),
(280,592,l),
(280,600,l),
(62,600,ls),
(44,600,o),
(30,585,o),
(30,567,cs)
);
},
{
closed = 1;
nodes = (
(116,651,l),
(124,651,l),
(156,718,l),
(187,651,l),
(195,651,l),
(160,727,l),
(152,727,l)
);
}
);
width = 310;
}
);
note = Ecircumflex;
unicode = 202;
},
{
glyphname = Edieresis;
kernLeft = E;
kernRight = AE;
layers = (
{
hints = (
{
horizontal = 1;
place = (0, 7);
place = (0, 7);
type = Stem;
},
{
horizontal = 1;
place = (352, 7);
place = (352, 7);
type = Stem;
},
{
horizontal = 1;
place = (592, 8);
place = (592, 8);
type = Stem;
},
{
horizontal = 1;
place = (660, 30);
place = (660, 30);
type = Stem;
},
{
place = (30, 7);
place = (30, 7);
type = Stem;
},
{
place = (93, 30);
place = (93, 30);
type = Stem;
},
{
place = (186, 30);
place = (186, 30);
type = Stem;
}
);
layerId = m01;
shapes = (
{
closed = 1;
nodes = (
(30,32,ls),
(30,14,o),
(44,0,o),
(62,0,cs),
(280,0,l),
(280,7,l),
(62,7,ls),
(48,7,o),
(37,18,o),
(37,32,cs),
(37,352,l),
(252,352,l),
(252,359,l),
(37,359,l),
(37,567,ls),
(37,581,o),
(48,592,o),
(62,592,cs),
(280,592,l),
(280,600,l),
(62,600,ls),
(44,600,o),
(30,585,o),
(30,567,cs)
);
},
{
closed = 1;
nodes = (
(93,667,o),
(100,660,o),
(108,660,cs),
(116,660,o),
(123,667,o),
(123,675,cs),
(123,683,o),
(116,690,o),
(108,690,cs),
(100,690,o),
(93,683,o),
(93,675,cs)
);
},
{
closed = 1;
nodes = (
(186,667,o),
(193,660,o),
(201,660,cs),
(209,660,o),
(216,667,o),
(216,675,cs),
(216,683,o),
(209,690,o),
(201,690,cs),
(193,690,o),
(186,683,o),
(186,675,cs)
);
}
);
width = 310;
}
);
note = Edieresis;
unicode = 203;
},
{
glyphname = Edotaccent;
kernLeft = E;
kernRight = AE;
layers = (
{
hints = (
{
horizontal = 1;
place = (0, 7);
place = (0, 7);
type = Stem;
},
{
horizontal = 1;
place = (352, 7);
place = (352, 7);
type = Stem;
},
{
horizontal = 1;
place = (592, 8);
place = (592, 8);
type = Stem;
},
{
horizontal = 1;
place = (660, 30);
place = (660, 30);
type = Stem;
},
{
place = (30, 7);
place = (30, 7);
type = Stem;
},
{
place = (144, 30);
place = (144, 30);
type = Stem;
}
);
layerId = m01;
shapes = (
{
closed = 1;
nodes = (
(30,32,ls),
(30,14,o),
(44,0,o),
(62,0,cs),
(280,0,l),
(280,7,l),
(62,7,ls),
(48,7,o),
(37,18,o),
(37,32,cs),
(37,352,l),
(252,352,l),
(252,359,l),
(37,359,l),
(37,567,ls),
(37,581,o),
(48,592,o),
(62,592,cs),
(280,592,l),
(280,600,l),
(62,600,ls),
(44,600,o),
(30,585,o),
(30,567,cs)
);
},
{
closed = 1;
nodes = (
(144,667,o),
(151,660,o),
(159,660,cs),
(167,660,o),
(174,667,o),
(174,675,cs),
(174,683,o),
(167,690,o),
(159,690,cs),
(151,690,o),
(144,683,o),
(144,675,cs)
);
}
);
width = 310;
}
);
note = Edotaccent;
unicode = 278;
},
{
glyphname = Egrave;
kernLeft = E;
kernRight = AE;
layers = (
{
hints = (
{
horizontal = 1;
place = (0, 7);
place = (0, 7);
type = Stem;
},
{
horizontal = 1;
place = (352, 7);
place = (352, 7);
type = Stem;
},
{
horizontal = 1;
place = (592, 8);
place = (592, 8);
type = Stem;
},
{
place = (30, 7);
place = (30, 7);
type = Stem;
}
);
layerId = m01;
shapes = (
{
closed = 1;
nodes = (
(30,32,ls),
(30,14,o),
(44,0,o),
(62,0,cs),
(280,0,l),
(280,7,l),
(62,7,ls),
(48,7,o),
(37,18,o),
(37,32,cs),
(37,352,l),
(252,352,l),
(252,359,l),
(37,359,l),
(37,567,ls),
(37,581,o),
(48,592,o),
(62,592,cs),
(280,592,l),
(280,600,l),
(62,600,ls),
(44,600,o),
(30,585,o),
(30,567,cs)
);
},
{
closed = 1;
nodes = (
(128,727,l),
(163,651,l),
(171,651,l),
(136,727,l)
);
}
);
width = 310;
}
);
note = Egrave;
unicode = 200;
},
{
glyphname = Emacron;
kernLeft = E;
kernRight = AE;
layers = (
{
hints = (
{
horizontal = 1;
place = (0, 7);
place = (0, 7);
type = Stem;
},
{
horizontal = 1;
place = (352, 7);
place = (352, 7);
type = Stem;
},
{
horizontal = 1;
place = (592, 8);
place = (592, 8);
type = Stem;
},
{
horizontal = 1;
place = (674, 8);
place = (674, 8);
type = Stem;
},
{
place = (30, 7);
place = (30, 7);
type = Stem;
}
);
layerId = m01;
shapes = (
{
closed = 1;
nodes = (
(30,32,ls),
(30,14,o),
(44,0,o),
(62,0,cs),
(280,0,l),
(280,7,l),
(62,7,ls),
(48,7,o),
(37,18,o),
(37,32,cs),
(37,352,l),
(252,352,l),
(252,359,l),
(37,359,l),
(37,567,ls),
(37,581,o),
(48,592,o),
(62,592,cs),
(280,592,l),
(280,600,l),
(62,600,ls),
(44,600,o),
(30,585,o),
(30,567,cs)
);
},
{
closed = 1;
nodes = (
(87,674,l),
(217,674,l),
(217,682,l),
(87,682,l)
);
}
);
width = 310;
}
);
note = Emacron;
unicode = 274;
},
{
glyphname = Eogonek;
kernLeft = E;
kernRight = AE;
layers = (
{
hints = (
{
horizontal = 1;
place = (-97, 9);
place = (-97, 9);
type = Stem;
},
{
horizontal = 1;
place = (0, 7);
place = (0, 7);
type = Stem;
},
{
horizontal = 1;
place = (352, 7);
place = (352, 7);
type = Stem;
},
{
horizontal = 1;
place = (592, 8);
place = (592, 8);
type = Stem;
},
{
place = (30, 7);
place = (30, 7);
type = Stem;
},
{
place = (215, 58);
place = (215, 58);
type = Stem;
},
{
place = (215, 65);
place = (215, 65);
type = Stem;
}
);
layerId = m01;
shapes = (
{
closed = 1;
nodes = (
(30,32,ls),
(30,14,o),
(44,0,o),
(62,0,cs),
(235,0,l),
(218,-47,ls),
(208,-74,o),
(224,-97,o),
(252,-97,cs),
(259,-97,o),
(266,-96,o),
(273,-93,c),
(273,-85,l),
(267,-87,o),
(261,-88,o),
(255,-88,cs),
(231,-88,o),
(219,-70,o),
(227,-47,cs),
(244,0,l),
(280,0,l),
(280,7,l),
(62,7,ls),
(48,7,o),
(37,18,o),
(37,32,cs),
(37,352,l),
(252,352,l),
(252,359,l),
(37,359,l),
(37,567,ls),
(37,581,o),
(48,592,o),
(62,592,cs),
(280,592,l),
(280,600,l),
(62,600,ls),
(44,600,o),
(30,585,o),
(30,567,cs)
);
}
);
width = 310;
}
);
note = Eogonek;
unicode = 280;
},
{
glyphname = Etilde;
kernLeft = E;
kernRight = AE;
layers = (
{
hints = (
{
horizontal = 1;
place = (0, 7);
place = (0, 7);
type = Stem;
},
{
horizontal = 1;
place = (352, 7);
place = (352, 7);
type = Stem;
},
{
horizontal = 1;
place = (592, 8);
place = (592, 8);
type = Stem;
},
{
horizontal = 1;
place = (695, 21);
target = up;
type = BottomGhost;
},
{
place = (30, 7);
place = (30, 7);
type = Stem;
},
{
horizontal = 1;
place = (592, 66);
place = (592, 66);
type = Stem;
}
);
layerId = m01;
shapes = (
{
closed = 1;
nodes = (
(30,32,ls),
(30,14,o),
(44,0,o),
(62,0,cs),
(280,0,l),
(280,7,l),
(62,7,ls),
(48,7,o),
(37,18,o),
(37,32,cs),
(37,352,l),
(252,352,l),
(252,359,l),
(37,359,l),
(37,567,ls),
(37,581,o),
(48,592,o),
(62,592,cs),
(280,592,l),
(280,600,l),
(62,600,ls),
(44,600,o),
(30,585,o),
(30,567,cs)
);
},
{
closed = 1;
nodes = (
(82,665,l),
(83,667,o),
(98,700,o),
(122,703,cs),
(135,704,o),
(148,697,o),
(159,682,cs),
(168,670,o),
(178,665,o),
(187,666,cs),
(205,667,o),
(219,695,o),
(219,695,c),
(226,692,l),
(225,691,o),
(210,660,o),
(187,658,cs),
(185,658,ls),
(174,658,o),
(163,664,o),
(153,677,cs),
(143,690,o),
(133,696,o),
(123,695,cs),
(103,693,o),
(89,662,o),
(89,662,c)
);
}
);
width = 310;
}
);
note = uni1EBC;
unicode = 7868;
},
{
glyphname = Schwa;
kernLeft = Schwa;
kernRight = Schwa;
layers = (
{
hints = (
{
horizontal = 1;
place = (-8, 8);
place = (-8, 8);
type = Stem;
},
{
horizontal = 1;
place = (224, 8);
place = (224, 8);
type = Stem;
},
{
horizontal = 1;
place = (599, 8);
place = (599, 8);
type = Stem;
},
{
place = (25, 8);
place = (25, 8);
type = Stem;
},
{
place = (277, 7);
place = (277, 7);
type = Stem;
}
);
layerId = m01;
shapes = (
{
closed = 1;
nodes = (
(25,122,ls),
(25,50,o),
(83,-8,o),
(155,-8,cs),
(226,-8,o),
(284,50,o),
(284,122,cs),
(284,477,ls),
(284,549,o),
(226,607,o),
(155,607,cs),
(83,607,o),
(25,549,o),
(25,477,cs),
(25,407,l),
(33,407,l),
(33,477,ls),
(33,544,o),
(87,599,o),
(155,599,cs),
(222,599,o),
(277,544,o),
(277,477,cs),
(277,122,ls),
(277,54,o),
(222,0,o),
(155,0,cs),
(87,0,o),
(33,54,o),
(33,122,cs),
(33,207,ls),
(33,217,o),
(38,224,o),
(47,224,cs),
(210,224,l),
(210,232,l),
(47,232,ls),
(35,232,o),
(25,222,o),
(25,207,cs)
);
}
);
width = 309;
}
);
note = uni018F;
unicode = 399;
},
{
glyphname = F;
kernLeft = F;
kernRight = F;
layers = (
{
hints = (
{
horizontal = 1;
place = (0, 8);
place = (0, 8);
type = Stem;
},
{
horizontal = 1;
place = (352, 7);
place = (352, 7);
type = Stem;
},
{
horizontal = 1;
place = (593, 7);
place = (593, 7);
type = Stem;
},
{
place = (58, 7);
place = (58, 7);
type = Stem;
}
);
layerId = m01;
shapes = (
{
closed = 1;
nodes = (
(58,8,l),
(25,8,l),
(25,0,l),
(99,0,l),
(99,8,l),
(93,8,ls),
(78,8,o),
(65,20,o),
(65,36,cs),
(65,352,l),
(270,352,l),
(270,359,l),
(65,359,l),
(65,579,ls),
(65,587,o),
(71,593,o),
(78,593,cs),
(308,593,l),
(308,600,l),
(78,600,ls),
(67,600,o),
(58,591,o),
(58,579,cs)
);
}
);
width = 333;
}
);
note = F;
unicode = 70;
},
{
glyphname = G;
kernLeft = Schwa;
kernRight = Schwa;
layers = (
{
hints = (
{
horizontal = 1;
place = (-8, 8);
place = (-8, 8);
type = Stem;
},
{
horizontal = 1;
place = (351, 8);
place = (351, 8);
type = Stem;
},
{
horizontal = 1;
place = (600, 7);
place = (600, 7);
type = Stem;
},
{
place = (25, 7);
place = (25, 7);
type = Stem;
},
{
place = (277, 7);
place = (277, 7);
type = Stem;
}
);
layerId = m01;
shapes = (
{
closed = 1;
nodes = (
(222,600,o),
(277,545,o),
(277,478,c),
(284,478,l),
(284,549,o),
(226,607,o),
(154,607,cs),
(83,607,o),
(25,549,o),
(25,478,cs),
(25,122,ls),
(25,50,o),
(83,-8,o),
(154,-8,cs),
(226,-8,o),
(284,50,o),
(284,122,cs),
(284,338,ls),
(284,350,o),
(275,359,o),
(263,359,cs),
(105,359,l),
(105,351,l),
(263,351,ls),
(271,351,o),
(277,345,o),
(277,338,cs),
(277,122,ls),
(277,54,o),
(222,0,o),
(154,0,cs),
(87,0,o),
(32,54,o),
(32,122,cs),
(32,478,ls),
(32,545,o),
(87,600,o),
(154,600,cs)
);
}
);
width = 309;
}
);
note = G;
unicode = 71;
},
{
glyphname = Gbreve;
kernLeft = Schwa;
kernRight = Schwa;
layers = (
{
hints = (
{
horizontal = 1;
place = (-8, 8);
place = (-8, 8);
type = Stem;
},
{
horizontal = 1;
place = (351, 8);
place = (351, 8);
type = Stem;
},
{
horizontal = 1;
place = (600, 7);
place = (600, 7);
type = Stem;
},
{
horizontal = 1;
place = (699, 21);
target = up;
type = BottomGhost;
},
{
place = (25, 7);
place = (25, 7);
type = Stem;
},
{
place = (277, 7);
place = (277, 7);
type = Stem;
},
{
horizontal = 1;
place = (600, 58);
place = (600, 58);
type = Stem;
},
{
horizontal = 1;
place = (694, 21);
target = up;
type = BottomGhost;
}
);
layerId = m01;
shapes = (
{
closed = 1;
nodes = (
(222,600,o),
(277,545,o),
(277,478,c),
(284,478,l),
(284,549,o),
(226,607,o),
(154,607,cs),
(83,607,o),
(25,549,o),
(25,478,cs),
(25,122,ls),
(25,50,o),
(83,-8,o),
(154,-8,cs),
(226,-8,o),
(284,50,o),
(284,122,cs),
(284,338,ls),
(284,350,o),
(275,359,o),
(263,359,cs),
(105,359,l),
(105,351,l),
(263,351,ls),
(271,351,o),
(277,345,o),
(277,338,cs),
(277,122,ls),
(277,54,o),
(222,0,o),
(154,0,cs),
(87,0,o),
(32,54,o),
(32,122,cs),
(32,478,ls),
(32,545,o),
(87,600,o),
(154,600,cs)
);
},
{
closed = 1;
nodes = (
(91,699,l),
(111,677,o),
(137,665,o),
(163,665,cs),
(189,665,o),
(214,677,o),
(234,699,c),
(240,694,l),
(218,670,o),
(191,658,o),
(163,658,cs),
(135,658,o),
(107,670,o),
(86,694,c)
);
}
);
width = 309;
}
);
note = Gbreve;
unicode = 286;
},
{
glyphname = Gcircumflex;
kernLeft = Schwa;
kernRight = Schwa;
layers = (
{
hints = (
{
horizontal = 1;
place = (-8, 8);
place = (-8, 8);
type = Stem;
},
{
horizontal = 1;
place = (351, 8);
place = (351, 8);
type = Stem;
},
{
horizontal = 1;
place = (600, 7);
place = (600, 7);
type = Stem;
},
{
horizontal = 1;
place = (718, 9);
place = (718, 9);
type = Stem;
},
{
place = (25, 7);
place = (25, 7);
type = Stem;
},
{
place = (277, 7);
place = (277, 7);
type = Stem;
}
);
layerId = m01;
shapes = (
{
closed = 1;
nodes = (
(222,600,o),
(277,545,o),
(277,478,c),
(284,478,l),
(284,549,o),
(226,607,o),
(154,607,cs),
(83,607,o),
(25,549,o),
(25,478,cs),
(25,122,ls),
(25,50,o),
(83,-8,o),
(154,-8,cs),
(226,-8,o),
(284,50,o),
(284,122,cs),
(284,338,ls),
(284,350,o),
(275,359,o),
(263,359,cs),
(105,359,l),
(105,351,l),
(263,351,ls),
(271,351,o),
(277,345,o),
(277,338,cs),
(277,122,ls),
(277,54,o),
(222,0,o),
(154,0,cs),
(87,0,o),
(32,54,o),
(32,122,cs),
(32,478,ls),
(32,545,o),
(87,600,o),
(154,600,cs)
);
},
{
closed = 1;
nodes = (
(115,651,l),
(123,651,l),
(155,718,l),
(186,651,l),
(194,651,l),
(159,727,l),
(151,727,l)
);
}
);
width = 309;
}
);
note = Gcircumflex;
unicode = 284;
},
{
glyphname = Gdotaccent;
kernLeft = Schwa;
kernRight = Schwa;
layers = (
{
hints = (
{
horizontal = 1;
place = (-8, 8);
place = (-8, 8);
type = Stem;
},
{
horizontal = 1;
place = (351, 8);
place = (351, 8);
type = Stem;
},
{
horizontal = 1;
place = (600, 7);
place = (600, 7);
type = Stem;
},
{
horizontal = 1;
place = (660, 30);
place = (660, 30);
type = Stem;
},
{
place = (25, 7);
place = (25, 7);
type = Stem;
},
{
place = (139, 30);
place = (139, 30);
type = Stem;
},
{
place = (277, 7);
place = (277, 7);
type = Stem;
}
);
layerId = m01;
shapes = (
{
closed = 1;
nodes = (
(222,600,o),
(277,545,o),
(277,478,c),
(284,478,l),
(284,549,o),
(226,607,o),
(154,607,cs),
(83,607,o),
(25,549,o),
(25,478,cs),
(25,122,ls),
(25,50,o),
(83,-8,o),
(154,-8,cs),
(226,-8,o),
(284,50,o),
(284,122,cs),
(284,338,ls),
(284,350,o),
(275,359,o),
(263,359,cs),
(105,359,l),
(105,351,l),
(263,351,ls),
(271,351,o),
(277,345,o),
(277,338,cs),
(277,122,ls),
(277,54,o),
(222,0,o),
(154,0,cs),
(87,0,o),
(32,54,o),
(32,122,cs),
(32,478,ls),
(32,545,o),
(87,600,o),
(154,600,cs)
);
},
{
closed = 1;
nodes = (
(139,667,o),
(146,660,o),
(154,660,cs),
(162,660,o),
(169,667,o),
(169,675,cs),
(169,683,o),
(162,690,o),
(154,690,cs),
(146,690,o),
(139,683,o),
(139,675,cs)
);
}
);
width = 309;
}
);
note = Gdotaccent;
unicode = 288;
},
{
glyphname = Gmacron;
kernLeft = Schwa;
kernRight = Schwa;
layers = (
{
hints = (
{
horizontal = 1;
place = (-8, 8);
place = (-8, 8);
type = Stem;
},
{
horizontal = 1;
place = (351, 8);
place = (351, 8);
type = Stem;
},
{
horizontal = 1;
place = (600, 7);
place = (600, 7);
type = Stem;
},
{
horizontal = 1;
place = (674, 8);
place = (674, 8);
type = Stem;
},
{
place = (25, 7);
place = (25, 7);
type = Stem;
},
{
place = (277, 7);
place = (277, 7);
type = Stem;
}
);
layerId = m01;
shapes = (
{
closed = 1;
nodes = (
(222,600,o),
(277,545,o),
(277,478,c),
(284,478,l),
(284,549,o),
(226,607,o),
(154,607,cs),
(83,607,o),
(25,549,o),
(25,478,cs),
(25,122,ls),
(25,50,o),
(83,-8,o),
(154,-8,cs),
(226,-8,o),
(284,50,o),
(284,122,cs),
(284,338,ls),
(284,350,o),
(275,359,o),
(263,359,cs),
(105,359,l),
(105,351,l),
(263,351,ls),
(271,351,o),
(277,345,o),
(277,338,cs),
(277,122,ls),
(277,54,o),
(222,0,o),
(154,0,cs),
(87,0,o),
(32,54,o),
(32,122,cs),
(32,478,ls),
(32,545,o),
(87,600,o),
(154,600,cs)
);
},
{
closed = 1;
nodes = (
(90,674,l),
(220,674,l),
(220,682,l),
(90,682,l)
);
}
);
width = 309;
}
);
note = uni1E20;
unicode = 7712;
},
{
glyphname = H;
kernLeft = H;
layers = (
{
hints = (
{
horizontal = 1;
place = (2, 8);
place = (2, 8);
type = Stem;
},
{
horizontal = 1;
place = (397, 7);
place = (397, 7);
type = Stem;
},
{
horizontal = 1;
place = (593, 7);
place = (593, 7);
type = Stem;
},
{
place = (58, 8);
place = (58, 8);
type = Stem;
},
{
place = (305, 7);
place = (305, 7);
type = Stem;
}
);
layerId = m01;
shapes = (
{
closed = 1;
nodes = (
(271,600,l),
(271,593,l),
(305,593,l),
(305,404,l),
(66,404,l),
(66,565,ls),
(66,580,o),
(78,593,o),
(94,593,cs),
(99,593,l),
(99,600,l),
(25,600,l),
(25,593,l),
(58,593,l),
(58,10,l),
(25,10,l),
(25,2,l),
(99,2,l),
(99,10,l),
(94,10,ls),
(78,10,o),
(66,22,o),
(66,38,cs),
(66,397,l),
(305,397,l),
(305,10,l),
(271,10,l),
(271,2,l),
(346,2,l),
(346,10,l),
(341,10,ls),
(325,10,o),
(312,22,o),
(312,38,cs),
(312,565,ls),
(312,580,o),
(325,593,o),
(341,593,cs),
(346,593,l),
(346,600,l)
);
}
);
width = 371;
}
);
note = H;
unicode = 72;
},
{
glyphname = Hbar;
kernLeft = H;
layers = (
{
hints = (
{
horizontal = 1;
place = (2, 8);
place = (2, 8);
type = Stem;
},
{
horizontal = 1;
place = (397, 7);
place = (397, 7);
type = Stem;
},
{
horizontal = 1;
place = (509, 8);
place = (509, 8);
type = Stem;
},
{
horizontal = 1;
place = (593, 7);
place = (593, 7);
type = Stem;
},
{
place = (87, 8);
place = (87, 8);
type = Stem;
},
{
place = (334, 7);
place = (334, 7);
type = Stem;
}
);
layerId = m01;
shapes = (
{
closed = 1;
nodes = (
(300,600,l),
(300,593,l),
(334,593,l),
(334,517,l),
(95,517,l),
(95,565,ls),
(95,580,o),
(107,593,o),
(123,593,cs),
(128,593,l),
(128,600,l),
(54,600,l),
(54,593,l),
(87,593,l),
(87,517,l),
(25,517,l),
(25,509,l),
(87,509,l),
(87,10,l),
(54,10,l),
(54,2,l),
(128,2,l),
(128,10,l),
(123,10,ls),
(107,10,o),
(95,22,o),
(95,38,cs),
(95,397,l),
(334,397,l),
(334,10,l),
(300,10,l),
(300,2,l),
(375,2,l),
(375,10,l),
(370,10,ls),
(354,10,o),
(341,22,o),
(341,38,cs),
(341,509,l),
(404,509,l),
(404,517,l),
(341,517,l),
(341,565,ls),
(341,580,o),
(354,593,o),
(370,593,cs),
(375,593,l),
(375,600,l)
);
},
{
closed = 1;
nodes = (
(95,404,l),
(95,509,l),
(334,509,l),
(334,404,l)
);
}
);
width = 429;
}
);
note = Hbar;
unicode = 294;
},
{
glyphname = Hcircumflex;
kernLeft = H;
layers = (
{
hints = (
{
horizontal = 1;
place = (2, 8);
place = (2, 8);
type = Stem;
},
{
horizontal = 1;
place = (397, 7);
place = (397, 7);
type = Stem;
},
{
horizontal = 1;
place = (593, 7);
place = (593, 7);
type = Stem;
},
{
horizontal = 1;
place = (718, 9);
place = (718, 9);
type = Stem;
},
{
place = (58, 8);
place = (58, 8);
type = Stem;
},
{
place = (305, 7);
place = (305, 7);
type = Stem;
}
);
layerId = m01;
shapes = (
{
closed = 1;
nodes = (
(271,600,l),
(271,593,l),
(305,593,l),
(305,404,l),
(66,404,l),
(66,565,ls),
(66,580,o),
(78,593,o),
(94,593,cs),
(99,593,l),
(99,600,l),
(25,600,l),
(25,593,l),
(58,593,l),
(58,10,l),
(25,10,l),
(25,2,l),
(99,2,l),
(99,10,l),
(94,10,ls),
(78,10,o),
(66,22,o),
(66,38,cs),
(66,397,l),
(305,397,l),
(305,10,l),
(271,10,l),
(271,2,l),
(346,2,l),
(346,10,l),
(341,10,ls),
(325,10,o),
(312,22,o),
(312,38,cs),
(312,565,ls),
(312,580,o),
(325,593,o),
(341,593,cs),
(346,593,l),
(346,600,l)
);
},
{
closed = 1;
nodes = (
(146,651,l),
(154,651,l),
(186,718,l),
(217,651,l),
(225,651,l),
(190,727,l),
(182,727,l)
);
}
);
width = 371;
}
);
note = Hcircumflex;
unicode = 292;
},
{
glyphname = I;
kernLeft = I;
kernRight = I;
layers = (
{
hints = (
{
horizontal = 1;
place = (0, 8);
place = (0, 8);
type = Stem;
},
{
horizontal = 1;
place = (593, 7);
place = (593, 7);
type = Stem;
},
{
place = (59, 7);
place = (59, 7);
type = Stem;
}
);
layerId = m01;
shapes = (
{
closed = 1;
nodes = (
(25,600,l),
(25,593,l),
(59,593,l),
(59,8,l),
(25,8,l),
(25,0,l),
(100,0,l),
(100,8,l),
(95,8,ls),
(79,8,o),
(66,20,o),
(66,36,cs),
(66,565,ls),
(66,580,o),
(79,593,o),
(95,593,cs),
(100,593,l),
(100,600,l)
);
}
);
width = 125;
}
);
note = I;
unicode = 73;
},
{
glyphname = IJ;
kernLeft = I;
kernRight = IJ;
layers = (
{
hints = (
{
horizontal = 1;
place = (0, 8);
place = (0, 8);
type = Stem;
},
{
horizontal = 1;
place = (593, 7);
place = (593, 7);
type = Stem;
},
{
place = (59, 7);
place = (59, 7);
type = Stem;
},
{
place = (231, 8);
place = (231, 8);
type = Stem;
}
);
layerId = m01;
shapes = (
{
closed = 1;
nodes = (
(25,600,l),
(25,593,l),
(59,593,l),
(59,8,l),
(25,8,l),
(25,0,l),
(100,0,l),
(100,8,l),
(95,8,ls),
(79,8,o),
(66,20,o),
(66,36,cs),
(66,565,ls),
(66,580,o),
(79,593,o),
(95,593,cs),
(100,593,l),
(100,600,l)
);
},
{
closed = 1;
nodes = (
(150,0,l),
(199,0,o),
(239,40,o),
(239,89,cs),
(239,564,ls),
(239,580,o),
(251,593,o),
(267,593,cs),
(272,593,l),
(272,600,l),
(198,600,l),
(198,593,l),
(231,593,l),
(231,89,ls),
(231,44,o),
(195,8,o),
(150,8,c)
);
}
);
width = 297;
}
);
note = IJ;
unicode = 306;
},
{
glyphname = Iacute;
kernLeft = I;
kernRight = I;
layers = (
{
hints = (
{
horizontal = 1;
place = (0, 8);
place = (0, 8);
type = Stem;
},
{
horizontal = 1;
place = (593, 7);
place = (593, 7);
type = Stem;
},
{
place = (59, 7);
place = (59, 7);
type = Stem;
}
);
layerId = m01;
shapes = (
{
closed = 1;
nodes = (
(25,600,l),
(25,593,l),
(59,593,l),
(59,8,l),
(25,8,l),
(25,0,l),
(100,0,l),
(100,8,l),
(95,8,ls),
(79,8,o),
(66,20,o),
(66,36,cs),
(66,565,ls),
(66,580,o),
(79,593,o),
(95,593,cs),
(100,593,l),
(100,600,l)
);
},
{
closed = 1;
nodes = (
(55,651,l),
(63,651,l),
(99,727,l),
(91,727,l)
);
}
);
width = 125;
}
);
note = Iacute;
unicode = 205;
},
{
glyphname = Icircumflex;
kernLeft = I;
kernRight = I;
layers = (
{
hints = (
{
horizontal = 1;
place = (0, 8);
place = (0, 8);
type = Stem;
},
{
horizontal = 1;
place = (593, 7);
place = (593, 7);
type = Stem;
},
{
horizontal = 1;
place = (718, 9);
place = (718, 9);
type = Stem;
},
{
place = (59, 7);
place = (59, 7);
type = Stem;
}
);
layerId = m01;
shapes = (
{
closed = 1;
nodes = (
(25,600,l),
(25,593,l),
(59,593,l),
(59,8,l),
(25,8,l),
(25,0,l),
(100,0,l),
(100,8,l),
(95,8,ls),
(79,8,o),
(66,20,o),
(66,36,cs),
(66,565,ls),
(66,580,o),
(79,593,o),
(95,593,cs),
(100,593,l),
(100,600,l)
);
},
{
closed = 1;
nodes = (
(23,651,l),
(31,651,l),
(63,718,l),
(94,651,l),
(102,651,l),
(67,727,l),
(59,727,l)
);
}
);
width = 125;
}
);
note = Icircumflex;
unicode = 206;
},
{
glyphname = Idieresis;
kernLeft = I;
kernRight = I;
layers = (
{
hints = (
{
horizontal = 1;
place = (0, 8);
place = (0, 8);
type = Stem;
},
{
horizontal = 1;
place = (593, 7);
place = (593, 7);
type = Stem;
},
{
place = (59, 7);
place = (59, 7);
type = Stem;
},
{
horizontal = 1;
place = (660, 30);
place = (660, 30);
type = Stem;
},
{
place = (2, 30);
place = (2, 30);
type = Stem;
},
{
place = (95, 30);
place = (95, 30);
type = Stem;
}
);
layerId = m01;
shapes = (
{
closed = 1;
nodes = (
(25,600,l),
(25,593,l),
(59,593,l),
(59,8,l),
(25,8,l),
(25,0,l),
(100,0,l),
(100,8,l),
(95,8,ls),
(79,8,o),
(66,20,o),
(66,36,cs),
(66,565,ls),
(66,580,o),
(79,593,o),
(95,593,cs),
(100,593,l),
(100,600,l)
);
},
{
closed = 1;
nodes = (
(2,667,o),
(9,660,o),
(17,660,cs),
(25,660,o),
(32,667,o),
(32,675,cs),
(32,683,o),
(25,690,o),
(17,690,cs),
(9,690,o),
(2,683,o),
(2,675,cs)
);
},
{
closed = 1;
nodes = (
(95,667,o),
(102,660,o),
(110,660,cs),
(118,660,o),
(125,667,o),
(125,675,cs),
(125,683,o),
(118,690,o),
(110,690,cs),
(102,690,o),
(95,683,o),
(95,675,cs)
);
}
);
width = 125;
}
);
note = Idieresis;
unicode = 207;
},
{
glyphname = Idotaccent;
kernLeft = I;
kernRight = I;
layers = (
{
hints = (
{
horizontal = 1;
place = (0, 8);
place = (0, 8);
type = Stem;
},
{
horizontal = 1;
place = (593, 7);
place = (593, 7);
type = Stem;
},
{
place = (59, 7);
place = (59, 7);
type = Stem;
},
{
horizontal = 1;
place = (660, 30);
place = (660, 30);
type = Stem;
},
{
place = (49, 30);
place = (49, 30);
type = Stem;
}
);
layerId = m01;
shapes = (
{
closed = 1;
nodes = (
(25,600,l),
(25,593,l),
(59,593,l),
(59,8,l),
(25,8,l),
(25,0,l),
(100,0,l),
(100,8,l),
(95,8,ls),
(79,8,o),
(66,20,o),
(66,36,cs),
(66,565,ls),
(66,580,o),
(79,593,o),
(95,593,cs),
(100,593,l),
(100,600,l)
);
},
{
closed = 1;
nodes = (
(49,667,o),
(56,660,o),
(64,660,cs),
(72,660,o),
(79,667,o),
(79,675,cs),
(79,683,o),
(72,690,o),
(64,690,cs),
(56,690,o),
(49,683,o),
(49,675,cs)
);
}
);
width = 125;
}
);
note = Idotaccent;
unicode = 304;
},
{
glyphname = Igrave;
kernLeft = I;
kernRight = I;
layers = (
{
hints = (
{
horizontal = 1;
place = (0, 8);
place = (0, 8);
type = Stem;
},
{
horizontal = 1;
place = (593, 7);
place = (593, 7);
type = Stem;
},
{
place = (59, 7);
place = (59, 7);
type = Stem;
}
);
layerId = m01;
shapes = (
{
closed = 1;
nodes = (
(25,600,l),
(25,593,l),
(59,593,l),
(59,8,l),
(25,8,l),
(25,0,l),
(100,0,l),
(100,8,l),
(95,8,ls),
(79,8,o),
(66,20,o),
(66,36,cs),
(66,565,ls),
(66,580,o),
(79,593,o),
(95,593,cs),
(100,593,l),
(100,600,l)
);
},
{
closed = 1;
nodes = (
(37,727,l),
(72,651,l),
(80,651,l),
(45,727,l)
);
}
);
width = 125;
}
);
note = Igrave;
unicode = 204;
},
{
glyphname = Imacron;
kernLeft = I;
kernRight = I;
layers = (
{
hints = (
{
horizontal = 1;
place = (0, 8);
place = (0, 8);
type = Stem;
},
{
horizontal = 1;
place = (593, 7);
place = (593, 7);
type = Stem;
},
{
horizontal = 1;
place = (674, 8);
place = (674, 8);
type = Stem;
},
{
place = (59, 7);
place = (59, 7);
type = Stem;
}
);
layerId = m01;
shapes = (
{
closed = 1;
nodes = (
(25,600,l),
(25,593,l),
(59,593,l),
(59,8,l),
(25,8,l),
(25,0,l),
(100,0,l),
(100,8,l),
(95,8,ls),
(79,8,o),
(66,20,o),
(66,36,cs),
(66,565,ls),
(66,580,o),
(79,593,o),
(95,593,cs),
(100,593,l),
(100,600,l)
);
},
{
closed = 1;
nodes = (
(-2,674,l),
(128,674,l),
(128,682,l),
(-2,682,l)
);
}
);
width = 125;
}
);
note = Imacron;
unicode = 298;
},
{
glyphname = Itilde;
kernLeft = I;
kernRight = I;
layers = (
{
hints = (
{
horizontal = 1;
place = (0, 8);
place = (0, 8);
type = Stem;
},
{
horizontal = 1;
place = (593, 7);
place = (593, 7);
type = Stem;
},
{
horizontal = 1;
place = (695, 21);
target = up;
type = BottomGhost;
},
{
place = (64, 7);
place = (64, 7);
type = Stem;
}
);
layerId = m01;
shapes = (
{
closed = 1;
nodes = (
(30,600,l),
(30,593,l),
(64,593,l),
(64,8,l),
(30,8,l),
(30,0,l),
(105,0,l),
(105,8,l),
(100,8,ls),
(84,8,o),
(71,20,o),
(71,36,cs),
(71,565,ls),
(71,580,o),
(84,593,o),
(100,593,cs),
(105,593,l),
(105,600,l)
);
},
{
closed = 1;
nodes = (
(0,665,l),
(1,667,o),
(16,700,o),
(40,703,cs),
(53,704,o),
(66,697,o),
(77,682,cs),
(86,670,o),
(96,665,o),
(105,666,cs),
(123,667,o),
(137,695,o),
(137,695,c),
(144,692,l),
(143,691,o),
(128,660,o),
(105,658,cs),
(103,658,ls),
(92,658,o),
(81,664,o),
(71,677,cs),
(61,690,o),
(51,696,o),
(41,695,cs),
(21,693,o),
(7,662,o),
(7,662,c)
);
}
);
width = 139;
}
);
note = Itilde;
unicode = 296;
},
{
glyphname = J;
kernRight = IJ;
layers = (
{
hints = (
{
horizontal = 1;
place = (0, 8);
place = (0, 8);
type = Stem;
},
{
horizontal = 1;
place = (593, 7);
place = (593, 7);
type = Stem;
},
{
place = (106, 8);
place = (106, 8);
type = Stem;
}
);
layerId = m01;
shapes = (
{
closed = 1;
nodes = (
(73,600,l),
(73,593,l),
(106,593,l),
(106,89,ls),
(106,44,o),
(70,8,o),
(25,8,c),
(25,0,l),
(74,0,o),
(114,40,o),
(114,89,cs),
(114,564,ls),
(114,580,o),
(126,593,o),
(142,593,cs),
(147,593,l),
(147,600,l)
);
}
);
width = 172;
}
);
note = J;
unicode = 74;
},
{
glyphname = J_acutecomb;
kernRight = IJ;
layers = (
{
hints = (
{
horizontal = 1;
place = (0, 8);
place = (0, 8);
type = Stem;
},
{
horizontal = 1;
place = (593, 7);
place = (593, 7);
type = Stem;
},
{
place = (106, 8);
place = (106, 8);
type = Stem;
}
);
layerId = m01;
shapes = (
{
closed = 1;
nodes = (
(73,600,l),
(73,593,l),
(106,593,l),
(106,89,ls),
(106,44,o),
(70,8,o),
(25,8,c),
(25,0,l),
(74,0,o),
(114,40,o),
(114,89,cs),
(114,564,ls),
(114,580,o),
(126,593,o),
(142,593,cs),
(147,593,l),
(147,600,l)
);
},
{
closed = 1;
nodes = (
(104,651,l),
(112,651,l),
(148,727,l),
(140,727,l)
);
}
);
width = 172;
}
);
note = uni004A0301;
},
{
glyphname = Jcircumflex;
kernRight = IJ;
layers = (
{
hints = (
{
horizontal = 1;
place = (0, 8);
place = (0, 8);
type = Stem;
},
{
horizontal = 1;
place = (593, 7);
place = (593, 7);
type = Stem;
},
{
horizontal = 1;
place = (718, 9);
place = (718, 9);
type = Stem;
},
{
place = (106, 8);
place = (106, 8);
type = Stem;
}
);
layerId = m01;
shapes = (
{
closed = 1;
nodes = (
(73,600,l),
(73,593,l),
(106,593,l),
(106,89,ls),
(106,44,o),
(70,8,o),
(25,8,c),
(25,0,l),
(74,0,o),
(114,40,o),
(114,89,cs),
(114,564,ls),
(114,580,o),
(126,593,o),
(142,593,cs),
(147,593,l),
(147,600,l)
);
},
{
closed = 1;
nodes = (
(73,651,l),
(81,651,l),
(113,718,l),
(144,651,l),
(152,651,l),
(117,727,l),
(109,727,l)
);
}
);
width = 172;
}
);
note = Jcircumflex;
unicode = 308;
},
{
glyphname = K;
kernLeft = K;
kernRight = K;
layers = (
{
hints = (
{
horizontal = 1;
place = (0, 8);
place = (0, 8);
type = Stem;
},
{
horizontal = 1;
place = (592, 8);
place = (592, 8);
type = Stem;
},
{
place = (58, 7);
place = (58, 7);
type = Stem;
},
{
place = (265, 74);
place = (265, 74);
type = Stem;
}
);
layerId = m01;
shapes = (
{
closed = 1;
nodes = (
(265,600,l),
(265,592,l),
(303,592,l),
(65,308,l),
(65,564,ls),
(65,579,o),
(78,592,o),
(94,592,cs),
(99,592,l),
(99,600,l),
(25,600,l),
(25,592,l),
(58,592,l),
(58,8,l),
(25,8,l),
(25,0,l),
(99,0,l),
(99,8,l),
(94,8,ls),
(78,8,o),
(65,20,o),
(65,36,cs),
(65,297,l),
(149,397,l),
(305,8,l),
(265,8,l),
(265,0,l),
(339,0,l),
(339,8,l),
(323,8,o),
(309,17,o),
(303,32,cs),
(154,403,l),
(296,572,ls),
(306,585,o),
(322,592,o),
(339,592,c),
(339,600,l)
);
}
);
width = 364;
}
);
note = K;
unicode = 75;
},
{
glyphname = L;
kernLeft = L;
kernRight = L;
layers = (
{
hints = (
{
horizontal = 1;
place = (0, 8);
place = (0, 8);
type = Stem;
},
{
horizontal = 1;
place = (593, 7);
place = (593, 7);
type = Stem;
},
{
place = (59, 7);
place = (59, 7);
type = Stem;
}
);
layerId = m01;
shapes = (
{
closed = 1;
nodes = (
(66,564,ls),
(66,580,o),
(79,593,o),
(95,593,cs),
(99,593,l),
(99,600,l),
(25,600,l),
(25,593,l),
(59,593,l),
(59,89,ls),
(59,40,o),
(99,0,o),
(148,0,cs),
(309,0,l),
(309,8,l),
(148,8,ls),
(103,8,o),
(66,44,o),
(66,89,cs)
);
}
);
width = 334;
}
);
note = L;
unicode = 76;
},
{
glyphname = M;
layers = (
{
hints = (
{
horizontal = 1;
place = (0, 8);
place = (0, 8);
type = Stem;
},
{
horizontal = 1;
place = (293, 8);
place = (293, 8);
type = Stem;
},
{
horizontal = 1;
place = (592, 8);
place = (592, 8);
type = Stem;
},
{
place = (59, 7);
place = (59, 7);
type = Stem;
},
{
place = (432, 7);
place = (432, 7);
type = Stem;
},
{
horizontal = 1;
place = (593, 7);
place = (593, 7);
type = Stem;
}
);
layerId = m01;
shapes = (
{
closed = 1;
nodes = (
(472,8,l),
(468,8,ls),
(452,8,o),
(439,20,o),
(439,36,cs),
(439,580,ls),
(439,591,o),
(431,598,o),
(423,600,cs),
(415,602,o),
(405,599,o),
(400,589,cs),
(260,308,ls),
(257,303,o),
(253,301,o),
(248,301,cs),
(243,301,o),
(238,303,o),
(236,308,cs),
(98,589,ls),
(93,599,o),
(83,602,o),
(75,600,cs),
(67,598,o),
(59,591,o),
(59,580,cs),
(59,8,l),
(25,8,l),
(25,0,l),
(99,0,l),
(99,8,l),
(94,8,ls),
(79,8,o),
(66,20,o),
(66,36,cs),
(66,580,ls),
(66,587,o),
(72,591,o),
(76,593,c),
(81,594,o),
(88,592,o),
(91,585,cs),
(229,305,ls),
(233,298,o),
(240,293,o),
(248,293,cs),
(256,293,o),
(263,298,o),
(266,305,cs),
(407,585,ls),
(410,592,o),
(417,594,o),
(422,592,cs),
(426,591,o),
(432,587,o),
(432,580,cs),
(432,8,l),
(398,8,l),
(398,0,l),
(472,0,l)
);
}
);
width = 497;
}
);
note = M;
unicode = 77;
},
{
glyphname = N;
kernLeft = N;
layers = (
{
hints = (
{
horizontal = 1;
place = (0, 7);
place = (0, 7);
type = Stem;
},
{
horizontal = 1;
place = (592, 8);
place = (592, 8);
type = Stem;
},
{
place = (59, 7);
place = (59, 7);
type = Stem;
},
{
place = (305, 8);
place = (305, 8);
type = Stem;
},
{
horizontal = 1;
place = (0, 8);
place = (0, 8);
type = Stem;
},
{
horizontal = 1;
place = (592, 7);
place = (592, 7);
type = Stem;
}
);
layerId = m01;
shapes = (
{
closed = 1;
nodes = (
(273,600,l),
(273,592,l),
(305,592,l),
(305,21,ls),
(305,12,o),
(299,8,o),
(294,8,cs),
(289,8,o),
(283,9,o),
(280,17,cs),
(99,585,ls),
(95,597,o),
(85,601,o),
(76,599,cs),
(68,598,o),
(59,591,o),
(59,579,cs),
(59,7,l),
(25,7,l),
(25,0,l),
(100,0,l),
(100,7,l),
(95,7,ls),
(79,7,o),
(66,20,o),
(66,36,cs),
(66,579,ls),
(66,587,o),
(72,591,o),
(77,592,cs),
(83,593,o),
(90,591,o),
(92,583,cs),
(272,15,ls),
(276,4,o),
(284,0,o),
(292,0,cs),
(306,0,o),
(313,8,o),
(313,21,cs),
(313,564,ls),
(313,579,o),
(326,592,o),
(341,592,cs),
(347,592,l),
(347,600,l)
);
}
);
width = 372;
}
);
note = N;
unicode = 78;
},
{
glyphname = Ntilde;
kernLeft = N;
layers = (
{
hints = (
{
horizontal = 1;
place = (0, 7);
place = (0, 7);
type = Stem;
},
{
horizontal = 1;
place = (592, 8);
place = (592, 8);
type = Stem;
},
{
horizontal = 1;
place = (695, 21);
target = up;
type = BottomGhost;
},
{
place = (59, 7);
place = (59, 7);
type = Stem;
},
{
place = (305, 8);
place = (305, 8);
type = Stem;
},
{
horizontal = 1;
place = (0, 8);
place = (0, 8);
type = Stem;
},
{
horizontal = 1;
place = (592, 7);
place = (592, 7);
type = Stem;
}
);
layerId = m01;
shapes = (
{
closed = 1;
nodes = (
(273,600,l),
(273,592,l),
(305,592,l),
(305,21,ls),
(305,12,o),
(299,8,o),
(294,8,cs),
(289,8,o),
(283,9,o),
(280,17,cs),
(99,585,ls),
(95,597,o),
(85,601,o),
(76,599,cs),
(68,598,o),
(59,591,o),
(59,579,cs),
(59,7,l),
(25,7,l),
(25,0,l),
(100,0,l),
(100,7,l),
(95,7,ls),
(79,7,o),
(66,20,o),
(66,36,cs),
(66,579,ls),
(66,587,o),
(72,591,o),
(77,592,cs),
(83,593,o),
(90,591,o),
(92,583,cs),
(272,15,ls),
(276,4,o),
(284,0,o),
(292,0,cs),
(306,0,o),
(313,8,o),
(313,21,cs),
(313,564,ls),
(313,579,o),
(326,592,o),
(341,592,cs),
(347,592,l),
(347,600,l)
);
},
{
closed = 1;
nodes = (
(119,665,l),
(120,667,o),
(135,700,o),
(159,703,cs),
(172,704,o),
(185,697,o),
(196,682,cs),
(205,670,o),
(215,665,o),
(224,666,cs),
(242,667,o),
(256,695,o),
(256,695,c),
(263,692,l),
(262,691,o),
(247,660,o),
(224,658,cs),
(222,658,ls),
(211,658,o),
(200,664,o),
(190,677,cs),
(180,690,o),
(170,696,o),
(160,695,cs),
(140,693,o),
(126,662,o),
(126,662,c)
);
}
);
width = 372;
}
);
note = Ntilde;
unicode = 209;
},
{
glyphname = O;
kernLeft = O;
kernRight = O;
layers = (
{
hints = (
{
horizontal = 1;
place = (-8, 8);
place = (-8, 8);
type = Stem;
},
{
horizontal = 1;
place = (599, 8);
place = (599, 8);
type = Stem;
},
{
place = (25, 8);
place = (25, 8);
type = Stem;
},
{
place = (277, 7);
place = (277, 7);
type = Stem;
}
);
layerId = m01;
shapes = (
{
closed = 1;
nodes = (
(277,122,ls),
(277,54,o),
(222,0,o),
(155,0,cs),
(87,0,o),
(33,54,o),
(33,122,cs),
(33,477,ls),
(33,544,o),
(87,599,o),
(155,599,cs),
(222,599,o),
(277,544,o),
(277,477,cs)
);
},
{
closed = 1;
nodes = (
(25,122,ls),
(25,50,o),
(83,-8,o),
(155,-8,cs),
(226,-8,o),
(284,50,o),
(284,122,cs),
(284,477,ls),
(284,549,o),
(226,607,o),
(155,607,cs),
(83,607,o),
(25,549,o),
(25,477,cs)
);
}
);
width = 309;
}
);
note = O;
unicode = 79;
},
{
glyphname = Oacute;
kernLeft = O;
kernRight = O;
layers = (
{
hints = (
{
horizontal = 1;
place = (-8, 8);
place = (-8, 8);
type = Stem;
},
{
horizontal = 1;
place = (599, 8);
place = (599, 8);
type = Stem;
},
{
place = (25, 8);
place = (25, 8);
type = Stem;
},
{
place = (277, 7);
place = (277, 7);
type = Stem;
}
);
layerId = m01;
shapes = (
{
closed = 1;
nodes = (
(277,122,ls),
(277,54,o),
(222,0,o),
(155,0,cs),
(87,0,o),
(33,54,o),
(33,122,cs),
(33,477,ls),
(33,544,o),
(87,599,o),
(155,599,cs),
(222,599,o),
(277,544,o),
(277,477,cs)
);
},
{
closed = 1;
nodes = (
(25,122,ls),
(25,50,o),
(83,-8,o),
(155,-8,cs),
(226,-8,o),
(284,50,o),
(284,122,cs),
(284,477,ls),
(284,549,o),
(226,607,o),
(155,607,cs),
(83,607,o),
(25,549,o),
(25,477,cs)
);
},
{
closed = 1;
nodes = (
(146,651,l),
(154,651,l),
(190,727,l),
(182,727,l)
);
}
);
width = 309;
}
);
note = Oacute;
unicode = 211;
},
{
glyphname = Ocircumflex;
kernLeft = O;
kernRight = O;
layers = (
{
hints = (
{
horizontal = 1;
place = (-8, 8);
place = (-8, 8);
type = Stem;
},
{
horizontal = 1;
place = (599, 8);
place = (599, 8);
type = Stem;
},
{
horizontal = 1;
place = (718, 9);
place = (718, 9);
type = Stem;
},
{
place = (25, 8);
place = (25, 8);
type = Stem;
},
{
place = (277, 7);
place = (277, 7);
type = Stem;
}
);
layerId = m01;
shapes = (
{
closed = 1;
nodes = (
(277,122,ls),
(277,54,o),
(222,0,o),
(155,0,cs),
(87,0,o),
(33,54,o),
(33,122,cs),
(33,477,ls),
(33,544,o),
(87,599,o),
(155,599,cs),
(222,599,o),
(277,544,o),
(277,477,cs)
);
},
{
closed = 1;
nodes = (
(25,122,ls),
(25,50,o),
(83,-8,o),
(155,-8,cs),
(226,-8,o),
(284,50,o),
(284,122,cs),
(284,477,ls),
(284,549,o),
(226,607,o),
(155,607,cs),
(83,607,o),
(25,549,o),
(25,477,cs)
);
},
{
closed = 1;
nodes = (
(115,651,l),
(123,651,l),
(155,718,l),
(186,651,l),
(194,651,l),
(159,727,l),
(151,727,l)
);
}
);
width = 309;
}
);
note = Ocircumflex;
unicode = 212;
},
{
glyphname = Odieresis;
kernLeft = O;
kernRight = O;
layers = (
{
hints = (
{
horizontal = 1;
place = (-8, 8);
place = (-8, 8);
type = Stem;
},
{
horizontal = 1;
place = (599, 8);
place = (599, 8);
type = Stem;
},
{
horizontal = 1;
place = (660, 30);
place = (660, 30);
type = Stem;
},
{
place = (25, 8);
place = (25, 8);
type = Stem;
},
{
place = (93, 30);
place = (93, 30);
type = Stem;
},
{
place = (186, 30);
place = (186, 30);
type = Stem;
},
{
place = (277, 7);
place = (277, 7);
type = Stem;
}
);
layerId = m01;
shapes = (
{
closed = 1;
nodes = (
(277,122,ls),
(277,54,o),
(222,0,o),
(155,0,cs),
(87,0,o),
(33,54,o),
(33,122,cs),
(33,477,ls),
(33,544,o),
(87,599,o),
(155,599,cs),
(222,599,o),
(277,544,o),
(277,477,cs)
);
},
{
closed = 1;
nodes = (
(25,122,ls),
(25,50,o),
(83,-8,o),
(155,-8,cs),
(226,-8,o),
(284,50,o),
(284,122,cs),
(284,477,ls),
(284,549,o),
(226,607,o),
(155,607,cs),
(83,607,o),
(25,549,o),
(25,477,cs)
);
},
{
closed = 1;
nodes = (
(93,667,o),
(100,660,o),
(108,660,cs),
(116,660,o),
(123,667,o),
(123,675,cs),
(123,683,o),
(116,690,o),
(108,690,cs),
(100,690,o),
(93,683,o),
(93,675,cs)
);
},
{
closed = 1;
nodes = (
(186,667,o),
(193,660,o),
(201,660,cs),
(209,660,o),
(216,667,o),
(216,675,cs),
(216,683,o),
(209,690,o),
(201,690,cs),
(193,690,o),
(186,683,o),
(186,675,cs)
);
}
);
width = 309;
}
);
note = Odieresis;
unicode = 214;
},
{
glyphname = Ograve;
kernLeft = O;
kernRight = O;
layers = (
{
hints = (
{
horizontal = 1;
place = (-8, 8);
place = (-8, 8);
type = Stem;
},
{
horizontal = 1;
place = (599, 8);
place = (599, 8);
type = Stem;
},
{
place = (25, 8);
place = (25, 8);
type = Stem;
},
{
place = (277, 7);
place = (277, 7);
type = Stem;
}
);
layerId = m01;
shapes = (
{
closed = 1;
nodes = (
(277,122,ls),
(277,54,o),
(222,0,o),
(155,0,cs),
(87,0,o),
(33,54,o),
(33,122,cs),
(33,477,ls),
(33,544,o),
(87,599,o),
(155,599,cs),
(222,599,o),
(277,544,o),
(277,477,cs)
);
},
{
closed = 1;
nodes = (
(25,122,ls),
(25,50,o),
(83,-8,o),
(155,-8,cs),
(226,-8,o),
(284,50,o),
(284,122,cs),
(284,477,ls),
(284,549,o),
(226,607,o),
(155,607,cs),
(83,607,o),
(25,549,o),
(25,477,cs)
);
},
{
closed = 1;
nodes = (
(129,727,l),
(164,651,l),
(172,651,l),
(137,727,l)
);
}
);
width = 309;
}
);
note = Ograve;
unicode = 210;
},
{
glyphname = Omacron;
kernLeft = O;
kernRight = O;
layers = (
{
hints = (
{
horizontal = 1;
place = (-8, 8);
place = (-8, 8);
type = Stem;
},
{
horizontal = 1;
place = (599, 8);
place = (599, 8);
type = Stem;
},
{
horizontal = 1;
place = (674, 8);
place = (674, 8);
type = Stem;
},
{
place = (25, 8);
place = (25, 8);
type = Stem;
},
{
place = (277, 7);
place = (277, 7);
type = Stem;
}
);
layerId = m01;
shapes = (
{
closed = 1;
nodes = (
(277,122,ls),
(277,54,o),
(222,0,o),
(155,0,cs),
(87,0,o),
(33,54,o),
(33,122,cs),
(33,477,ls),
(33,544,o),
(87,599,o),
(155,599,cs),
(222,599,o),
(277,544,o),
(277,477,cs)
);
},
{
closed = 1;
nodes = (
(25,122,ls),
(25,50,o),
(83,-8,o),
(155,-8,cs),
(226,-8,o),
(284,50,o),
(284,122,cs),
(284,477,ls),
(284,549,o),
(226,607,o),
(155,607,cs),
(83,607,o),
(25,549,o),
(25,477,cs)
);
},
{
closed = 1;
nodes = (
(90,674,l),
(220,674,l),
(220,682,l),
(90,682,l)
);
}
);
width = 309;
}
);
note = Omacron;
unicode = 332;
},
{
glyphname = Oslash;
kernLeft = Oslash;
kernRight = O;
layers = (
{
hints = (
{
horizontal = 1;
place = (-8, 8);
place = (-8, 8);
type = Stem;
},
{
horizontal = 1;
place = (599, 8);
place = (599, 8);
type = Stem;
},
{
place = (77, 7);
place = (77, 7);
type = Stem;
},
{
place = (328, 8);
place = (328, 8);
type = Stem;
},
{
horizontal = 1;
place = (0, 21);
target = up;
type = BottomGhost;
},
{
horizontal = 1;
place = (600, -20);
target = down;
type = TopGhost;
}
);
layerId = m01;
shapes = (
{
closed = 1;
nodes = (
(328,122,ls),
(328,54,o),
(273,0,o),
(206,0,cs),
(164,0,o),
(128,20,o),
(106,52,c),
(311,539,l),
(322,521,o),
(328,499,o),
(328,477,cs)
);
},
{
closed = 1;
nodes = (
(76,0,l),
(84,0,l),
(103,44,l),
(126,13,o),
(164,-8,o),
(207,-8,cs),
(278,-8,o),
(336,50,o),
(336,122,cs),
(336,477,ls),
(336,503,o),
(328,528,o),
(315,548,c),
(337,600,l),
(329,600,l),
(310,555,l),
(287,587,o),
(249,607,o),
(207,607,cs),
(135,607,o),
(77,549,o),
(77,477,cs),
(77,122,ls),
(77,96,o),
(85,72,o),
(98,51,c)
);
},
{
closed = 1;
nodes = (
(84,477,ls),
(84,544,o),
(138,599,o),
(206,599,cs),
(247,599,o),
(284,578,o),
(306,546,c),
(101,59,l),
(90,78,o),
(84,99,o),
(84,122,cs)
);
}
);
width = 360;
}
);
note = Oslash;
unicode = 216;
},
{
glyphname = Otilde;
kernLeft = O;
kernRight = O;
layers = (
{
hints = (
{
horizontal = 1;
place = (-8, 8);
place = (-8, 8);
type = Stem;
},
{
horizontal = 1;
place = (599, 8);
place = (599, 8);
type = Stem;
},
{
horizontal = 1;
place = (695, 21);
target = up;
type = BottomGhost;
},
{
place = (25, 8);
place = (25, 8);
type = Stem;
},
{
place = (277, 7);
place = (277, 7);
type = Stem;
}
);
layerId = m01;
shapes = (
{
closed = 1;
nodes = (
(277,122,ls),
(277,54,o),
(222,0,o),
(155,0,cs),
(87,0,o),
(33,54,o),
(33,122,cs),
(33,477,ls),
(33,544,o),
(87,599,o),
(155,599,cs),
(222,599,o),
(277,544,o),
(277,477,cs)
);
},
{
closed = 1;
nodes = (
(25,122,ls),
(25,50,o),
(83,-8,o),
(155,-8,cs),
(226,-8,o),
(284,50,o),
(284,122,cs),
(284,477,ls),
(284,549,o),
(226,607,o),
(155,607,cs),
(83,607,o),
(25,549,o),
(25,477,cs)
);
},
{
closed = 1;
nodes = (
(82,665,l),
(83,667,o),
(98,700,o),
(122,703,cs),
(135,704,o),
(148,697,o),
(159,682,cs),
(168,670,o),
(178,665,o),
(187,666,cs),
(205,667,o),
(219,695,o),
(219,695,c),
(226,692,l),
(225,691,o),
(210,660,o),
(187,658,cs),
(185,658,ls),
(174,658,o),
(163,664,o),
(153,677,cs),
(143,690,o),
(133,696,o),
(123,695,cs),
(103,693,o),
(89,662,o),
(89,662,c)
);
}
);
width = 309;
}
);
note = Otilde;
unicode = 213;
},
{
glyphname = OE;
kernLeft = O;
kernRight = AE;
layers = (
{
hints = (
{
horizontal = 1;
place = (0, 7);
place = (0, 7);
type = Stem;
},
{
horizontal = 1;
place = (400, 8);
place = (400, 8);
type = Stem;
},
{
horizontal = 1;
place = (592, 8);
place = (592, 8);
type = Stem;
},
{
place = (35, 8);
place = (35, 8);
type = Stem;
},
{
place = (287, 7);
place = (287, 7);
type = Stem;
},
{
horizontal = 1;
place = (-8, 8);
place = (-8, 8);
type = Stem;
},
{
horizontal = 1;
place = (599, 8);
place = (599, 8);
type = Stem;
}
);
layerId = m01;
shapes = (
{
closed = 1;
nodes = (
(537,0,l),
(537,7,l),
(319,7,ls),
(305,7,o),
(294,18,o),
(294,32,cs),
(294,400,l),
(509,400,l),
(509,408,l),
(294,408,l),
(294,567,ls),
(294,581,o),
(305,592,o),
(319,592,cs),
(537,592,l),
(537,600,l),
(319,600,ls),
(301,600,o),
(287,585,o),
(287,567,cs),
(287,519,l),
(270,570,o),
(221,607,o),
(165,607,cs),
(93,607,o),
(35,549,o),
(35,477,cs),
(35,122,ls),
(35,50,o),
(93,-8,o),
(165,-8,cs),
(221,-8,o),
(270,29,o),
(287,80,c),
(287,32,ls),
(287,14,o),
(301,0,o),
(319,0,cs)
);
},
{
closed = 1;
nodes = (
(43,477,ls),
(43,544,o),
(97,599,o),
(165,599,cs),
(232,599,o),
(287,544,o),
(287,477,cs),
(287,122,ls),
(287,54,o),
(232,0,o),
(165,0,cs),
(97,0,o),
(43,54,o),
(43,122,cs)
);
}
);
width = 572;
}
);
note = OE;
unicode = 338;
},
{
glyphname = P;
kernLeft = P;
kernRight = P;
layers = (
{
hints = (
{
horizontal = 1;
place = (0, 7);
place = (0, 7);
type = Stem;
},
{
horizontal = 1;
place = (351, 8);
place = (351, 8);
type = Stem;
},
{
horizontal = 1;
place = (593, 7);
place = (593, 7);
type = Stem;
},
{
place = (59, 7);
place = (59, 7);
type = Stem;
},
{
place = (318, 8);
place = (318, 8);
type = Stem;
}
);
layerId = m01;
shapes = (
{
closed = 1;
nodes = (
(318,440,ls),
(318,395,o),
(282,359,o),
(237,359,cs),
(66,359,l),
(66,576,ls),
(66,585,o),
(73,593,o),
(82,593,cs),
(237,593,ls),
(282,593,o),
(318,556,o),
(318,511,cs)
);
},
{
closed = 1;
nodes = (
(25,0,l),
(99,0,l),
(99,7,l),
(94,7,ls),
(79,7,o),
(66,20,o),
(66,35,cs),
(66,351,l),
(237,351,ls),
(286,351,o),
(326,391,o),
(326,440,cs),
(326,511,ls),
(326,560,o),
(286,600,o),
(237,600,cs),
(82,600,ls),
(69,600,o),
(59,589,o),
(59,576,cs),
(59,7,l),
(25,7,l)
);
}
);
width = 338;
}
);
note = P;
unicode = 80;
},
{
glyphname = Thorn;
kernLeft = P;
kernRight = P;
layers = (
{
hints = (
{
horizontal = 1;
place = (0, 7);
place = (0, 7);
type = Stem;
},
{
horizontal = 1;
place = (302, 8);
place = (302, 8);
type = Stem;
},
{
horizontal = 1;
place = (495, 7);
place = (495, 7);
type = Stem;
},
{
horizontal = 1;
place = (593, 7);
place = (593, 7);
type = Stem;
},
{
place = (59, 7);
place = (59, 7);
type = Stem;
},
{
place = (318, 8);
place = (318, 8);
type = Stem;
}
);
layerId = m01;
shapes = (
{
closed = 1;
nodes = (
(66,495,l),
(237,495,ls),
(282,495,o),
(318,458,o),
(318,413,cs),
(318,391,ls),
(318,346,o),
(282,310,o),
(237,310,cs),
(66,310,l)
);
},
{
closed = 1;
nodes = (
(25,0,l),
(99,0,l),
(99,7,l),
(94,7,ls),
(79,7,o),
(66,20,o),
(66,35,cs),
(66,302,l),
(237,302,ls),
(286,302,o),
(326,342,o),
(326,391,cs),
(326,413,ls),
(326,462,o),
(286,502,o),
(237,502,cs),
(66,502,l),
(66,565,ls),
(66,580,o),
(79,593,o),
(94,593,cs),
(99,593,l),
(99,600,l),
(25,600,l),
(25,593,l),
(59,593,l),
(59,7,l),
(25,7,l)
);
}
);
width = 351;
}
);
note = Thorn;
unicode = 222;
},
{
glyphname = Q;
kernLeft = Q;
kernRight = Q;
layers = (
{
hints = (
{
horizontal = 1;
place = (-8, 8);
place = (-8, 8);
type = Stem;
},
{
horizontal = 1;
place = (599, 8);
place = (599, 8);
type = Stem;
},
{
place = (30, 7);
place = (30, 7);
type = Stem;
},
{
place = (280, 8);
place = (280, 8);
type = Stem;
}
);
layerId = m01;
shapes = (
{
closed = 1;
nodes = (
(92,0,o),
(37,54,o),
(37,122,cs),
(36,477,ls),
(36,544,o),
(91,599,o),
(158,599,cs),
(225,599,o),
(280,544,o),
(280,477,cs),
(281,122,ls),
(281,95,o),
(273,70,o),
(258,50,c),
(172,136,l),
(166,131,l),
(254,44,l),
(231,17,o),
(197,0,o),
(159,0,cs)
);
},
{
closed = 1;
nodes = (
(30,122,ls),
(30,50,o),
(88,-8,o),
(159,-8,cs),
(199,-8,o),
(235,10,o),
(259,39,c),
(306,-8,l),
(311,-2,l),
(264,45,l),
(279,66,o),
(289,93,o),
(289,122,cs),
(288,477,ls),
(288,549,o),
(230,607,o),
(158,607,cs),
(87,607,o),
(29,549,o),
(29,477,cs)
);
}
);
width = 319;
}
);
note = Q;
unicode = 81;
},
{
glyphname = R;
kernLeft = R;
kernRight = R;
layers = (
{
hints = (
{
horizontal = 1;
place = (0, 7);
place = (0, 7);
type = Stem;
},
{
horizontal = 1;
place = (401, 7);
place = (401, 7);
type = Stem;
},
{
horizontal = 1;
place = (592, 8);
place = (592, 8);
type = Stem;
},
{
place = (59, 8);
place = (59, 8);
type = Stem;
},
{
place = (313, 8);
place = (313, 8);
type = Stem;
},
{
place = (318, 7);
place = (318, 7);
type = Stem;
},
{
horizontal = 1;
place = (0, 8);
place = (0, 8);
type = Stem;
}
);
layerId = m01;
shapes = (
{
closed = 1;
nodes = (
(67,408,l),
(67,576,ls),
(67,585,o),
(74,592,o),
(83,592,cs),
(236,592,ls),
(281,592,o),
(318,556,o),
(318,511,cs),
(318,490,ls),
(318,445,o),
(281,408,o),
(236,408,cs)
);
},
{
closed = 1;
nodes = (
(27,0,l),
(101,0,l),
(101,7,l),
(95,7,ls),
(80,7,o),
(67,20,o),
(67,36,cs),
(67,401,l),
(235,401,ls),
(279,401,o),
(313,363,o),
(313,320,cs),
(313,61,ls),
(313,27,o),
(340,0,o),
(374,0,c),
(374,8,l),
(345,8,o),
(321,31,o),
(321,61,cs),
(321,320,ls),
(321,359,o),
(295,392,o),
(260,404,c),
(297,414,o),
(325,449,o),
(325,490,cs),
(325,511,ls),
(325,560,o),
(285,600,o),
(236,600,cs),
(83,600,ls),
(70,600,o),
(59,589,o),
(59,576,cs),
(59,7,l),
(27,7,l)
);
}
);
width = 388;
}
);
note = R;
unicode = 82;
},
{
glyphname = Racute;
kernLeft = R;
kernRight = R;
layers = (
{
hints = (
{
horizontal = 1;
place = (0, 7);
place = (0, 7);
type = Stem;
},
{
horizontal = 1;
place = (401, 7);
place = (401, 7);
type = Stem;
},
{
horizontal = 1;
place = (592, 8);
place = (592, 8);
type = Stem;
},
{
place = (59, 8);
place = (59, 8);
type = Stem;
},
{
place = (313, 8);
place = (313, 8);
type = Stem;
},
{
place = (318, 7);
place = (318, 7);
type = Stem;
},
{
horizontal = 1;
place = (0, 8);
place = (0, 8);
type = Stem;
}
);
layerId = m01;
shapes = (
{
closed = 1;
nodes = (
(67,408,l),
(67,576,ls),
(67,585,o),
(74,592,o),
(83,592,cs),
(236,592,ls),
(281,592,o),
(318,556,o),
(318,511,cs),
(318,490,ls),
(318,445,o),
(281,408,o),
(236,408,cs)
);
},
{
closed = 1;
nodes = (
(27,0,l),
(101,0,l),
(101,7,l),
(95,7,ls),
(80,7,o),
(67,20,o),
(67,36,cs),
(67,401,l),
(235,401,ls),
(279,401,o),
(313,363,o),
(313,320,cs),
(313,61,ls),
(313,27,o),
(340,0,o),
(374,0,c),
(374,8,l),
(345,8,o),
(321,31,o),
(321,61,cs),
(321,320,ls),
(321,359,o),
(295,392,o),
(260,404,c),
(297,414,o),
(325,449,o),
(325,490,cs),
(325,511,ls),
(325,560,o),
(285,600,o),
(236,600,cs),
(83,600,ls),
(70,600,o),
(59,589,o),
(59,576,cs),
(59,7,l),
(27,7,l)
);
},
{
closed = 1;
nodes = (
(181,651,l),
(189,651,l),
(225,727,l),
(217,727,l)
);
}
);
width = 388;
}
);
note = Racute;
unicode = 340;
},
{
glyphname = S;
kernLeft = S;
kernRight = S;
layers = (
{
hints = (
{
horizontal = 1;
place = (-8, 8);
place = (-8, 8);
type = Stem;
},
{
horizontal = 1;
place = (184, 7);
place = (184, 7);
type = Stem;
},
{
horizontal = 1;
place = (598, 8);
place = (598, 8);
type = Stem;
},
{
place = (49, 7);
place = (49, 7);
type = Stem;
},
{
place = (280, 8);
place = (280, 8);
type = Stem;
},
{
place = (50, 7);
place = (50, 7);
type = Stem;
},
{
place = (279, 8);
place = (279, 8);
type = Stem;
}
);
layerId = m01;
shapes = (
{
closed = 1;
nodes = (
(106,392,ls),
(73,406,o),
(57,428,o),
(57,457,cs),
(57,487,ls),
(57,544,o),
(100,593,o),
(157,598,cs),
(223,605,o),
(279,552,o),
(279,488,cs),
(279,446,l),
(287,446,l),
(287,487,ls),
(287,548,o),
(241,600,o),
(180,606,cs),
(109,612,o),
(50,557,o),
(50,488,cs),
(50,457,ls),
(50,425,o),
(68,401,o),
(103,385,cs),
(232,329,ls),
(262,316,o),
(281,286,o),
(281,254,cs),
(280,111,ls),
(280,49,o),
(230,0,o),
(169,0,cs),
(167,0,ls),
(106,0,o),
(56,49,o),
(56,111,cs),
(56,184,l),
(89,184,l),
(89,191,l),
(15,191,l),
(15,184,l),
(20,184,ls),
(36,184,o),
(49,171,o),
(49,155,cs),
(49,111,ls),
(49,45,o),
(102,-8,o),
(167,-8,cs),
(169,-8,ls),
(234,-8,o),
(288,45,o),
(288,111,cs),
(288,254,ls),
(288,289,o),
(268,321,o),
(235,335,cs)
);
}
);
width = 312;
}
);
note = S;
unicode = 83;
},
{
glyphname = Saltillo;
layers = (
{
hints = (
{
horizontal = 1;
place = (607, -20);
target = down;
type = TopGhost;
},
{
place = (25, 7);
place = (25, 7);
type = Stem;
}
);
layerId = m01;
shapes = (
{
closed = 1;
nodes = (
(32,607,l),
(25,607,l),
(25,308,l),
(32,308,l)
);
}
);
width = 57;
}
);
note = uniA78B;
unicode = 42891;
},
{
glyphname = Scedilla;
kernLeft = S;
kernRight = S;
layers = (
{
hints = (
{
horizontal = 1;
place = (-152, 7);
place = (-152, 7);
type = Stem;
},
{
horizontal = 1;
place = (-82, 7);
place = (-82, 7);
type = Stem;
},
{
horizontal = 1;
place = (-8, 8);
place = (-8, 8);
type = Stem;
},
{
horizontal = 1;
place = (184, 7);
place = (184, 7);
type = Stem;
},
{
horizontal = 1;
place = (598, 8);
place = (598, 8);
type = Stem;
},
{
place = (49, 7);
place = (49, 7);
type = Stem;
},
{
place = (227, 8);
place = (227, 8);
type = Stem;
},
{
place = (280, 8);
place = (280, 8);
type = Stem;
},
{
place = (50, 7);
place = (50, 7);
type = Stem;
},
{
place = (279, 8);
place = (279, 8);
type = Stem;
},
{
place = (140, 7);
place = (140, 7);
type = Stem;
}
);
layerId = m01;
shapes = (
{
closed = 1;
nodes = (
(106,392,ls),
(73,406,o),
(57,428,o),
(57,457,cs),
(57,487,ls),
(57,544,o),
(100,593,o),
(157,598,cs),
(223,605,o),
(279,552,o),
(279,488,cs),
(279,446,l),
(287,446,l),
(287,487,ls),
(287,548,o),
(241,600,o),
(180,606,cs),
(109,612,o),
(50,557,o),
(50,488,cs),
(50,457,ls),
(50,425,o),
(68,401,o),
(103,385,cs),
(232,329,ls),
(262,316,o),
(281,286,o),
(281,254,cs),
(280,111,ls),
(280,49,o),
(230,0,o),
(169,0,cs),
(167,0,ls),
(106,0,o),
(56,49,o),
(56,111,cs),
(56,184,l),
(89,184,l),
(89,191,l),
(15,191,l),
(15,184,l),
(20,184,ls),
(36,184,o),
(49,171,o),
(49,155,cs),
(49,111,ls),
(49,45,o),
(102,-8,o),
(167,-8,cs),
(169,-8,l),
(174,-8,l),
(140,-70,ls),
(137,-76,o),
(141,-82,o),
(149,-82,cs),
(196,-82,ls),
(213,-82,o),
(227,-96,o),
(227,-114,cs),
(227,-131,o),
(213,-145,o),
(196,-145,cs),
(137,-145,l),
(137,-152,l),
(196,-152,ls),
(217,-152,o),
(235,-135,o),
(235,-114,cs),
(235,-92,o),
(217,-75,o),
(196,-75,cs),
(149,-75,ls),
(147,-75,o),
(146,-74,o),
(147,-72,cs),
(182,-7,l),
(241,-1,o),
(288,49,o),
(288,111,cs),
(288,254,ls),
(288,289,o),
(268,321,o),
(235,335,cs)
);
}
);
width = 312;
}
);
note = Scedilla;
unicode = 350;
},
{
glyphname = Scircumflex;
kernLeft = S;
kernRight = S;
layers = (
{
hints = (
{
horizontal = 1;
place = (-8, 8);
place = (-8, 8);
type = Stem;
},
{
horizontal = 1;
place = (184, 7);
place = (184, 7);
type = Stem;
},
{
horizontal = 1;
place = (598, 8);
place = (598, 8);
type = Stem;
},
{
place = (49, 7);
place = (49, 7);
type = Stem;
},
{
place = (280, 8);
place = (280, 8);
type = Stem;
},
{
place = (50, 7);
place = (50, 7);
type = Stem;
},
{
place = (279, 8);
place = (279, 8);
type = Stem;
},
{
horizontal = 1;
place = (718, 9);
place = (718, 9);
type = Stem;
}
);
layerId = m01;
shapes = (
{
closed = 1;
nodes = (
(106,392,ls),
(73,406,o),
(57,428,o),
(57,457,cs),
(57,487,ls),
(57,544,o),
(100,593,o),
(157,598,cs),
(223,605,o),
(279,552,o),
(279,488,cs),
(279,446,l),
(287,446,l),
(287,487,ls),
(287,548,o),
(241,600,o),
(180,606,cs),
(109,612,o),
(50,557,o),
(50,488,cs),
(50,457,ls),
(50,425,o),
(68,401,o),
(103,385,cs),
(232,329,ls),
(262,316,o),
(281,286,o),
(281,254,cs),
(280,111,ls),
(280,49,o),
(230,0,o),
(169,0,cs),
(167,0,ls),
(106,0,o),
(56,49,o),
(56,111,cs),
(56,184,l),
(89,184,l),
(89,191,l),
(15,191,l),
(15,184,l),
(20,184,ls),
(36,184,o),
(49,171,o),
(49,155,cs),
(49,111,ls),
(49,45,o),
(102,-8,o),
(167,-8,cs),
(169,-8,ls),
(234,-8,o),
(288,45,o),
(288,111,cs),
(288,254,ls),
(288,289,o),
(268,321,o),
(235,335,cs)
);
},
{
closed = 1;
nodes = (
(132,651,l),
(140,651,l),
(172,718,l),
(203,651,l),
(211,651,l),
(176,727,l),
(168,727,l)
);
}
);
width = 312;
}
);
note = Scircumflex;
unicode = 348;
},
{
glyphname = Scommaaccent;
kernLeft = S;
kernRight = S;
layers = (
{
hints = (
{
horizontal = 1;
place = (-8, 8);
place = (-8, 8);
type = Stem;
},
{
horizontal = 1;
place = (184, 7);
place = (184, 7);
type = Stem;
},
{
horizontal = 1;
place = (598, 8);
place = (598, 8);
type = Stem;
},
{
place = (49, 7);
place = (49, 7);
type = Stem;
},
{
place = (280, 8);
place = (280, 8);
type = Stem;
},
{
place = (50, 7);
place = (50, 7);
type = Stem;
},
{
place = (279, 8);
place = (279, 8);
type = Stem;
}
);
layerId = m01;
shapes = (
{
closed = 1;
nodes = (
(106,392,ls),
(73,406,o),
(57,428,o),
(57,457,cs),
(57,487,ls),
(57,544,o),
(100,593,o),
(157,598,cs),
(223,605,o),
(279,552,o),
(279,488,cs),
(279,446,l),
(287,446,l),
(287,487,ls),
(287,548,o),
(241,600,o),
(180,606,cs),
(109,612,o),
(50,557,o),
(50,488,cs),
(50,457,ls),
(50,425,o),
(68,401,o),
(103,385,cs),
(232,329,ls),
(262,316,o),
(281,286,o),
(281,254,cs),
(280,111,ls),
(280,49,o),
(230,0,o),
(169,0,cs),
(167,0,ls),
(106,0,o),
(56,49,o),
(56,111,cs),
(56,184,l),
(89,184,l),
(89,191,l),
(15,191,l),
(15,184,l),
(20,184,ls),
(36,184,o),
(49,171,o),
(49,155,cs),
(49,111,ls),
(49,45,o),
(102,-8,o),
(167,-8,cs),
(169,-8,ls),
(234,-8,o),
(288,45,o),
(288,111,cs),
(288,254,ls),
(288,289,o),
(268,321,o),
(235,335,cs)
);
},
{
closed = 1;
nodes = (
(142,-127,l),
(150,-127,l),
(186,-51,l),
(178,-51,l)
);
}
);
width = 312;
}
);
note = uni0218;
unicode = 536;
},
{
glyphname = Germandbls;
kernLeft = B;
kernRight = A;
layers = (
{
hints = (
{
horizontal = 1;
place = (0, 8);
place = (0, 8);
type = Stem;
},
{
horizontal = 1;
place = (400, 7);
place = (400, 7);
type = Stem;
},
{
horizontal = 1;
place = (592, 8);
place = (592, 8);
type = Stem;
},
{
place = (31, 8);
place = (31, 8);
type = Stem;
},
{
place = (278, 8);
place = (278, 8);
type = Stem;
},
{
horizontal = 1;
place = (-8, 8);
place = (-8, 8);
type = Stem;
}
);
layerId = m01;
shapes = (
{
closed = 1;
nodes = (
(-1,0,l),
(73,0,l),
(73,8,l),
(68,8,ls),
(52,8,o),
(39,20,o),
(39,36,cs),
(39,579,ls),
(39,586,o),
(45,592,o),
(52,592,cs),
(197,592,ls),
(242,592,o),
(278,556,o),
(278,511,cs),
(278,489,ls),
(278,444,o),
(242,407,o),
(197,407,cs),
(190,407,l),
(190,400,l),
(197,400,ls),
(242,400,o),
(278,363,o),
(278,318,cs),
(278,81,ls),
(278,36,o),
(242,0,o),
(197,0,cs),
(190,0,l),
(190,-8,l),
(197,-8,ls),
(246,-8,o),
(286,32,o),
(286,81,cs),
(286,318,ls),
(286,359,o),
(259,393,o),
(222,404,c),
(259,414,o),
(286,448,o),
(286,489,cs),
(286,511,ls),
(286,560,o),
(246,600,o),
(197,600,cs),
(52,600,ls),
(41,600,o),
(31,590,o),
(31,579,cs),
(31,8,l),
(-1,8,l)
);
}
);
width = 315;
}
);
note = uni1E9E;
unicode = 7838;
},
{
glyphname = T;
kernLeft = T;
kernRight = T;
layers = (
{
hints = (
{
horizontal = 1;
place = (0, 8);
place = (0, 8);
type = Stem;
},
{
horizontal = 1;
place = (592, 8);
place = (592, 8);
type = Stem;
},
{
place = (145, 7);
place = (145, 7);
type = Stem;
}
);
layerId = m01;
shapes = (
{
closed = 1;
nodes = (
(25,600,l),
(25,592,l),
(145,592,l),
(145,8,l),
(112,8,l),
(112,0,l),
(186,0,l),
(186,8,l),
(181,8,ls),
(165,8,o),
(152,20,o),
(152,36,cs),
(152,592,l),
(272,592,l),
(272,600,l)
);
}
);
width = 282;
}
);
note = T;
unicode = 84;
},
{
glyphname = Tcommaaccent;
kernLeft = T;
kernRight = T;
layers = (
{
hints = (
{
horizontal = 1;
place = (0, 8);
place = (0, 8);
type = Stem;
},
{
horizontal = 1;
place = (592, 8);
place = (592, 8);
type = Stem;
},
{
place = (145, 7);
place = (145, 7);
type = Stem;
}
);
layerId = m01;
shapes = (
{
closed = 1;
nodes = (
(25,600,l),
(25,592,l),
(145,592,l),
(145,8,l),
(112,8,l),
(112,0,l),
(186,0,l),
(186,8,l),
(181,8,ls),
(165,8,o),
(152,20,o),
(152,36,cs),
(152,592,l),
(272,592,l),
(272,600,l)
);
},
{
closed = 1;
nodes = (
(122,-127,l),
(130,-127,l),
(166,-51,l),
(158,-51,l)
);
}
);
width = 297;
}
);
note = uni021A;
unicode = 538;
},
{
glyphname = U;
layers = (
{
hints = (
{
horizontal = 1;
place = (-7, 7);
place = (-7, 7);
type = Stem;
},
{
horizontal = 1;
place = (593, 7);
place = (593, 7);
type = Stem;
},
{
place = (59, 7);
place = (59, 7);
type = Stem;
},
{
place = (305, 8);
place = (305, 8);
type = Stem;
}
);
layerId = m01;
shapes = (
{
closed = 1;
nodes = (
(272,600,l),
(272,593,l),
(305,593,l),
(305,123,ls),
(305,60,o),
(259,6,o),
(197,0,cs),
(126,-7,o),
(66,49,o),
(66,119,cs),
(66,593,l),
(100,593,l),
(100,600,l),
(25,600,l),
(25,593,l),
(30,593,ls),
(46,593,o),
(59,580,o),
(59,564,cs),
(59,123,ls),
(59,57,o),
(108,-1,o),
(174,-7,cs),
(249,-15,o),
(313,45,o),
(313,119,cs),
(313,564,ls),
(313,580,o),
(326,593,o),
(341,593,cs),
(346,593,l),
(346,600,l)
);
}
);
width = 371;
}
);
note = U;
unicode = 85;
},
{
glyphname = Uacute;
layers = (
{
hints = (
{
horizontal = 1;
place = (-7, 7);
place = (-7, 7);
type = Stem;
},
{
horizontal = 1;
place = (593, 7);
place = (593, 7);
type = Stem;
},
{
place = (59, 7);
place = (59, 7);
type = Stem;
},
{
place = (305, 8);
place = (305, 8);
type = Stem;
}
);
layerId = m01;
shapes = (
{
closed = 1;
nodes = (
(272,600,l),
(272,593,l),
(305,593,l),
(305,123,ls),
(305,60,o),
(259,6,o),
(197,0,cs),
(126,-7,o),
(66,49,o),
(66,119,cs),
(66,593,l),
(100,593,l),
(100,600,l),
(25,600,l),
(25,593,l),
(30,593,ls),
(46,593,o),
(59,580,o),
(59,564,cs),
(59,123,ls),
(59,57,o),
(108,-1,o),
(174,-7,cs),
(249,-15,o),
(313,45,o),
(313,119,cs),
(313,564,ls),
(313,580,o),
(326,593,o),
(341,593,cs),
(346,593,l),
(346,600,l)
);
},
{
closed = 1;
nodes = (
(176,651,l),
(184,651,l),
(220,727,l),
(212,727,l)
);
}
);
width = 371;
}
);
note = Uacute;
unicode = 218;
},
{
glyphname = Ubreve;
layers = (
{
hints = (
{
horizontal = 1;
place = (-7, 7);
place = (-7, 7);
type = Stem;
},
{
horizontal = 1;
place = (593, 7);
place = (593, 7);
type = Stem;
},
{
horizontal = 1;
place = (699, 21);
target = up;
type = BottomGhost;
},
{
place = (59, 7);
place = (59, 7);
type = Stem;
},
{
place = (305, 8);
place = (305, 8);
type = Stem;
},
{
horizontal = 1;
place = (694, 21);
target = up;
type = BottomGhost;
}
);
layerId = m01;
shapes = (
{
closed = 1;
nodes = (
(272,600,l),
(272,593,l),
(305,593,l),
(305,123,ls),
(305,60,o),
(259,6,o),
(197,0,cs),
(126,-7,o),
(66,49,o),
(66,119,cs),
(66,593,l),
(100,593,l),
(100,600,l),
(25,600,l),
(25,593,l),
(30,593,ls),
(46,593,o),
(59,580,o),
(59,564,cs),
(59,123,ls),
(59,57,o),
(108,-1,o),
(174,-7,cs),
(249,-15,o),
(313,45,o),
(313,119,cs),
(313,564,ls),
(313,580,o),
(326,593,o),
(341,593,cs),
(346,593,l),
(346,600,l)
);
},
{
closed = 1;
nodes = (
(113,699,l),
(133,677,o),
(159,665,o),
(185,665,cs),
(211,665,o),
(236,677,o),
(256,699,c),
(262,694,l),
(240,670,o),
(213,658,o),
(185,658,cs),
(157,658,o),
(129,670,o),
(108,694,c)
);
}
);
width = 371;
}
);
note = Ubreve;
unicode = 364;
},
{
glyphname = Ucircumflex;
layers = (
{
hints = (
{
horizontal = 1;
place = (-7, 7);
place = (-7, 7);
type = Stem;
},
{
horizontal = 1;
place = (593, 7);
place = (593, 7);
type = Stem;
},
{
horizontal = 1;
place = (718, 9);
place = (718, 9);
type = Stem;
},
{
place = (59, 7);
place = (59, 7);
type = Stem;
},
{
place = (305, 8);
place = (305, 8);
type = Stem;
}
);
layerId = m01;
shapes = (
{
closed = 1;
nodes = (
(272,600,l),
(272,593,l),
(305,593,l),
(305,123,ls),
(305,60,o),
(259,6,o),
(197,0,cs),
(126,-7,o),
(66,49,o),
(66,119,cs),
(66,593,l),
(100,593,l),
(100,600,l),
(25,600,l),
(25,593,l),
(30,593,ls),
(46,593,o),
(59,580,o),
(59,564,cs),
(59,123,ls),
(59,57,o),
(108,-1,o),
(174,-7,cs),
(249,-15,o),
(313,45,o),
(313,119,cs),
(313,564,ls),
(313,580,o),
(326,593,o),
(341,593,cs),
(346,593,l),
(346,600,l)
);
},
{
closed = 1;
nodes = (
(146,651,l),
(154,651,l),
(186,718,l),
(217,651,l),
(225,651,l),
(190,727,l),
(182,727,l)
);
}
);
width = 371;
}
);
note = Ucircumflex;
unicode = 219;
},
{
glyphname = Udieresis;
layers = (
{
hints = (
{
horizontal = 1;
place = (-7, 7);
place = (-7, 7);
type = Stem;
},
{
horizontal = 1;
place = (593, 7);
place = (593, 7);
type = Stem;
},
{
horizontal = 1;
place = (660, 30);
place = (660, 30);
type = Stem;
},
{
place = (59, 7);
place = (59, 7);
type = Stem;
},
{
place = (124, 30);
place = (124, 30);
type = Stem;
},
{
place = (217, 30);
place = (217, 30);
type = Stem;
},
{
place = (305, 8);
place = (305, 8);
type = Stem;
}
);
layerId = m01;
shapes = (
{
closed = 1;
nodes = (
(272,600,l),
(272,593,l),
(305,593,l),
(305,123,ls),
(305,60,o),
(259,6,o),
(197,0,cs),
(126,-7,o),
(66,49,o),
(66,119,cs),
(66,593,l),
(100,593,l),
(100,600,l),
(25,600,l),
(25,593,l),
(30,593,ls),
(46,593,o),
(59,580,o),
(59,564,cs),
(59,123,ls),
(59,57,o),
(108,-1,o),
(174,-7,cs),
(249,-15,o),
(313,45,o),
(313,119,cs),
(313,564,ls),
(313,580,o),
(326,593,o),
(341,593,cs),
(346,593,l),
(346,600,l)
);
},
{
closed = 1;
nodes = (
(124,667,o),
(131,660,o),
(139,660,cs),
(147,660,o),
(154,667,o),
(154,675,cs),
(154,683,o),
(147,690,o),
(139,690,cs),
(131,690,o),
(124,683,o),
(124,675,cs)
);
},
{
closed = 1;
nodes = (
(217,667,o),
(224,660,o),
(232,660,cs),
(240,660,o),
(247,667,o),
(247,675,cs),
(247,683,o),
(240,690,o),
(232,690,cs),
(224,690,o),
(217,683,o),
(217,675,cs)
);
}
);
width = 371;
}
);
note = Udieresis;
unicode = 220;
},
{
glyphname = Ugrave;
layers = (
{
hints = (
{
horizontal = 1;
place = (-7, 7);
place = (-7, 7);
type = Stem;
},
{
horizontal = 1;
place = (593, 7);
place = (593, 7);
type = Stem;
},
{
place = (59, 7);
place = (59, 7);
type = Stem;
},
{
place = (305, 8);
place = (305, 8);
type = Stem;
}
);
layerId = m01;
shapes = (
{
closed = 1;
nodes = (
(272,600,l),
(272,593,l),
(305,593,l),
(305,123,ls),
(305,60,o),
(259,6,o),
(197,0,cs),
(126,-7,o),
(66,49,o),
(66,119,cs),
(66,593,l),
(100,593,l),
(100,600,l),
(25,600,l),
(25,593,l),
(30,593,ls),
(46,593,o),
(59,580,o),
(59,564,cs),
(59,123,ls),
(59,57,o),
(108,-1,o),
(174,-7,cs),
(249,-15,o),
(313,45,o),
(313,119,cs),
(313,564,ls),
(313,580,o),
(326,593,o),
(341,593,cs),
(346,593,l),
(346,600,l)
);
},
{
closed = 1;
nodes = (
(156,727,l),
(191,651,l),
(199,651,l),
(164,727,l)
);
}
);
width = 371;
}
);
note = Ugrave;
unicode = 217;
},
{
glyphname = Umacron;
layers = (
{
hints = (
{
horizontal = 1;
place = (-7, 7);
place = (-7, 7);
type = Stem;
},
{
horizontal = 1;
place = (593, 7);
place = (593, 7);
type = Stem;
},
{
horizontal = 1;
place = (674, 8);
place = (674, 8);
type = Stem;
},
{
place = (59, 7);
place = (59, 7);
type = Stem;
},
{
place = (305, 8);
place = (305, 8);
type = Stem;
}
);
layerId = m01;
shapes = (
{
closed = 1;
nodes = (
(272,600,l),
(272,593,l),
(305,593,l),
(305,123,ls),
(305,60,o),
(259,6,o),
(197,0,cs),
(126,-7,o),
(66,49,o),
(66,119,cs),
(66,593,l),
(100,593,l),
(100,600,l),
(25,600,l),
(25,593,l),
(30,593,ls),
(46,593,o),
(59,580,o),
(59,564,cs),
(59,123,ls),
(59,57,o),
(108,-1,o),
(174,-7,cs),
(249,-15,o),
(313,45,o),
(313,119,cs),
(313,564,ls),
(313,580,o),
(326,593,o),
(341,593,cs),
(346,593,l),
(346,600,l)
);
},
{
closed = 1;
nodes = (
(120,674,l),
(250,674,l),
(250,682,l),
(120,682,l)
);
}
);
width = 371;
}
);
note = Umacron;
unicode = 362;
},
{
glyphname = Utilde;
layers = (
{
hints = (
{
horizontal = 1;
place = (-7, 7);
place = (-7, 7);
type = Stem;
},
{
horizontal = 1;
place = (593, 7);
place = (593, 7);
type = Stem;
},
{
horizontal = 1;
place = (695, 21);
target = up;
type = BottomGhost;
},
{
place = (59, 7);
place = (59, 7);
type = Stem;
},
{
place = (305, 8);
place = (305, 8);
type = Stem;
}
);
layerId = m01;
shapes = (
{
closed = 1;
nodes = (
(272,600,l),
(272,593,l),
(305,593,l),
(305,123,ls),
(305,60,o),
(259,6,o),
(197,0,cs),
(126,-7,o),
(66,49,o),
(66,119,cs),
(66,593,l),
(100,593,l),
(100,600,l),
(25,600,l),
(25,593,l),
(30,593,ls),
(46,593,o),
(59,580,o),
(59,564,cs),
(59,123,ls),
(59,57,o),
(108,-1,o),
(174,-7,cs),
(249,-15,o),
(313,45,o),
(313,119,cs),
(313,564,ls),
(313,580,o),
(326,593,o),
(341,593,cs),
(346,593,l),
(346,600,l)
);
},
{
closed = 1;
nodes = (
(114,665,l),
(115,667,o),
(130,700,o),
(154,703,cs),
(167,704,o),
(180,697,o),
(191,682,cs),
(200,670,o),
(210,665,o),
(219,666,cs),
(237,667,o),
(251,695,o),
(251,695,c),
(258,692,l),
(257,691,o),
(242,660,o),
(219,658,cs),
(217,658,ls),
(206,658,o),
(195,664,o),
(185,677,cs),
(175,690,o),
(165,696,o),
(155,695,cs),
(135,693,o),
(121,662,o),
(121,662,c)
);
}
);
width = 371;
}
);
note = Utilde;
unicode = 360;
},
{
glyphname = V;
kernLeft = V;
kernRight = V;
layers = (
{
hints = (
{
horizontal = 1;
place = (0, 8);
place = (0, 8);
type = Stem;
},
{
horizontal = 1;
place = (593, 7);
place = (593, 7);
type = Stem;
},
{
place = (25, 74);
place = (25, 74);
type = Stem;
},
{
place = (267, 74);
place = (267, 74);
type = Stem;
}
);
layerId = m01;
shapes = (
{
closed = 1;
nodes = (
(267,600,l),
(267,593,l),
(300,593,l),
(197,18,ls),
(195,10,o),
(189,8,o),
(183,8,cs),
(178,8,o),
(172,10,o),
(170,18,cs),
(66,593,l),
(99,593,l),
(99,600,l),
(25,600,l),
(25,593,l),
(35,593,ls),
(48,593,o),
(60,583,o),
(63,569,cs),
(163,17,ls),
(165,5,o),
(175,0,o),
(183,0,cs),
(192,0,o),
(202,5,o),
(204,17,cs),
(304,569,ls),
(306,583,o),
(318,593,o),
(331,593,cs),
(341,593,l),
(341,600,l)
);
}
);
width = 342;
}
);
note = V;
unicode = 86;
},
{
glyphname = W;
layers = (
{
hints = (
{
horizontal = 1;
place = (1, 7);
place = (1, 7);
type = Stem;
},
{
horizontal = 1;
place = (306, 7);
place = (306, 7);
type = Stem;
},
{
horizontal = 1;
place = (592, 8);
place = (592, 8);
type = Stem;
},
{
place = (58, 8);
place = (58, 8);
type = Stem;
},
{
place = (432, 7);
place = (432, 7);
type = Stem;
},
{
horizontal = 1;
place = (0, 8);
place = (0, 8);
type = Stem;
}
);
layerId = m01;
shapes = (
{
closed = 1;
nodes = (
(472,592,l),
(472,600,l),
(398,600,l),
(398,592,l),
(432,592,l),
(432,21,ls),
(432,13,o),
(426,9,o),
(421,8,cs),
(417,7,o),
(410,8,o),
(407,15,cs),
(269,302,ls),
(265,309,o),
(258,313,o),
(250,313,cs),
(242,313,o),
(235,309,o),
(231,302,cs),
(91,15,ls),
(88,8,o),
(81,7,o),
(76,8,cs),
(71,9,o),
(66,13,o),
(66,21,cs),
(66,564,ls),
(66,580,o),
(79,592,o),
(94,592,cs),
(99,592,l),
(99,600,l),
(25,600,l),
(25,592,l),
(58,592,l),
(58,21,ls),
(58,10,o),
(66,3,o),
(74,1,cs),
(82,-1,o),
(93,2,o),
(98,12,cs),
(238,299,ls),
(240,303,o),
(245,306,o),
(250,306,cs),
(255,306,o),
(260,303,o),
(262,299,cs),
(400,12,ls),
(404,3,o),
(411,0,o),
(418,0,cs),
(427,0,o),
(439,7,o),
(439,21,cs),
(439,564,ls),
(439,580,o),
(452,592,o),
(468,592,cs)
);
}
);
width = 497;
}
);
note = W;
unicode = 87;
},
{
glyphname = Wacute;
layers = (
{
hints = (
{
horizontal = 1;
place = (1, 7);
place = (1, 7);
type = Stem;
},
{
horizontal = 1;
place = (306, 7);
place = (306, 7);
type = Stem;
},
{
horizontal = 1;
place = (592, 8);
place = (592, 8);
type = Stem;
},
{
place = (58, 8);
place = (58, 8);
type = Stem;
},
{
place = (432, 7);
place = (432, 7);
type = Stem;
},
{
horizontal = 1;
place = (0, 8);
place = (0, 8);
type = Stem;
}
);
layerId = m01;
shapes = (
{
closed = 1;
nodes = (
(472,592,l),
(472,600,l),
(398,600,l),
(398,592,l),
(432,592,l),
(432,21,ls),
(432,13,o),
(426,9,o),
(421,8,cs),
(417,7,o),
(410,8,o),
(407,15,cs),
(269,302,ls),
(265,309,o),
(258,313,o),
(250,313,cs),
(242,313,o),
(235,309,o),
(231,302,cs),
(91,15,ls),
(88,8,o),
(81,7,o),
(76,8,cs),
(71,9,o),
(66,13,o),
(66,21,cs),
(66,564,ls),
(66,580,o),
(79,592,o),
(94,592,cs),
(99,592,l),
(99,600,l),
(25,600,l),
(25,592,l),
(58,592,l),
(58,21,ls),
(58,10,o),
(66,3,o),
(74,1,cs),
(82,-1,o),
(93,2,o),
(98,12,cs),
(238,299,ls),
(240,303,o),
(245,306,o),
(250,306,cs),
(255,306,o),
(260,303,o),
(262,299,cs),
(400,12,ls),
(404,3,o),
(411,0,o),
(418,0,cs),
(427,0,o),
(439,7,o),
(439,21,cs),
(439,564,ls),
(439,580,o),
(452,592,o),
(468,592,cs)
);
},
{
closed = 1;
nodes = (
(227,651,l),
(235,651,l),
(271,727,l),
(263,727,l)
);
}
);
width = 497;
}
);
note = Wacute;
unicode = 7810;
},
{
glyphname = Wcircumflex;
layers = (
{
hints = (
{
horizontal = 1;
place = (1, 7);
place = (1, 7);
type = Stem;
},
{
horizontal = 1;
place = (306, 7);
place = (306, 7);
type = Stem;
},
{
horizontal = 1;
place = (592, 8);
place = (592, 8);
type = Stem;
},
{
horizontal = 1;
place = (718, 9);
place = (718, 9);
type = Stem;
},
{
place = (58, 8);
place = (58, 8);
type = Stem;
},
{
place = (432, 7);
place = (432, 7);
type = Stem;
},
{
horizontal = 1;
place = (0, 8);
place = (0, 8);
type = Stem;
}
);
layerId = m01;
shapes = (
{
closed = 1;
nodes = (
(472,592,l),
(472,600,l),
(398,600,l),
(398,592,l),
(432,592,l),
(432,21,ls),
(432,13,o),
(426,9,o),
(421,8,cs),
(417,7,o),
(410,8,o),
(407,15,cs),
(269,302,ls),
(265,309,o),
(258,313,o),
(250,313,cs),
(242,313,o),
(235,309,o),
(231,302,cs),
(91,15,ls),
(88,8,o),
(81,7,o),
(76,8,cs),
(71,9,o),
(66,13,o),
(66,21,cs),
(66,564,ls),
(66,580,o),
(79,592,o),
(94,592,cs),
(99,592,l),
(99,600,l),
(25,600,l),
(25,592,l),
(58,592,l),
(58,21,ls),
(58,10,o),
(66,3,o),
(74,1,cs),
(82,-1,o),
(93,2,o),
(98,12,cs),
(238,299,ls),
(240,303,o),
(245,306,o),
(250,306,cs),
(255,306,o),
(260,303,o),
(262,299,cs),
(400,12,ls),
(404,3,o),
(411,0,o),
(418,0,cs),
(427,0,o),
(439,7,o),
(439,21,cs),
(439,564,ls),
(439,580,o),
(452,592,o),
(468,592,cs)
);
},
{
closed = 1;
nodes = (
(209,651,l),
(217,651,l),
(249,718,l),
(280,651,l),
(288,651,l),
(253,727,l),
(245,727,l)
);
}
);
width = 497;
}
);
note = Wcircumflex;
unicode = 372;
},
{
glyphname = Wdieresis;
layers = (
{
hints = (
{
horizontal = 1;
place = (1, 7);
place = (1, 7);
type = Stem;
},
{
horizontal = 1;
place = (306, 7);
place = (306, 7);
type = Stem;
},
{
horizontal = 1;
place = (592, 8);
place = (592, 8);
type = Stem;
},
{
horizontal = 1;
place = (660, 30);
place = (660, 30);
type = Stem;
},
{
place = (58, 8);
place = (58, 8);
type = Stem;
},
{
place = (432, 7);
place = (432, 7);
type = Stem;
},
{
horizontal = 1;
place = (0, 8);
place = (0, 8);
type = Stem;
},
{
place = (189, 30);
place = (189, 30);
type = Stem;
},
{
place = (282, 30);
place = (282, 30);
type = Stem;
}
);
layerId = m01;
shapes = (
{
closed = 1;
nodes = (
(472,592,l),
(472,600,l),
(398,600,l),
(398,592,l),
(432,592,l),
(432,21,ls),
(432,13,o),
(426,9,o),
(421,8,cs),
(417,7,o),
(410,8,o),
(407,15,cs),
(269,302,ls),
(265,309,o),
(258,313,o),
(250,313,cs),
(242,313,o),
(235,309,o),
(231,302,cs),
(91,15,ls),
(88,8,o),
(81,7,o),
(76,8,cs),
(71,9,o),
(66,13,o),
(66,21,cs),
(66,564,ls),
(66,580,o),
(79,592,o),
(94,592,cs),
(99,592,l),
(99,600,l),
(25,600,l),
(25,592,l),
(58,592,l),
(58,21,ls),
(58,10,o),
(66,3,o),
(74,1,cs),
(82,-1,o),
(93,2,o),
(98,12,cs),
(238,299,ls),
(240,303,o),
(245,306,o),
(250,306,cs),
(255,306,o),
(260,303,o),
(262,299,cs),
(400,12,ls),
(404,3,o),
(411,0,o),
(418,0,cs),
(427,0,o),
(439,7,o),
(439,21,cs),
(439,564,ls),
(439,580,o),
(452,592,o),
(468,592,cs)
);
},
{
closed = 1;
nodes = (
(189,667,o),
(196,660,o),
(204,660,cs),
(212,660,o),
(219,667,o),
(219,675,cs),
(219,683,o),
(212,690,o),
(204,690,cs),
(196,690,o),
(189,683,o),
(189,675,cs)
);
},
{
closed = 1;
nodes = (
(282,667,o),
(289,660,o),
(297,660,cs),
(305,660,o),
(312,667,o),
(312,675,cs),
(312,683,o),
(305,690,o),
(297,690,cs),
(289,690,o),
(282,683,o),
(282,675,cs)
);
}
);
width = 497;
}
);
note = Wdieresis;
unicode = 7812;
},
{
glyphname = Wgrave;
layers = (
{
hints = (
{
horizontal = 1;
place = (1, 7);
place = (1, 7);
type = Stem;
},
{
horizontal = 1;
place = (306, 7);
place = (306, 7);
type = Stem;
},
{
horizontal = 1;
place = (592, 8);
place = (592, 8);
type = Stem;
},
{
place = (58, 8);
place = (58, 8);
type = Stem;
},
{
place = (432, 7);
place = (432, 7);
type = Stem;
},
{
horizontal = 1;
place = (0, 8);
place = (0, 8);
type = Stem;
}
);
layerId = m01;
shapes = (
{
closed = 1;
nodes = (
(472,592,l),
(472,600,l),
(398,600,l),
(398,592,l),
(432,592,l),
(432,21,ls),
(432,13,o),
(426,9,o),
(421,8,cs),
(417,7,o),
(410,8,o),
(407,15,cs),
(269,302,ls),
(265,309,o),
(258,313,o),
(250,313,cs),
(242,313,o),
(235,309,o),
(231,302,cs),
(91,15,ls),
(88,8,o),
(81,7,o),
(76,8,cs),
(71,9,o),
(66,13,o),
(66,21,cs),
(66,564,ls),
(66,580,o),
(79,592,o),
(94,592,cs),
(99,592,l),
(99,600,l),
(25,600,l),
(25,592,l),
(58,592,l),
(58,21,ls),
(58,10,o),
(66,3,o),
(74,1,cs),
(82,-1,o),
(93,2,o),
(98,12,cs),
(238,299,ls),
(240,303,o),
(245,306,o),
(250,306,cs),
(255,306,o),
(260,303,o),
(262,299,cs),
(400,12,ls),
(404,3,o),
(411,0,o),
(418,0,cs),
(427,0,o),
(439,7,o),
(439,21,cs),
(439,564,ls),
(439,580,o),
(452,592,o),
(468,592,cs)
);
},
{
closed = 1;
nodes = (
(227,727,l),
(262,651,l),
(270,651,l),
(235,727,l)
);
}
);
width = 497;
}
);
note = Wgrave;
unicode = 7808;
},
{
glyphname = X;
kernLeft = X;
layers = (
{
hints = (
{
horizontal = 1;
place = (0, 8);
place = (0, 8);
type = Stem;
},
{
horizontal = 1;
place = (592, 8);
place = (592, 8);
type = Stem;
},
{
place = (25, 74);
place = (25, 74);
type = Stem;
},
{
place = (266, 74);
place = (266, 74);
type = Stem;
}
);
layerId = m01;
shapes = (
{
closed = 1;
nodes = (
(266,600,l),
(266,592,l),
(301,592,l),
(183,310,l),
(64,592,l),
(99,592,l),
(99,600,l),
(25,600,l),
(25,592,l),
(37,592,ls),
(49,592,o),
(59,585,o),
(63,575,cs),
(179,300,l),
(63,25,ls),
(59,14,o),
(49,8,o),
(37,8,cs),
(25,8,l),
(25,0,l),
(99,0,l),
(99,8,l),
(64,8,l),
(183,291,l),
(301,8,l),
(266,8,l),
(266,0,l),
(340,0,l),
(340,8,l),
(321,8,o),
(305,19,o),
(297,36,cs),
(187,300,l),
(297,564,ls),
(304,581,o),
(321,592,o),
(340,592,c),
(340,600,l)
);
}
);
width = 365;
}
);
note = X;
unicode = 88;
},
{
glyphname = Y;
kernLeft = Y;
kernRight = Y;
layers = (
{
hints = (
{
horizontal = 1;
place = (0, 8);
place = (0, 8);
type = Stem;
},
{
horizontal = 1;
place = (593, 7);
place = (593, 7);
type = Stem;
},
{
place = (21, 74);
place = (21, 74);
type = Stem;
},
{
place = (173.5, 7.5);
place = (173.5, 7.5);
type = Stem;
},
{
place = (260, 74);
place = (260, 74);
type = Stem;
}
);
layerId = m01;
shapes = (
{
closed = 1;
nodes = (
(260,600,l),
(260,593,l),
(293,593,l),
(179,403,l),
(62,593,l),
(95,593,l),
(95,600,l),
(21,600,l),
(21,593,l),
(38,593,ls),
(48,593,o),
(57,588,o),
(62,579,cs),
(174,395,l),
(173,8,l),
(141,8,l),
(141,0,l),
(215,0,l),
(215,8,l),
(199,8,ls),
(189,8,o),
(181,16,o),
(181,26,cs),
(182,394,l),
(293,579,ls),
(299,588,o),
(308,593,o),
(318,593,cs),
(334,593,l),
(334,600,l)
);
}
);
width = 329;
}
);
note = Y;
unicode = 89;
},
{
glyphname = Yacute;
kernLeft = Y;
kernRight = Y;
layers = (
{
hints = (
{
horizontal = 1;
place = (0, 8);
place = (0, 8);
type = Stem;
},
{
horizontal = 1;
place = (593, 7);
place = (593, 7);
type = Stem;
},
{
place = (21, 74);
place = (21, 74);
type = Stem;
},
{
place = (173.5, 7.5);
place = (173.5, 7.5);
type = Stem;
},
{
place = (260, 74);
place = (260, 74);
type = Stem;
}
);
layerId = m01;
shapes = (
{
closed = 1;
nodes = (
(260,600,l),
(260,593,l),
(293,593,l),
(179,403,l),
(62,593,l),
(95,593,l),
(95,600,l),
(21,600,l),
(21,593,l),
(38,593,ls),
(48,593,o),
(57,588,o),
(62,579,cs),
(174,395,l),
(173,8,l),
(141,8,l),
(141,0,l),
(215,0,l),
(215,8,l),
(199,8,ls),
(189,8,o),
(181,16,o),
(181,26,cs),
(182,394,l),
(293,579,ls),
(299,588,o),
(308,593,o),
(318,593,cs),
(334,593,l),
(334,600,l)
);
},
{
closed = 1;
nodes = (
(176,651,l),
(184,651,l),
(220,727,l),
(212,727,l)
);
}
);
width = 329;
}
);
note = Yacute;
unicode = 221;
},
{
glyphname = Ycircumflex;
kernLeft = Y;
kernRight = Y;
layers = (
{
hints = (
{
horizontal = 1;
place = (0, 8);
place = (0, 8);
type = Stem;
},
{
horizontal = 1;
place = (593, 7);
place = (593, 7);
type = Stem;
},
{
horizontal = 1;
place = (718, 9);
place = (718, 9);
type = Stem;
},
{
place = (21, 74);
place = (21, 74);
type = Stem;
},
{
place = (173.5, 7.5);
place = (173.5, 7.5);
type = Stem;
},
{
place = (260, 74);
place = (260, 74);
type = Stem;
}
);
layerId = m01;
shapes = (
{
closed = 1;
nodes = (
(260,600,l),
(260,593,l),
(293,593,l),
(179,403,l),
(62,593,l),
(95,593,l),
(95,600,l),
(21,600,l),
(21,593,l),
(38,593,ls),
(48,593,o),
(57,588,o),
(62,579,cs),
(174,395,l),
(173,8,l),
(141,8,l),
(141,0,l),
(215,0,l),
(215,8,l),
(199,8,ls),
(189,8,o),
(181,16,o),
(181,26,cs),
(182,394,l),
(293,579,ls),
(299,588,o),
(308,593,o),
(318,593,cs),
(334,593,l),
(334,600,l)
);
},
{
closed = 1;
nodes = (
(142,651,l),
(150,651,l),
(182,718,l),
(213,651,l),
(221,651,l),
(186,727,l),
(178,727,l)
);
}
);
width = 329;
}
);
note = Ycircumflex;
unicode = 374;
},
{
glyphname = Ydieresis;
kernLeft = Y;
kernRight = Y;
layers = (
{
hints = (
{
horizontal = 1;
place = (0, 8);
place = (0, 8);
type = Stem;
},
{
horizontal = 1;
place = (593, 7);
place = (593, 7);
type = Stem;
},
{
place = (21, 74);
place = (21, 74);
type = Stem;
},
{
place = (173.5, 7.5);
place = (173.5, 7.5);
type = Stem;
},
{
place = (260, 74);
place = (260, 74);
type = Stem;
},
{
horizontal = 1;
place = (660, 30);
place = (660, 30);
type = Stem;
},
{
place = (120, 30);
place = (120, 30);
type = Stem;
},
{
place = (213, 30);
place = (213, 30);
type = Stem;
}
);
layerId = m01;
shapes = (
{
closed = 1;
nodes = (
(260,600,l),
(260,593,l),
(293,593,l),
(179,403,l),
(62,593,l),
(95,593,l),
(95,600,l),
(21,600,l),
(21,593,l),
(38,593,ls),
(48,593,o),
(57,588,o),
(62,579,cs),
(174,395,l),
(173,8,l),
(141,8,l),
(141,0,l),
(215,0,l),
(215,8,l),
(199,8,ls),
(189,8,o),
(181,16,o),
(181,26,cs),
(182,394,l),
(293,579,ls),
(299,588,o),
(308,593,o),
(318,593,cs),
(334,593,l),
(334,600,l)
);
},
{
closed = 1;
nodes = (
(120,667,o),
(127,660,o),
(135,660,cs),
(143,660,o),
(150,667,o),
(150,675,cs),
(150,683,o),
(143,690,o),
(135,690,cs),
(127,690,o),
(120,683,o),
(120,675,cs)
);
},
{
closed = 1;
nodes = (
(213,667,o),
(220,660,o),
(228,660,cs),
(236,660,o),
(243,667,o),
(243,675,cs),
(243,683,o),
(236,690,o),
(228,690,cs),
(220,690,o),
(213,683,o),
(213,675,cs)
);
}
);
width = 329;
}
);
note = Ydieresis;
unicode = 376;
},
{
glyphname = Ygrave;
kernLeft = Y;
kernRight = Y;
layers = (
{
hints = (
{
horizontal = 1;
place = (0, 8);
place = (0, 8);
type = Stem;
},
{
horizontal = 1;
place = (593, 7);
place = (593, 7);
type = Stem;
},
{
place = (21, 74);
place = (21, 74);
type = Stem;
},
{
place = (173.5, 7.5);
place = (173.5, 7.5);
type = Stem;
},
{
place = (260, 74);
place = (260, 74);
type = Stem;
}
);
layerId = m01;
shapes = (
{
closed = 1;
nodes = (
(260,600,l),
(260,593,l),
(293,593,l),
(179,403,l),
(62,593,l),
(95,593,l),
(95,600,l),
(21,600,l),
(21,593,l),
(38,593,ls),
(48,593,o),
(57,588,o),
(62,579,cs),
(174,395,l),
(173,8,l),
(141,8,l),
(141,0,l),
(215,0,l),
(215,8,l),
(199,8,ls),
(189,8,o),
(181,16,o),
(181,26,cs),
(182,394,l),
(293,579,ls),
(299,588,o),
(308,593,o),
(318,593,cs),
(334,593,l),
(334,600,l)
);
},
{
closed = 1;
nodes = (
(156,727,l),
(191,651,l),
(199,651,l),
(164,727,l)
);
}
);
width = 329;
}
);
note = Ygrave;
unicode = 7922;
},
{
glyphname = Ytilde;
kernLeft = Y;
kernRight = Y;
layers = (
{
hints = (
{
horizontal = 1;
place = (0, 8);
place = (0, 8);
type = Stem;
},
{
horizontal = 1;
place = (593, 7);
place = (593, 7);
type = Stem;
},
{
horizontal = 1;
place = (695, 21);
target = up;
type = BottomGhost;
},
{
place = (21, 74);
place = (21, 74);
type = Stem;
},
{
place = (173.5, 7.5);
place = (173.5, 7.5);
type = Stem;
},
{
place = (260, 74);
place = (260, 74);
type = Stem;
}
);
layerId = m01;
shapes = (
{
closed = 1;
nodes = (
(260,600,l),
(260,593,l),
(293,593,l),
(179,403,l),
(62,593,l),
(95,593,l),
(95,600,l),
(21,600,l),
(21,593,l),
(38,593,ls),
(48,593,o),
(57,588,o),
(62,579,cs),
(174,395,l),
(173,8,l),
(141,8,l),
(141,0,l),
(215,0,l),
(215,8,l),
(199,8,ls),
(189,8,o),
(181,16,o),
(181,26,cs),
(182,394,l),
(293,579,ls),
(299,588,o),
(308,593,o),
(318,593,cs),
(334,593,l),
(334,600,l)
);
},
{
closed = 1;
nodes = (
(110,665,l),
(111,667,o),
(126,700,o),
(150,703,cs),
(163,704,o),
(176,697,o),
(187,682,cs),
(196,670,o),
(206,665,o),
(215,666,cs),
(233,667,o),
(247,695,o),
(247,695,c),
(254,692,l),
(253,691,o),
(238,660,o),
(215,658,cs),
(213,658,ls),
(202,658,o),
(191,664,o),
(181,677,cs),
(171,690,o),
(161,696,o),
(151,695,cs),
(131,693,o),
(117,662,o),
(117,662,c)
);
}
);
width = 329;
}
);
note = uni1EF8;
unicode = 7928;
},
{
glyphname = Z;
layers = (
{
hints = (
{
horizontal = 1;
place = (0, 8);
place = (0, 8);
type = Stem;
},
{
horizontal = 1;
place = (594, 8);
place = (594, 8);
type = Stem;
},
{
place = (27, 7.5);
place = (27, 7.5);
type = Stem;
},
{
place = (46, 7);
place = (46, 7);
type = Stem;
},
{
place = (234, 8);
place = (234, 8);
type = Stem;
},
{
place = (253.5, 7.5);
place = (253.5, 7.5);
type = Stem;
}
);
layerId = m01;
shapes = (
{
closed = 1;
nodes = (
(261,573,ls),
(263,579,o),
(263,587,o),
(259,592,cs),
(255,598,o),
(249,602,o),
(242,602,cs),
(46,602,l),
(46,527,l),
(53,527,l),
(53,566,ls),
(53,581,o),
(66,594,o),
(82,594,cs),
(242,594,ls),
(246,594,o),
(250,592,o),
(253,588,cs),
(255,584,o),
(256,580,o),
(254,576,cs),
(27,29,ls),
(24,22,o),
(25,15,o),
(29,9,cs),
(32,3,o),
(39,0,o),
(46,0,cs),
(242,0,l),
(242,74,l),
(234,74,l),
(234,36,ls),
(234,20,o),
(222,8,o),
(206,8,cs),
(46,8,ls),
(41,8,o),
(37,10,o),
(35,13,cs),
(32,17,o),
(32,22,o),
(34,26,cs)
);
}
);
width = 287;
}
);
note = Z;
unicode = 90;
},
{
glyphname = Zdotaccent;
layers = (
{
hints = (
{
horizontal = 1;
place = (0, 8);
place = (0, 8);
type = Stem;
},
{
horizontal = 1;
place = (594, 8);
place = (594, 8);
type = Stem;
},
{
place = (27, 7.5);
place = (27, 7.5);
type = Stem;
},
{
place = (46, 7);
place = (46, 7);
type = Stem;
},
{
place = (234, 8);
place = (234, 8);
type = Stem;
},
{
place = (253.5, 7.5);
place = (253.5, 7.5);
type = Stem;
},
{
horizontal = 1;
place = (660, 30);
place = (660, 30);
type = Stem;
},
{
place = (136, 30);
place = (136, 30);
type = Stem;
}
);
layerId = m01;
shapes = (
{
closed = 1;
nodes = (
(261,573,ls),
(263,579,o),
(263,587,o),
(259,592,cs),
(255,598,o),
(249,602,o),
(242,602,cs),
(46,602,l),
(46,527,l),
(53,527,l),
(53,566,ls),
(53,581,o),
(66,594,o),
(82,594,cs),
(242,594,ls),
(246,594,o),
(250,592,o),
(253,588,cs),
(255,584,o),
(256,580,o),
(254,576,cs),
(27,29,ls),
(24,22,o),
(25,15,o),
(29,9,cs),
(32,3,o),
(39,0,o),
(46,0,cs),
(242,0,l),
(242,74,l),
(234,74,l),
(234,36,ls),
(234,20,o),
(222,8,o),
(206,8,cs),
(46,8,ls),
(41,8,o),
(37,10,o),
(35,13,cs),
(32,17,o),
(32,22,o),
(34,26,cs)
);
},
{
closed = 1;
nodes = (
(136,667,o),
(143,660,o),
(151,660,cs),
(159,660,o),
(166,667,o),
(166,675,cs),
(166,683,o),
(159,690,o),
(151,690,cs),
(143,690,o),
(136,683,o),
(136,675,cs)
);
}
);
width = 287;
}
);
note = Zdotaccent;
unicode = 379;
},
{
glyphname = Lcommaaccent.loclMAH;
kernLeft = L;
kernRight = L;
layers = (
{
hints = (
{
horizontal = 1;
place = (0, 8);
place = (0, 8);
type = Stem;
},
{
horizontal = 1;
place = (593, 7);
place = (593, 7);
type = Stem;
},
{
place = (59, 7);
place = (59, 7);
type = Stem;
}
);
layerId = m01;
shapes = (
{
closed = 1;
nodes = (
(66,564,ls),
(66,580,o),
(79,593,o),
(95,593,cs),
(99,593,l),
(99,600,l),
(25,600,l),
(25,593,l),
(59,593,l),
(59,89,ls),
(59,40,o),
(99,0,o),
(148,0,cs),
(309,0,l),
(309,8,l),
(148,8,ls),
(103,8,o),
(66,44,o),
(66,89,cs)
);
},
{
closed = 1;
nodes = (
(148,-127,l),
(156,-127,l),
(192,-51,l),
(184,-51,l)
);
}
);
width = 334;
}
);
note = uni013B.loclMAH;
},
{
glyphname = Ncommaaccent.loclMAH;
kernLeft = N;
layers = (
{
hints = (
{
horizontal = 1;
place = (0, 7);
place = (0, 7);
type = Stem;
},
{
horizontal = 1;
place = (592, 8);
place = (592, 8);
type = Stem;
},
{
place = (59, 7);
place = (59, 7);
type = Stem;
},
{
place = (305, 8);
place = (305, 8);
type = Stem;
},
{
horizontal = 1;
place = (0, 8);
place = (0, 8);
type = Stem;
},
{
horizontal = 1;
place = (592, 7);
place = (592, 7);
type = Stem;
}
);
layerId = m01;
shapes = (
{
closed = 1;
nodes = (
(273,600,l),
(273,592,l),
(305,592,l),
(305,21,ls),
(305,12,o),
(299,8,o),
(294,8,cs),
(289,8,o),
(283,9,o),
(280,17,cs),
(99,585,ls),
(95,597,o),
(85,601,o),
(76,599,cs),
(68,598,o),
(59,591,o),
(59,579,cs),
(59,7,l),
(25,7,l),
(25,0,l),
(100,0,l),
(100,7,l),
(95,7,ls),
(79,7,o),
(66,20,o),
(66,36,cs),
(66,579,ls),
(66,587,o),
(72,591,o),
(77,592,cs),
(83,593,o),
(90,591,o),
(92,583,cs),
(272,15,ls),
(276,4,o),
(284,0,o),
(292,0,cs),
(306,0,o),
(313,8,o),
(313,21,cs),
(313,564,ls),
(313,579,o),
(326,592,o),
(341,592,cs),
(347,592,l),
(347,600,l)
);
},
{
closed = 1;
nodes = (
(168,-127,l),
(176,-127,l),
(212,-51,l),
(204,-51,l)
);
}
);
width = 372;
}
);
note = uni0145.loclMAH;
},
{
glyphname = a;
kernLeft = a;
layers = (
{
hints = (
{
horizontal = 1;
place = (-8, 8);
place = (-8, 8);
type = Stem;
},
{
horizontal = 1;
place = (257, 7);
place = (257, 7);
type = Stem;
},
{
horizontal = 1;
place = (399, 7);
place = (399, 7);
type = Stem;
},
{
place = (25, 8);
place = (25, 8);
type = Stem;
},
{
place = (150, 8);
place = (150, 8);
type = Stem;
},
{
horizontal = 1;
place = (0, 8);
place = (0, 8);
type = Stem;
}
);
layerId = m01;
shapes = (
{
closed = 1;
nodes = (
(150,58,ls),
(150,26,o),
(124,0,o),
(91,0,cs),
(76,0,o),
(61,6,o),
(50,17,cs),
(39,28,o),
(33,42,o),
(33,58,cs),
(33,198,ls),
(33,230,o),
(59,257,o),
(91,257,cs),
(150,257,l)
);
},
{
closed = 1;
nodes = (
(25,61,ls),
(25,44,o),
(30,28,o),
(41,16,cs),
(53,1,o),
(72,-8,o),
(91,-8,cs),
(117,-8,o),
(139,7,o),
(150,28,c),
(150,0,l),
(175,0,l),
(175,8,l),
(165,8,o),
(158,15,o),
(158,25,cs),
(158,338,ls),
(158,372,o),
(133,402,o),
(100,406,cs),
(60,412,o),
(25,380,o),
(25,341,c),
(33,341,l),
(33,376,o),
(63,403,o),
(99,399,cs),
(129,395,o),
(150,368,o),
(150,339,cs),
(150,264,l),
(91,264,ls),
(55,264,o),
(25,235,o),
(25,198,cs)
);
}
);
width = 200;
}
);
note = a;
unicode = 97;
},
{
glyphname = aacute;
kernLeft = a;
layers = (
{
hints = (
{
horizontal = 1;
place = (-8, 8);
place = (-8, 8);
type = Stem;
},
{
horizontal = 1;
place = (257, 7);
place = (257, 7);
type = Stem;
},
{
horizontal = 1;
place = (399, 7);
place = (399, 7);
type = Stem;
},
{
place = (25, 8);
place = (25, 8);
type = Stem;
},
{
place = (150, 8);
place = (150, 8);
type = Stem;
},
{
horizontal = 1;
place = (0, 8);
place = (0, 8);
type = Stem;
}
);
layerId = m01;
shapes = (
{
closed = 1;
nodes = (
(150,58,ls),
(150,26,o),
(124,0,o),
(91,0,cs),
(76,0,o),
(61,6,o),
(50,17,cs),
(39,28,o),
(33,42,o),
(33,58,cs),
(33,198,ls),
(33,230,o),
(59,257,o),
(91,257,cs),
(150,257,l)
);
},
{
closed = 1;
nodes = (
(25,61,ls),
(25,44,o),
(30,28,o),
(41,16,cs),
(53,1,o),
(72,-8,o),
(91,-8,cs),
(117,-8,o),
(139,7,o),
(150,28,c),
(150,0,l),
(175,0,l),
(175,8,l),
(165,8,o),
(158,15,o),
(158,25,cs),
(158,338,ls),
(158,372,o),
(133,402,o),
(100,406,cs),
(60,412,o),
(25,380,o),
(25,341,c),
(33,341,l),
(33,376,o),
(63,403,o),
(99,399,cs),
(129,395,o),
(150,368,o),
(150,339,cs),
(150,264,l),
(91,264,ls),
(55,264,o),
(25,235,o),
(25,198,cs)
);
},
{
closed = 1;
nodes = (
(78,448,l),
(86,448,l),
(122,524,l),
(114,524,l)
);
}
);
width = 200;
}
);
note = aacute;
unicode = 225;
},
{
glyphname = abreve;
kernLeft = a;
layers = (
{
hints = (
{
horizontal = 1;
place = (-8, 8);
place = (-8, 8);
type = Stem;
},
{
horizontal = 1;
place = (257, 7);
place = (257, 7);
type = Stem;
},
{
horizontal = 1;
place = (399, 7);
place = (399, 7);
type = Stem;
},
{
place = (25, 8);
place = (25, 8);
type = Stem;
},
{
place = (150, 8);
place = (150, 8);
type = Stem;
},
{
horizontal = 1;
place = (399, 47);
place = (399, 47);
type = Stem;
},
{
horizontal = 1;
place = (0, 8);
place = (0, 8);
type = Stem;
}
);
layerId = m01;
shapes = (
{
closed = 1;
nodes = (
(150,58,ls),
(150,26,o),
(124,0,o),
(91,0,cs),
(76,0,o),
(61,6,o),
(50,17,cs),
(39,28,o),
(33,42,o),
(33,58,cs),
(33,198,ls),
(33,230,o),
(59,257,o),
(91,257,cs),
(150,257,l)
);
},
{
closed = 1;
nodes = (
(18,487,l),
(38,465,o),
(64,453,o),
(90,453,cs),
(116,453,o),
(141,465,o),
(161,487,c),
(167,482,l),
(145,458,o),
(118,446,o),
(90,446,cs),
(62,446,o),
(34,458,o),
(13,482,c)
);
},
{
closed = 1;
nodes = (
(25,61,ls),
(25,44,o),
(30,28,o),
(41,16,cs),
(53,1,o),
(72,-8,o),
(91,-8,cs),
(117,-8,o),
(139,7,o),
(150,28,c),
(150,0,l),
(175,0,l),
(175,8,l),
(165,8,o),
(158,15,o),
(158,25,cs),
(158,338,ls),
(158,372,o),
(133,402,o),
(100,406,cs),
(60,412,o),
(25,380,o),
(25,341,c),
(33,341,l),
(33,376,o),
(63,403,o),
(99,399,cs),
(129,395,o),
(150,368,o),
(150,339,cs),
(150,264,l),
(91,264,ls),
(55,264,o),
(25,235,o),
(25,198,cs)
);
}
);
width = 200;
}
);
note = abreve;
unicode = 259;
},
{
glyphname = acircumflex;
kernLeft = a;
layers = (
{
hints = (
{
horizontal = 1;
place = (-8, 8);
place = (-8, 8);
type = Stem;
},
{
horizontal = 1;
place = (257, 7);
place = (257, 7);
type = Stem;
},
{
horizontal = 1;
place = (399, 7);
place = (399, 7);
type = Stem;
},
{
horizontal = 1;
place = (515, 9);
place = (515, 9);
type = Stem;
},
{
place = (25, 8);
place = (25, 8);
type = Stem;
},
{
place = (150, 8);
place = (150, 8);
type = Stem;
},
{
horizontal = 1;
place = (0, 8);
place = (0, 8);
type = Stem;
}
);
layerId = m01;
shapes = (
{
closed = 1;
nodes = (
(150,58,ls),
(150,26,o),
(124,0,o),
(91,0,cs),
(76,0,o),
(61,6,o),
(50,17,cs),
(39,28,o),
(33,42,o),
(33,58,cs),
(33,198,ls),
(33,230,o),
(59,257,o),
(91,257,cs),
(150,257,l)
);
},
{
closed = 1;
nodes = (
(25,61,ls),
(25,44,o),
(30,28,o),
(41,16,cs),
(53,1,o),
(72,-8,o),
(91,-8,cs),
(117,-8,o),
(139,7,o),
(150,28,c),
(150,0,l),
(175,0,l),
(175,8,l),
(165,8,o),
(158,15,o),
(158,25,cs),
(158,338,ls),
(158,372,o),
(133,402,o),
(100,406,cs),
(60,412,o),
(25,380,o),
(25,341,c),
(33,341,l),
(33,376,o),
(63,403,o),
(99,399,cs),
(129,395,o),
(150,368,o),
(150,339,cs),
(150,264,l),
(91,264,ls),
(55,264,o),
(25,235,o),
(25,198,cs)
);
},
{
closed = 1;
nodes = (
(52,448,l),
(60,448,l),
(92,515,l),
(123,448,l),
(131,448,l),
(96,524,l),
(88,524,l)
);
}
);
width = 200;
}
);
note = acircumflex;
unicode = 226;
},
{
glyphname = adieresis;
kernLeft = a;
layers = (
{
hints = (
{
horizontal = 1;
place = (-8, 8);
place = (-8, 8);
type = Stem;
},
{
horizontal = 1;
place = (257, 7);
place = (257, 7);
type = Stem;
},
{
horizontal = 1;
place = (399, 7);
place = (399, 7);
type = Stem;
},
{
horizontal = 1;
place = (468, 30);
place = (468, 30);
type = Stem;
},
{
place = (25, 8);
place = (25, 8);
type = Stem;
},
{
place = (150, 8);
place = (150, 8);
type = Stem;
},
{
horizontal = 1;
place = (0, 8);
place = (0, 8);
type = Stem;
},
{
place = (34, 30);
place = (34, 30);
type = Stem;
},
{
place = (127, 30);
place = (127, 30);
type = Stem;
}
);
layerId = m01;
shapes = (
{
closed = 1;
nodes = (
(150,58,ls),
(150,26,o),
(124,0,o),
(91,0,cs),
(76,0,o),
(61,6,o),
(50,17,cs),
(39,28,o),
(33,42,o),
(33,58,cs),
(33,198,ls),
(33,230,o),
(59,257,o),
(91,257,cs),
(150,257,l)
);
},
{
closed = 1;
nodes = (
(25,61,ls),
(25,44,o),
(30,28,o),
(41,16,cs),
(53,1,o),
(72,-8,o),
(91,-8,cs),
(117,-8,o),
(139,7,o),
(150,28,c),
(150,0,l),
(175,0,l),
(175,8,l),
(165,8,o),
(158,15,o),
(158,25,cs),
(158,338,ls),
(158,372,o),
(133,402,o),
(100,406,cs),
(60,412,o),
(25,380,o),
(25,341,c),
(33,341,l),
(33,376,o),
(63,403,o),
(99,399,cs),
(129,395,o),
(150,368,o),
(150,339,cs),
(150,264,l),
(91,264,ls),
(55,264,o),
(25,235,o),
(25,198,cs)
);
},
{
closed = 1;
nodes = (
(34,475,o),
(41,468,o),
(49,468,cs),
(57,468,o),
(64,475,o),
(64,483,cs),
(64,491,o),
(57,498,o),
(49,498,cs),
(41,498,o),
(34,491,o),
(34,483,cs)
);
},
{
closed = 1;
nodes = (
(127,475,o),
(134,468,o),
(142,468,cs),
(150,468,o),
(157,475,o),
(157,483,cs),
(157,491,o),
(150,498,o),
(142,498,cs),
(134,498,o),
(127,491,o),
(127,483,cs)
);
}
);
width = 200;
}
);
note = adieresis;
unicode = 228;
},
{
glyphname = agrave;
kernLeft = a;
layers = (
{
hints = (
{
horizontal = 1;
place = (-8, 8);
place = (-8, 8);
type = Stem;
},
{
horizontal = 1;
place = (257, 7);
place = (257, 7);
type = Stem;
},
{
horizontal = 1;
place = (399, 7);
place = (399, 7);
type = Stem;
},
{
place = (25, 8);
place = (25, 8);
type = Stem;
},
{
place = (150, 8);
place = (150, 8);
type = Stem;
},
{
horizontal = 1;
place = (0, 8);
place = (0, 8);
type = Stem;
}
);
layerId = m01;
shapes = (
{
closed = 1;
nodes = (
(150,58,ls),
(150,26,o),
(124,0,o),
(91,0,cs),
(76,0,o),
(61,6,o),
(50,17,cs),
(39,28,o),
(33,42,o),
(33,58,cs),
(33,198,ls),
(33,230,o),
(59,257,o),
(91,257,cs),
(150,257,l)
);
},
{
closed = 1;
nodes = (
(25,61,ls),
(25,44,o),
(30,28,o),
(41,16,cs),
(53,1,o),
(72,-8,o),
(91,-8,cs),
(117,-8,o),
(139,7,o),
(150,28,c),
(150,0,l),
(175,0,l),
(175,8,l),
(165,8,o),
(158,15,o),
(158,25,cs),
(158,338,ls),
(158,372,o),
(133,402,o),
(100,406,cs),
(60,412,o),
(25,380,o),
(25,341,c),
(33,341,l),
(33,376,o),
(63,403,o),
(99,399,cs),
(129,395,o),
(150,368,o),
(150,339,cs),
(150,264,l),
(91,264,ls),
(55,264,o),
(25,235,o),
(25,198,cs)
);
},
{
closed = 1;
nodes = (
(60,524,l),
(95,448,l),
(103,448,l),
(68,524,l)
);
}
);
width = 200;
}
);
note = agrave;
unicode = 224;
},
{
glyphname = amacron;
kernLeft = a;
layers = (
{
hints = (
{
horizontal = 1;
place = (-8, 8);
place = (-8, 8);
type = Stem;
},
{
horizontal = 1;
place = (257, 7);
place = (257, 7);
type = Stem;
},
{
horizontal = 1;
place = (399, 7);
place = (399, 7);
type = Stem;
},
{
horizontal = 1;
place = (478, 8);
place = (478, 8);
type = Stem;
},
{
place = (25, 8);
place = (25, 8);
type = Stem;
},
{
place = (150, 8);
place = (150, 8);
type = Stem;
},
{
horizontal = 1;
place = (0, 8);
place = (0, 8);
type = Stem;
}
);
layerId = m01;
shapes = (
{
closed = 1;
nodes = (
(150,58,ls),
(150,26,o),
(124,0,o),
(91,0,cs),
(76,0,o),
(61,6,o),
(50,17,cs),
(39,28,o),
(33,42,o),
(33,58,cs),
(33,198,ls),
(33,230,o),
(59,257,o),
(91,257,cs),
(150,257,l)
);
},
{
closed = 1;
nodes = (
(25,61,ls),
(25,44,o),
(30,28,o),
(41,16,cs),
(53,1,o),
(72,-8,o),
(91,-8,cs),
(117,-8,o),
(139,7,o),
(150,28,c),
(150,0,l),
(175,0,l),
(175,8,l),
(165,8,o),
(158,15,o),
(158,25,cs),
(158,338,ls),
(158,372,o),
(133,402,o),
(100,406,cs),
(60,412,o),
(25,380,o),
(25,341,c),
(33,341,l),
(33,376,o),
(63,403,o),
(99,399,cs),
(129,395,o),
(150,368,o),
(150,339,cs),
(150,264,l),
(91,264,ls),
(55,264,o),
(25,235,o),
(25,198,cs)
);
},
{
closed = 1;
nodes = (
(30,478,l),
(160,478,l),
(160,486,l),
(30,486,l)
);
}
);
width = 200;
}
);
note = amacron;
unicode = 257;
},
{
glyphname = aring;
kernLeft = a;
layers = (
{
hints = (
{
horizontal = 1;
place = (-8, 8);
place = (-8, 8);
type = Stem;
},
{
horizontal = 1;
place = (257, 7);
place = (257, 7);
type = Stem;
},
{
horizontal = 1;
place = (399, 7);
place = (399, 7);
type = Stem;
},
{
horizontal = 1;
place = (494, 8);
place = (494, 8);
type = Stem;
},
{
place = (25, 8);
place = (25, 8);
type = Stem;
},
{
place = (67, 8);
place = (67, 8);
type = Stem;
},
{
place = (150, 8);
place = (150, 8);
type = Stem;
},
{
horizontal = 1;
place = (0, 8);
place = (0, 8);
type = Stem;
},
{
horizontal = 1;
place = (456, 8);
place = (456, 8);
type = Stem;
},
{
place = (105, 8);
place = (105, 8);
type = Stem;
}
);
layerId = m01;
shapes = (
{
closed = 1;
nodes = (
(150,58,ls),
(150,26,o),
(124,0,o),
(91,0,cs),
(76,0,o),
(61,6,o),
(50,17,cs),
(39,28,o),
(33,42,o),
(33,58,cs),
(33,198,ls),
(33,230,o),
(59,257,o),
(91,257,cs),
(150,257,l)
);
},
{
closed = 1;
nodes = (
(25,61,ls),
(25,44,o),
(30,28,o),
(41,16,cs),
(53,1,o),
(72,-8,o),
(91,-8,cs),
(117,-8,o),
(139,7,o),
(150,28,c),
(150,0,l),
(175,0,l),
(175,8,l),
(165,8,o),
(158,15,o),
(158,25,cs),
(158,338,ls),
(158,372,o),
(133,402,o),
(100,406,cs),
(60,412,o),
(25,380,o),
(25,341,c),
(33,341,l),
(33,376,o),
(63,403,o),
(99,399,cs),
(129,395,o),
(150,368,o),
(150,339,cs),
(150,264,l),
(91,264,ls),
(55,264,o),
(25,235,o),
(25,198,cs)
);
},
{
closed = 1;
nodes = (
(67,467,o),
(78,456,o),
(90,456,cs),
(102,456,o),
(113,467,o),
(113,479,cs),
(113,491,o),
(102,502,o),
(90,502,cs),
(78,502,o),
(67,491,o),
(67,479,cs)
);
},
{
closed = 1;
nodes = (
(75,487,o),
(82,494,o),
(90,494,cs),
(98,494,o),
(105,487,o),
(105,479,cs),
(105,471,o),
(98,464,o),
(90,464,cs),
(82,464,o),
(75,471,o),
(75,479,cs)
);
}
);
width = 200;
}
);
note = aring;
unicode = 229;
},
{
glyphname = atilde;
kernLeft = a;
layers = (
{
hints = (
{
horizontal = 1;
place = (-8, 8);
place = (-8, 8);
type = Stem;
},
{
horizontal = 1;
place = (257, 7);
place = (257, 7);
type = Stem;
},
{
horizontal = 1;
place = (399, 7);
place = (399, 7);
type = Stem;
},
{
place = (25, 8);
place = (25, 8);
type = Stem;
},
{
place = (150, 8);
place = (150, 8);
type = Stem;
},
{
horizontal = 1;
place = (0, 8);
place = (0, 8);
type = Stem;
}
);
layerId = m01;
shapes = (
{
closed = 1;
nodes = (
(150,58,ls),
(150,26,o),
(124,0,o),
(91,0,cs),
(76,0,o),
(61,6,o),
(50,17,cs),
(39,28,o),
(33,42,o),
(33,58,cs),
(33,198,ls),
(33,230,o),
(59,257,o),
(91,257,cs),
(150,257,l)
);
},
{
closed = 1;
nodes = (
(21,455,l),
(22,457,o),
(37,490,o),
(61,493,cs),
(74,494,o),
(87,487,o),
(98,472,cs),
(107,460,o),
(117,455,o),
(126,456,cs),
(144,457,o),
(158,485,o),
(158,485,c),
(165,482,l),
(164,481,o),
(149,450,o),
(126,448,cs),
(124,448,ls),
(113,448,o),
(102,454,o),
(92,467,cs),
(82,480,o),
(72,486,o),
(62,485,cs),
(42,483,o),
(28,452,o),
(28,452,c)
);
},
{
closed = 1;
nodes = (
(25,61,ls),
(25,44,o),
(30,28,o),
(41,16,cs),
(53,1,o),
(72,-8,o),
(91,-8,cs),
(117,-8,o),
(139,7,o),
(150,28,c),
(150,0,l),
(175,0,l),
(175,8,l),
(165,8,o),
(158,15,o),
(158,25,cs),
(158,338,ls),
(158,372,o),
(133,402,o),
(100,406,cs),
(60,412,o),
(25,380,o),
(25,341,c),
(33,341,l),
(33,376,o),
(63,403,o),
(99,399,cs),
(129,395,o),
(150,368,o),
(150,339,cs),
(150,264,l),
(91,264,ls),
(55,264,o),
(25,235,o),
(25,198,cs)
);
}
);
width = 200;
}
);
note = atilde;
unicode = 227;
},
{
glyphname = ae;
kernLeft = a;
kernRight = ae;
layers = (
{
hints = (
{
horizontal = 1;
place = (-5, 8);
place = (-5, 8);
type = Stem;
},
{
horizontal = 1;
place = (257, 7);
place = (257, 7);
type = Stem;
},
{
horizontal = 1;
place = (398, 8);
place = (398, 8);
type = Stem;
},
{
place = (25, 8);
place = (25, 8);
type = Stem;
},
{
place = (150, 8);
place = (150, 8);
type = Stem;
},
{
place = (276, 7);
place = (276, 7);
type = Stem;
},
{
horizontal = 1;
place = (396, 7);
place = (396, 7);
type = Stem;
}
);
layerId = m01;
shapes = (
{
closed = 1;
nodes = (
(150,61,ls),
(150,29,o),
(124,3,o),
(91,3,cs),
(76,3,o),
(61,9,o),
(50,20,cs),
(39,31,o),
(33,45,o),
(33,61,cs),
(33,198,ls),
(33,230,o),
(59,257,o),
(91,257,cs),
(150,257,l)
);
},
{
closed = 1;
nodes = (
(25,64,ls),
(25,47,o),
(30,31,o),
(41,19,cs),
(53,4,o),
(72,-5,o),
(91,-5,cs),
(117,-5,o),
(144,10,o),
(155,39,c),
(164,13,o),
(188,-5,o),
(217,-5,cs),
(235,-5,o),
(251,2,o),
(264,14,cs),
(276,27,o),
(283,43,o),
(283,61,c),
(276,61,l),
(276,45,o),
(269,31,o),
(258,20,cs),
(247,9,o),
(233,3,o),
(217,3,cs),
(185,3,o),
(158,29,o),
(158,61,cs),
(158,339,ls),
(158,372,o),
(185,398,o),
(217,398,cs),
(249,398,o),
(276,372,o),
(276,339,cs),
(276,278,ls),
(276,270,o),
(270,264,o),
(262,264,cs),
(194,264,l),
(194,257,l),
(262,257,ls),
(274,257,o),
(283,266,o),
(283,278,cs),
(283,339,ls),
(283,376,o),
(254,406,o),
(217,406,cs),
(187,406,o),
(162,386,o),
(154,359,c),
(145,382,o),
(125,400,o),
(100,403,cs),
(60,409,o),
(25,377,o),
(25,338,c),
(33,338,l),
(33,373,o),
(63,400,o),
(99,396,cs),
(129,392,o),
(150,365,o),
(150,336,cs),
(150,264,l),
(91,264,ls),
(55,264,o),
(25,235,o),
(25,198,cs)
);
}
);
width = 308;
}
);
note = ae;
unicode = 230;
},
{
glyphname = b;
kernLeft = b;
kernRight = b;
layers = (
{
hints = (
{
horizontal = 1;
place = (-8, 8);
place = (-8, 8);
type = Stem;
},
{
horizontal = 1;
place = (399, 7);
place = (399, 7);
type = Stem;
},
{
horizontal = 1;
place = (593, 7);
place = (593, 7);
type = Stem;
},
{
place = (42, 8);
place = (42, 8);
type = Stem;
},
{
place = (167, 8);
place = (167, 8);
type = Stem;
},
{
horizontal = 1;
place = (0, 21);
target = up;
type = BottomGhost;
}
);
layerId = m01;
shapes = (
{
closed = 1;
nodes = (
(167,58,ls),
(167,26,o),
(141,0,o),
(109,0,cs),
(93,0,o),
(78,6,o),
(67,17,cs),
(56,28,o),
(50,42,o),
(50,58,cs),
(50,340,ls),
(50,373,o),
(76,399,o),
(109,399,cs),
(141,399,o),
(167,373,o),
(167,340,cs)
);
},
{
closed = 1;
nodes = (
(25,593,l),
(35,593,o),
(42,585,o),
(42,576,cs),
(42,0,l),
(50,0,l),
(50,28,l),
(57,14,o),
(70,2,o),
(87,-5,cs),
(94,-7,o),
(101,-8,o),
(109,-8,cs),
(145,-8,o),
(175,22,o),
(175,58,cs),
(175,338,ls),
(175,373,o),
(149,404,o),
(114,406,cs),
(86,409,o),
(62,394,o),
(50,371,c),
(50,600,l),
(25,600,l)
);
}
);
width = 200;
}
);
note = b;
unicode = 98;
},
{
glyphname = c;
kernLeft = c;
kernRight = c;
layers = (
{
hints = (
{
horizontal = 1;
place = (-8, 8);
place = (-8, 8);
type = Stem;
},
{
horizontal = 1;
place = (399, 8);
place = (399, 8);
type = Stem;
},
{
place = (25, 8);
place = (25, 8);
type = Stem;
},
{
place = (150, 8);
place = (150, 8);
type = Stem;
}
);
layerId = m01;
shapes = (
{
closed = 1;
nodes = (
(124,399,o),
(150,373,o),
(150,340,c),
(158,340,l),
(158,377,o),
(128,407,o),
(91,407,cs),
(55,407,o),
(25,377,o),
(25,340,cs),
(25,58,ls),
(25,40,o),
(32,24,o),
(45,11,cs),
(57,-1,o),
(74,-8,o),
(91,-8,cs),
(128,-8,o),
(158,22,o),
(158,58,c),
(150,58,l),
(150,26,o),
(124,0,o),
(91,0,cs),
(76,0,o),
(61,6,o),
(50,17,cs),
(39,28,o),
(33,42,o),
(33,58,cs),
(33,340,ls),
(33,373,o),
(59,399,o),
(91,399,cs)
);
}
);
width = 183;
}
);
note = c;
unicode = 99;
},
{
glyphname = ccedilla;
kernLeft = c;
kernRight = c;
layers = (
{
hints = (
{
horizontal = 1;
place = (-149, 7);
place = (-149, 7);
type = Stem;
},
{
horizontal = 1;
place = (-79, 7);
place = (-79, 7);
type = Stem;
},
{
horizontal = 1;
place = (-8, 8);
place = (-8, 8);
type = Stem;
},
{
horizontal = 1;
place = (399, 8);
place = (399, 8);
type = Stem;
},
{
place = (25, 8);
place = (25, 8);
type = Stem;
},
{
place = (150, 8);
place = (150, 8);
type = Stem;
},
{
horizontal = 1;
place = (-7, 7);
place = (-7, 7);
type = Stem;
},
{
place = (50, 7);
place = (50, 7);
type = Stem;
},
{
place = (137, 8);
place = (137, 8);
type = Stem;
}
);
layerId = m01;
shapes = (
{
closed = 1;
nodes = (
(124,399,o),
(150,373,o),
(150,340,c),
(158,340,l),
(158,377,o),
(128,407,o),
(91,407,cs),
(55,407,o),
(25,377,o),
(25,340,cs),
(25,58,ls),
(25,40,o),
(32,24,o),
(45,11,cs),
(55,1,o),
(68,-5,o),
(82,-7,c),
(50,-67,ls),
(47,-73,o),
(51,-79,o),
(59,-79,cs),
(106,-79,ls),
(123,-79,o),
(137,-93,o),
(137,-111,cs),
(137,-128,o),
(123,-142,o),
(106,-142,cs),
(47,-142,l),
(47,-149,l),
(106,-149,ls),
(127,-149,o),
(145,-132,o),
(145,-111,cs),
(145,-89,o),
(127,-72,o),
(106,-72,cs),
(59,-72,ls),
(57,-72,o),
(56,-71,o),
(57,-69,cs),
(90,-8,l),
(91,-8,ls),
(128,-8,o),
(158,22,o),
(158,58,c),
(150,58,l),
(150,26,o),
(124,0,o),
(91,0,cs),
(76,0,o),
(61,6,o),
(50,17,cs),
(39,28,o),
(33,42,o),
(33,58,cs),
(33,340,ls),
(33,373,o),
(59,399,o),
(91,399,cs)
);
}
);
width = 183;
}
);
note = ccedilla;
unicode = 231;
},
{
glyphname = ccircumflex;
kernLeft = c;
kernRight = c;
layers = (
{
hints = (
{
horizontal = 1;
place = (-8, 8);
place = (-8, 8);
type = Stem;
},
{
horizontal = 1;
place = (399, 8);
place = (399, 8);
type = Stem;
},
{
horizontal = 1;
place = (515, 9);
place = (515, 9);
type = Stem;
},
{
place = (25, 8);
place = (25, 8);
type = Stem;
},
{
place = (150, 8);
place = (150, 8);
type = Stem;
}
);
layerId = m01;
shapes = (
{
closed = 1;
nodes = (
(124,399,o),
(150,373,o),
(150,340,c),
(158,340,l),
(158,377,o),
(128,407,o),
(91,407,cs),
(55,407,o),
(25,377,o),
(25,340,cs),
(25,58,ls),
(25,40,o),
(32,24,o),
(45,11,cs),
(57,-1,o),
(74,-8,o),
(91,-8,cs),
(128,-8,o),
(158,22,o),
(158,58,c),
(150,58,l),
(150,26,o),
(124,0,o),
(91,0,cs),
(76,0,o),
(61,6,o),
(50,17,cs),
(39,28,o),
(33,42,o),
(33,58,cs),
(33,340,ls),
(33,373,o),
(59,399,o),
(91,399,cs)
);
},
{
closed = 1;
nodes = (
(52,448,l),
(60,448,l),
(92,515,l),
(123,448,l),
(131,448,l),
(96,524,l),
(88,524,l)
);
}
);
width = 183;
}
);
note = ccircumflex;
unicode = 265;
},
{
glyphname = cdotaccent;
kernLeft = c;
kernRight = c;
layers = (
{
hints = (
{
horizontal = 1;
place = (-8, 8);
place = (-8, 8);
type = Stem;
},
{
horizontal = 1;
place = (399, 8);
place = (399, 8);
type = Stem;
},
{
horizontal = 1;
place = (468, 30);
place = (468, 30);
type = Stem;
},
{
place = (25, 8);
place = (25, 8);
type = Stem;
},
{
place = (76, 30);
place = (76, 30);
type = Stem;
},
{
place = (150, 8);
place = (150, 8);
type = Stem;
}
);
layerId = m01;
shapes = (
{
closed = 1;
nodes = (
(124,399,o),
(150,373,o),
(150,340,c),
(158,340,l),
(158,377,o),
(128,407,o),
(91,407,cs),
(55,407,o),
(25,377,o),
(25,340,cs),
(25,58,ls),
(25,40,o),
(32,24,o),
(45,11,cs),
(57,-1,o),
(74,-8,o),
(91,-8,cs),
(128,-8,o),
(158,22,o),
(158,58,c),
(150,58,l),
(150,26,o),
(124,0,o),
(91,0,cs),
(76,0,o),
(61,6,o),
(50,17,cs),
(39,28,o),
(33,42,o),
(33,58,cs),
(33,340,ls),
(33,373,o),
(59,399,o),
(91,399,cs)
);
},
{
closed = 1;
nodes = (
(76,475,o),
(83,468,o),
(91,468,cs),
(99,468,o),
(106,475,o),
(106,483,cs),
(106,491,o),
(99,498,o),
(91,498,cs),
(83,498,o),
(76,491,o),
(76,483,cs)
);
}
);
width = 183;
}
);
note = cdotaccent;
unicode = 267;
},
{
glyphname = d;
kernLeft = d;
kernRight = d;
layers = (
{
hints = (
{
horizontal = 1;
place = (-8, 8);
place = (-8, 8);
type = Stem;
},
{
horizontal = 1;
place = (400, 7);
place = (400, 7);
type = Stem;
},
{
horizontal = 1;
place = (593, 7);
place = (593, 7);
type = Stem;
},
{
place = (25, 8);
place = (25, 8);
type = Stem;
},
{
place = (150, 8);
place = (150, 8);
type = Stem;
},
{
horizontal = 1;
place = (0, 21);
target = up;
type = BottomGhost;
}
);
layerId = m01;
shapes = (
{
closed = 1;
nodes = (
(150,58,ls),
(150,42,o),
(144,28,o),
(133,17,cs),
(122,6,o),
(107,0,o),
(91,0,cs),
(59,0,o),
(33,26,o),
(33,58,cs),
(33,341,ls),
(33,374,o),
(59,400,o),
(91,400,cs),
(124,400,o),
(150,374,o),
(150,341,cs)
);
},
{
closed = 1;
nodes = (
(25,57,ls),
(25,21,o),
(55,-8,o),
(90,-8,cs),
(98,-8,o),
(107,-7,o),
(114,-4,cs),
(131,2,o),
(143,14,o),
(150,28,c),
(150,0,l),
(158,0,l),
(158,600,l),
(133,600,l),
(133,593,l),
(143,593,o),
(150,585,o),
(150,576,cs),
(150,372,l),
(138,395,o),
(114,410,o),
(86,407,cs),
(51,405,o),
(25,374,o),
(25,339,cs)
);
}
);
width = 183;
}
);
note = d;
unicode = 100;
},
{
glyphname = eth;
kernLeft = d;
kernRight = d;
layers = (
{
hints = (
{
horizontal = 1;
place = (-8, 8);
place = (-8, 8);
type = Stem;
},
{
horizontal = 1;
place = (374, 8);
place = (374, 8);
type = Stem;
},
{
horizontal = 1;
place = (592, 8);
place = (592, 8);
type = Stem;
},
{
place = (25, 8);
place = (25, 8);
type = Stem;
},
{
place = (150, 8);
place = (150, 8);
type = Stem;
}
);
layerId = m01;
shapes = (
{
closed = 1;
nodes = (
(150,58,ls),
(150,42,o),
(144,28,o),
(133,17,cs),
(122,6,o),
(107,0,o),
(91,0,cs),
(59,0,o),
(33,26,o),
(33,58,cs),
(33,315,ls),
(33,348,o),
(59,374,o),
(91,374,cs),
(124,374,o),
(150,348,o),
(150,315,cs)
);
},
{
closed = 1;
nodes = (
(25,58,ls),
(25,22,o),
(55,-8,o),
(91,-8,cs),
(109,-8,o),
(126,-1,o),
(138,11,cs),
(151,24,o),
(158,40,o),
(158,58,cs),
(158,487,l),
(199,511,l),
(195,517,l),
(158,496,l),
(158,534,ls),
(158,570,o),
(128,600,o),
(92,600,c),
(92,592,l),
(124,592,o),
(150,566,o),
(150,534,cs),
(150,491,l),
(91,457,l),
(95,451,l),
(150,483,l),
(150,347,l),
(139,368,o),
(117,382,o),
(91,382,cs),
(55,382,o),
(25,352,o),
(25,315,cs)
);
}
);
width = 183;
}
);
note = eth;
unicode = 240;
},
{
glyphname = e;
kernLeft = e;
kernRight = ae;
layers = (
{
hints = (
{
horizontal = 1;
place = (-8, 8);
place = (-8, 8);
type = Stem;
},
{
horizontal = 1;
place = (250, 7);
place = (250, 7);
type = Stem;
},
{
horizontal = 1;
place = (399, 8);
place = (399, 8);
type = Stem;
},
{
place = (25, 7);
place = (25, 7);
type = Stem;
},
{
place = (150, 7);
place = (150, 7);
type = Stem;
}
);
layerId = m01;
shapes = (
{
closed = 1;
nodes = (
(54,407,o),
(25,377,o),
(25,340,cs),
(25,58,ls),
(25,22,o),
(54,-8,o),
(91,-8,cs),
(109,-8,o),
(125,-1,o),
(138,11,cs),
(150,24,o),
(157,40,o),
(157,58,c),
(150,58,l),
(150,42,o),
(143,28,o),
(132,17,cs),
(121,6,o),
(107,0,o),
(91,0,cs),
(59,0,o),
(32,26,o),
(32,58,cs),
(32,340,ls),
(32,373,o),
(59,399,o),
(91,399,cs),
(123,399,o),
(150,373,o),
(150,340,cs),
(150,271,ls),
(150,263,o),
(144,257,o),
(136,257,cs),
(68,257,l),
(68,250,l),
(136,250,ls),
(148,250,o),
(157,259,o),
(157,271,cs),
(157,340,ls),
(157,377,o),
(128,407,o),
(91,407,cs)
);
}
);
width = 182;
}
);
note = e;
unicode = 101;
},
{
glyphname = eacute;
kernLeft = e;
kernRight = ae;
layers = (
{
hints = (
{
horizontal = 1;
place = (-8, 8);
place = (-8, 8);
type = Stem;
},
{
horizontal = 1;
place = (250, 7);
place = (250, 7);
type = Stem;
},
{
horizontal = 1;
place = (399, 8);
place = (399, 8);
type = Stem;
},
{
place = (25, 7);
place = (25, 7);
type = Stem;
},
{
place = (150, 7);
place = (150, 7);
type = Stem;
}
);
layerId = m01;
shapes = (
{
closed = 1;
nodes = (
(54,407,o),
(25,377,o),
(25,340,cs),
(25,58,ls),
(25,22,o),
(54,-8,o),
(91,-8,cs),
(109,-8,o),
(125,-1,o),
(138,11,cs),
(150,24,o),
(157,40,o),
(157,58,c),
(150,58,l),
(150,42,o),
(143,28,o),
(132,17,cs),
(121,6,o),
(107,0,o),
(91,0,cs),
(59,0,o),
(32,26,o),
(32,58,cs),
(32,340,ls),
(32,373,o),
(59,399,o),
(91,399,cs),
(123,399,o),
(150,373,o),
(150,340,cs),
(150,271,ls),
(150,263,o),
(144,257,o),
(136,257,cs),
(68,257,l),
(68,250,l),
(136,250,ls),
(148,250,o),
(157,259,o),
(157,271,cs),
(157,340,ls),
(157,377,o),
(128,407,o),
(91,407,cs)
);
},
{
closed = 1;
nodes = (
(78,448,l),
(86,448,l),
(122,524,l),
(114,524,l)
);
}
);
width = 182;
}
);
note = eacute;
unicode = 233;
},
{
glyphname = ecircumflex;
kernLeft = e;
kernRight = ae;
layers = (
{
hints = (
{
horizontal = 1;
place = (-8, 8);
place = (-8, 8);
type = Stem;
},
{
horizontal = 1;
place = (250, 7);
place = (250, 7);
type = Stem;
},
{
horizontal = 1;
place = (399, 8);
place = (399, 8);
type = Stem;
},
{
horizontal = 1;
place = (515, 9);
place = (515, 9);
type = Stem;
},
{
place = (25, 7);
place = (25, 7);
type = Stem;
},
{
place = (150, 7);
place = (150, 7);
type = Stem;
}
);
layerId = m01;
shapes = (
{
closed = 1;
nodes = (
(54,407,o),
(25,377,o),
(25,340,cs),
(25,58,ls),
(25,22,o),
(54,-8,o),
(91,-8,cs),
(109,-8,o),
(125,-1,o),
(138,11,cs),
(150,24,o),
(157,40,o),
(157,58,c),
(150,58,l),
(150,42,o),
(143,28,o),
(132,17,cs),
(121,6,o),
(107,0,o),
(91,0,cs),
(59,0,o),
(32,26,o),
(32,58,cs),
(32,340,ls),
(32,373,o),
(59,399,o),
(91,399,cs),
(123,399,o),
(150,373,o),
(150,340,cs),
(150,271,ls),
(150,263,o),
(144,257,o),
(136,257,cs),
(68,257,l),
(68,250,l),
(136,250,ls),
(148,250,o),
(157,259,o),
(157,271,cs),
(157,340,ls),
(157,377,o),
(128,407,o),
(91,407,cs)
);
},
{
closed = 1;
nodes = (
(51,448,l),
(59,448,l),
(91,515,l),
(122,448,l),
(130,448,l),
(95,524,l),
(87,524,l)
);
}
);
width = 182;
}
);
note = ecircumflex;
unicode = 234;
},
{
glyphname = edieresis;
kernLeft = e;
kernRight = ae;
layers = (
{
hints = (
{
horizontal = 1;
place = (-8, 8);
place = (-8, 8);
type = Stem;
},
{
horizontal = 1;
place = (250, 7);
place = (250, 7);
type = Stem;
},
{
horizontal = 1;
place = (399, 8);
place = (399, 8);
type = Stem;
},
{
place = (25, 7);
place = (25, 7);
type = Stem;
},
{
place = (150, 7);
place = (150, 7);
type = Stem;
},
{
horizontal = 1;
place = (468, 30);
place = (468, 30);
type = Stem;
},
{
place = (30, 30);
place = (30, 30);
type = Stem;
},
{
place = (123, 30);
place = (123, 30);
type = Stem;
}
);
layerId = m01;
shapes = (
{
closed = 1;
nodes = (
(54,407,o),
(25,377,o),
(25,340,cs),
(25,58,ls),
(25,22,o),
(54,-8,o),
(91,-8,cs),
(109,-8,o),
(125,-1,o),
(138,11,cs),
(150,24,o),
(157,40,o),
(157,58,c),
(150,58,l),
(150,42,o),
(143,28,o),
(132,17,cs),
(121,6,o),
(107,0,o),
(91,0,cs),
(59,0,o),
(32,26,o),
(32,58,cs),
(32,340,ls),
(32,373,o),
(59,399,o),
(91,399,cs),
(123,399,o),
(150,373,o),
(150,340,cs),
(150,271,ls),
(150,263,o),
(144,257,o),
(136,257,cs),
(68,257,l),
(68,250,l),
(136,250,ls),
(148,250,o),
(157,259,o),
(157,271,cs),
(157,340,ls),
(157,377,o),
(128,407,o),
(91,407,cs)
);
},
{
closed = 1;
nodes = (
(30,475,o),
(37,468,o),
(45,468,cs),
(53,468,o),
(60,475,o),
(60,483,cs),
(60,491,o),
(53,498,o),
(45,498,cs),
(37,498,o),
(30,491,o),
(30,483,cs)
);
},
{
closed = 1;
nodes = (
(123,475,o),
(130,468,o),
(138,468,cs),
(146,468,o),
(153,475,o),
(153,483,cs),
(153,491,o),
(146,498,o),
(138,498,cs),
(130,498,o),
(123,491,o),
(123,483,cs)
);
}
);
width = 182;
}
);
note = edieresis;
unicode = 235;
},
{
glyphname = edotaccent;
kernLeft = e;
kernRight = ae;
layers = (
{
hints = (
{
horizontal = 1;
place = (-8, 8);
place = (-8, 8);
type = Stem;
},
{
horizontal = 1;
place = (250, 7);
place = (250, 7);
type = Stem;
},
{
horizontal = 1;
place = (399, 8);
place = (399, 8);
type = Stem;
},
{
horizontal = 1;
place = (468, 30);
place = (468, 30);
type = Stem;
},
{
place = (25, 7);
place = (25, 7);
type = Stem;
},
{
place = (76, 30);
place = (76, 30);
type = Stem;
},
{
place = (150, 7);
place = (150, 7);
type = Stem;
}
);
layerId = m01;
shapes = (
{
closed = 1;
nodes = (
(54,407,o),
(25,377,o),
(25,340,cs),
(25,58,ls),
(25,22,o),
(54,-8,o),
(91,-8,cs),
(109,-8,o),
(125,-1,o),
(138,11,cs),
(150,24,o),
(157,40,o),
(157,58,c),
(150,58,l),
(150,42,o),
(143,28,o),
(132,17,cs),
(121,6,o),
(107,0,o),
(91,0,cs),
(59,0,o),
(32,26,o),
(32,58,cs),
(32,340,ls),
(32,373,o),
(59,399,o),
(91,399,cs),
(123,399,o),
(150,373,o),
(150,340,cs),
(150,271,ls),
(150,263,o),
(144,257,o),
(136,257,cs),
(68,257,l),
(68,250,l),
(136,250,ls),
(148,250,o),
(157,259,o),
(157,271,cs),
(157,340,ls),
(157,377,o),
(128,407,o),
(91,407,cs)
);
},
{
closed = 1;
nodes = (
(76,475,o),
(83,468,o),
(91,468,cs),
(99,468,o),
(106,475,o),
(106,483,cs),
(106,491,o),
(99,498,o),
(91,498,cs),
(83,498,o),
(76,491,o),
(76,483,cs)
);
}
);
width = 182;
}
);
note = edotaccent;
unicode = 279;
},
{
glyphname = egrave;
kernLeft = e;
kernRight = ae;
layers = (
{
hints = (
{
horizontal = 1;
place = (-8, 8);
place = (-8, 8);
type = Stem;
},
{
horizontal = 1;
place = (250, 7);
place = (250, 7);
type = Stem;
},
{
horizontal = 1;
place = (399, 8);
place = (399, 8);
type = Stem;
},
{
place = (25, 7);
place = (25, 7);
type = Stem;
},
{
place = (150, 7);
place = (150, 7);
type = Stem;
}
);
layerId = m01;
shapes = (
{
closed = 1;
nodes = (
(54,407,o),
(25,377,o),
(25,340,cs),
(25,58,ls),
(25,22,o),
(54,-8,o),
(91,-8,cs),
(109,-8,o),
(125,-1,o),
(138,11,cs),
(150,24,o),
(157,40,o),
(157,58,c),
(150,58,l),
(150,42,o),
(143,28,o),
(132,17,cs),
(121,6,o),
(107,0,o),
(91,0,cs),
(59,0,o),
(32,26,o),
(32,58,cs),
(32,340,ls),
(32,373,o),
(59,399,o),
(91,399,cs),
(123,399,o),
(150,373,o),
(150,340,cs),
(150,271,ls),
(150,263,o),
(144,257,o),
(136,257,cs),
(68,257,l),
(68,250,l),
(136,250,ls),
(148,250,o),
(157,259,o),
(157,271,cs),
(157,340,ls),
(157,377,o),
(128,407,o),
(91,407,cs)
);
},
{
closed = 1;
nodes = (
(60,524,l),
(95,448,l),
(103,448,l),
(68,524,l)
);
}
);
width = 182;
}
);
note = egrave;
unicode = 232;
},
{
glyphname = emacron;
kernLeft = e;
kernRight = ae;
layers = (
{
hints = (
{
horizontal = 1;
place = (-8, 8);
place = (-8, 8);
type = Stem;
},
{
horizontal = 1;
place = (250, 7);
place = (250, 7);
type = Stem;
},
{
horizontal = 1;
place = (399, 8);
place = (399, 8);
type = Stem;
},
{
horizontal = 1;
place = (478, 8);
place = (478, 8);
type = Stem;
},
{
place = (25, 7);
place = (25, 7);
type = Stem;
},
{
place = (150, 7);
place = (150, 7);
type = Stem;
}
);
layerId = m01;
shapes = (
{
closed = 1;
nodes = (
(54,407,o),
(25,377,o),
(25,340,cs),
(25,58,ls),
(25,22,o),
(54,-8,o),
(91,-8,cs),
(109,-8,o),
(125,-1,o),
(138,11,cs),
(150,24,o),
(157,40,o),
(157,58,c),
(150,58,l),
(150,42,o),
(143,28,o),
(132,17,cs),
(121,6,o),
(107,0,o),
(91,0,cs),
(59,0,o),
(32,26,o),
(32,58,cs),
(32,340,ls),
(32,373,o),
(59,399,o),
(91,399,cs),
(123,399,o),
(150,373,o),
(150,340,cs),
(150,271,ls),
(150,263,o),
(144,257,o),
(136,257,cs),
(68,257,l),
(68,250,l),
(136,250,ls),
(148,250,o),
(157,259,o),
(157,271,cs),
(157,340,ls),
(157,377,o),
(128,407,o),
(91,407,cs)
);
},
{
closed = 1;
nodes = (
(30,478,l),
(160,478,l),
(160,486,l),
(30,486,l)
);
}
);
width = 182;
}
);
note = emacron;
unicode = 275;
},
{
glyphname = eogonek;
kernLeft = e;
kernRight = ae;
layers = (
{
hints = (
{
horizontal = 1;
place = (-103, 9);
place = (-103, 9);
type = Stem;
},
{
horizontal = 1;
place = (-8, 8);
place = (-8, 8);
type = Stem;
},
{
horizontal = 1;
place = (250, 7);
place = (250, 7);
type = Stem;
},
{
horizontal = 1;
place = (399, 8);
place = (399, 8);
type = Stem;
},
{
place = (25, 7);
place = (25, 7);
type = Stem;
},
{
place = (150, 7);
place = (150, 7);
type = Stem;
},
{
place = (70, 58);
place = (70, 58);
type = Stem;
}
);
layerId = m01;
shapes = (
{
closed = 1;
nodes = (
(54,407,o),
(25,377,o),
(25,340,cs),
(25,58,ls),
(25,23,o),
(53,-7,o),
(89,-8,c),
(73,-53,ls),
(63,-80,o),
(79,-103,o),
(107,-103,cs),
(114,-103,o),
(121,-102,o),
(128,-99,c),
(128,-91,l),
(122,-93,o),
(116,-94,o),
(110,-94,cs),
(86,-94,o),
(74,-76,o),
(82,-53,cs),
(98,-8,l),
(113,-6,o),
(127,1,o),
(138,11,cs),
(150,24,o),
(157,40,o),
(157,58,c),
(150,58,l),
(150,42,o),
(143,28,o),
(132,17,cs),
(121,6,o),
(107,0,o),
(91,0,cs),
(59,0,o),
(32,26,o),
(32,58,cs),
(32,340,ls),
(32,373,o),
(59,399,o),
(91,399,cs),
(123,399,o),
(150,373,o),
(150,340,cs),
(150,271,ls),
(150,263,o),
(144,257,o),
(136,257,cs),
(68,257,l),
(68,250,l),
(136,250,ls),
(148,250,o),
(157,259,o),
(157,271,cs),
(157,340,ls),
(157,377,o),
(128,407,o),
(91,407,cs)
);
}
);
width = 182;
}
);
note = eogonek;
unicode = 281;
},
{
glyphname = etilde;
kernLeft = e;
kernRight = ae;
layers = (
{
hints = (
{
horizontal = 1;
place = (-8, 8);
place = (-8, 8);
type = Stem;
},
{
horizontal = 1;
place = (250, 7);
place = (250, 7);
type = Stem;
},
{
horizontal = 1;
place = (399, 8);
place = (399, 8);
type = Stem;
},
{
place = (25, 7);
place = (25, 7);
type = Stem;
},
{
place = (150, 7);
place = (150, 7);
type = Stem;
}
);
layerId = m01;
shapes = (
{
closed = 1;
nodes = (
(54,407,o),
(25,377,o),
(25,340,cs),
(25,58,ls),
(25,22,o),
(54,-8,o),
(91,-8,cs),
(109,-8,o),
(125,-1,o),
(138,11,cs),
(150,24,o),
(157,40,o),
(157,58,c),
(150,58,l),
(150,42,o),
(143,28,o),
(132,17,cs),
(121,6,o),
(107,0,o),
(91,0,cs),
(59,0,o),
(32,26,o),
(32,58,cs),
(32,340,ls),
(32,373,o),
(59,399,o),
(91,399,cs),
(123,399,o),
(150,373,o),
(150,340,cs),
(150,271,ls),
(150,263,o),
(144,257,o),
(136,257,cs),
(68,257,l),
(68,250,l),
(136,250,ls),
(148,250,o),
(157,259,o),
(157,271,cs),
(157,340,ls),
(157,377,o),
(128,407,o),
(91,407,cs)
);
},
{
closed = 1;
nodes = (
(13,455,l),
(14,457,o),
(29,490,o),
(53,493,cs),
(66,494,o),
(79,487,o),
(90,472,cs),
(99,460,o),
(109,455,o),
(118,456,cs),
(136,457,o),
(150,485,o),
(150,485,c),
(157,482,l),
(156,481,o),
(141,450,o),
(118,448,cs),
(116,448,ls),
(105,448,o),
(94,454,o),
(84,467,cs),
(74,480,o),
(64,486,o),
(54,485,cs),
(34,483,o),
(20,452,o),
(20,452,c)
);
}
);
width = 182;
}
);
note = uni1EBD;
unicode = 7869;
},
{
glyphname = schwa;
kernLeft = e;
kernRight = ae;
layers = (
{
hints = (
{
horizontal = 1;
place = (-6, 9);
place = (-6, 9);
type = Stem;
},
{
horizontal = 1;
place = (145, 7);
place = (145, 7);
type = Stem;
},
{
horizontal = 1;
place = (402, 8);
place = (402, 8);
type = Stem;
},
{
place = (25, 7);
place = (25, 7);
type = Stem;
},
{
place = (150, 7);
place = (150, 7);
type = Stem;
}
);
layerId = m01;
shapes = (
{
closed = 1;
nodes = (
(128,-6,o),
(157,25,o),
(157,62,cs),
(157,344,ls),
(156,380,o),
(127,410,o),
(90,410,cs),
(72,410,o),
(56,403,o),
(43,391,c),
(32,378,o),
(25,362,o),
(25,344,c),
(32,344,l),
(32,360,o),
(38,374,o),
(49,385,cs),
(60,396,o),
(74,402,o),
(90,402,cs),
(122,402,o),
(149,376,o),
(150,344,cs),
(150,62,ls),
(150,29,o),
(123,3,o),
(91,3,cs),
(59,3,o),
(32,29,o),
(32,62,cs),
(32,131,ls),
(32,139,o),
(38,145,o),
(46,145,cs),
(114,145,l),
(114,152,l),
(46,152,ls),
(34,152,o),
(25,143,o),
(25,131,cs),
(25,62,ls),
(25,25,o),
(54,-6,o),
(91,-6,cs)
);
}
);
width = 182;
}
);
note = uni0259;
unicode = 601;
},
{
glyphname = f;
kernLeft = f;
kernRight = f;
layers = (
{
hints = (
{
horizontal = 1;
place = (0, 8);
place = (0, 8);
type = Stem;
},
{
horizontal = 1;
place = (392, 8);
place = (392, 8);
type = Stem;
},
{
horizontal = 1;
place = (592, 7);
place = (592, 7);
type = Stem;
},
{
place = (69, 8);
place = (69, 8);
type = Stem;
}
);
layerId = m01;
shapes = (
{
closed = 1;
nodes = (
(69,400,l),
(25,400,l),
(25,392,l),
(69,392,l),
(69,8,l),
(48,8,l),
(48,0,l),
(99,0,l),
(99,8,l),
(86,8,o),
(77,17,o),
(77,29,cs),
(77,392,l),
(135,392,l),
(135,400,l),
(77,400,l),
(77,533,ls),
(77,566,o),
(103,592,o),
(135,592,c),
(135,599,l),
(99,599,o),
(69,570,o),
(69,533,cs)
);
}
);
width = 160;
}
);
note = f;
unicode = 102;
},
{
glyphname = g;
kernLeft = g;
kernRight = g;
layers = (
{
hints = (
{
horizontal = 1;
place = (-199, 8);
place = (-199, 8);
type = Stem;
},
{
horizontal = 1;
place = (-8, 8);
place = (-8, 8);
type = Stem;
},
{
horizontal = 1;
place = (399, 8);
place = (399, 8);
type = Stem;
},
{
place = (25, 8);
place = (25, 8);
type = Stem;
},
{
place = (150, 8);
place = (150, 8);
type = Stem;
}
);
layerId = m01;
shapes = (
{
closed = 1;
nodes = (
(150,58,ls),
(150,43,o),
(144,28,o),
(133,17,cs),
(122,6,o),
(107,0,o),
(91,0,cs),
(59,0,o),
(33,26,o),
(33,58,cs),
(33,341,ls),
(33,373,o),
(59,399,o),
(91,399,cs),
(124,399,o),
(150,373,o),
(150,341,cs)
);
},
{
closed = 1;
nodes = (
(25,-133,l),
(25,-169,o),
(55,-199,o),
(91,-199,cs),
(128,-199,o),
(158,-169,o),
(158,-133,cs),
(158,400,l),
(150,400,l),
(150,371,l),
(139,392,o),
(117,407,o),
(91,407,cs),
(55,407,o),
(25,377,o),
(25,341,cs),
(25,58,ls),
(25,22,o),
(55,-8,o),
(91,-8,cs),
(109,-8,o),
(126,-1,o),
(138,12,cs),
(143,17,o),
(147,22,o),
(150,28,c),
(150,-133,ls),
(150,-165,o),
(124,-191,o),
(91,-191,cs),
(59,-191,o),
(33,-165,o),
(33,-133,c)
);
}
);
width = 183;
}
);
note = g;
unicode = 103;
},
{
glyphname = gbreve;
kernLeft = g;
kernRight = g;
layers = (
{
hints = (
{
horizontal = 1;
place = (-199, 8);
place = (-199, 8);
type = Stem;
},
{
horizontal = 1;
place = (-8, 8);
place = (-8, 8);
type = Stem;
},
{
horizontal = 1;
place = (399, 8);
place = (399, 8);
type = Stem;
},
{
place = (25, 8);
place = (25, 8);
type = Stem;
},
{
place = (150, 8);
place = (150, 8);
type = Stem;
}
);
layerId = m01;
shapes = (
{
closed = 1;
nodes = (
(150,58,ls),
(150,43,o),
(144,28,o),
(133,17,cs),
(122,6,o),
(107,0,o),
(91,0,cs),
(59,0,o),
(33,26,o),
(33,58,cs),
(33,341,ls),
(33,373,o),
(59,399,o),
(91,399,cs),
(124,399,o),
(150,373,o),
(150,341,cs)
);
},
{
closed = 1;
nodes = (
(18,487,l),
(38,465,o),
(64,453,o),
(90,453,cs),
(116,453,o),
(141,465,o),
(161,487,c),
(167,482,l),
(145,458,o),
(118,446,o),
(90,446,cs),
(62,446,o),
(34,458,o),
(13,482,c)
);
},
{
closed = 1;
nodes = (
(25,-133,l),
(25,-169,o),
(55,-199,o),
(91,-199,cs),
(128,-199,o),
(158,-169,o),
(158,-133,cs),
(158,400,l),
(150,400,l),
(150,371,l),
(139,392,o),
(117,407,o),
(91,407,cs),
(55,407,o),
(25,377,o),
(25,341,cs),
(25,58,ls),
(25,22,o),
(55,-8,o),
(91,-8,cs),
(109,-8,o),
(126,-1,o),
(138,12,cs),
(143,17,o),
(147,22,o),
(150,28,c),
(150,-133,ls),
(150,-165,o),
(124,-191,o),
(91,-191,cs),
(59,-191,o),
(33,-165,o),
(33,-133,c)
);
}
);
width = 183;
}
);
note = gbreve;
unicode = 287;
},
{
glyphname = gcircumflex;
kernLeft = g;
kernRight = g;
layers = (
{
hints = (
{
horizontal = 1;
place = (-199, 8);
place = (-199, 8);
type = Stem;
},
{
horizontal = 1;
place = (-8, 8);
place = (-8, 8);
type = Stem;
},
{
horizontal = 1;
place = (399, 8);
place = (399, 8);
type = Stem;
},
{
horizontal = 1;
place = (515, 9);
place = (515, 9);
type = Stem;
},
{
place = (25, 8);
place = (25, 8);
type = Stem;
},
{
place = (150, 8);
place = (150, 8);
type = Stem;
}
);
layerId = m01;
shapes = (
{
closed = 1;
nodes = (
(150,58,ls),
(150,43,o),
(144,28,o),
(133,17,cs),
(122,6,o),
(107,0,o),
(91,0,cs),
(59,0,o),
(33,26,o),
(33,58,cs),
(33,341,ls),
(33,373,o),
(59,399,o),
(91,399,cs),
(124,399,o),
(150,373,o),
(150,341,cs)
);
},
{
closed = 1;
nodes = (
(25,-133,l),
(25,-169,o),
(55,-199,o),
(91,-199,cs),
(128,-199,o),
(158,-169,o),
(158,-133,cs),
(158,400,l),
(150,400,l),
(150,371,l),
(139,392,o),
(117,407,o),
(91,407,cs),
(55,407,o),
(25,377,o),
(25,341,cs),
(25,58,ls),
(25,22,o),
(55,-8,o),
(91,-8,cs),
(109,-8,o),
(126,-1,o),
(138,12,cs),
(143,17,o),
(147,22,o),
(150,28,c),
(150,-133,ls),
(150,-165,o),
(124,-191,o),
(91,-191,cs),
(59,-191,o),
(33,-165,o),
(33,-133,c)
);
},
{
closed = 1;
nodes = (
(52,448,l),
(60,448,l),
(92,515,l),
(123,448,l),
(131,448,l),
(96,524,l),
(88,524,l)
);
}
);
width = 183;
}
);
note = gcircumflex;
unicode = 285;
},
{
glyphname = gdotaccent;
kernLeft = g;
kernRight = g;
layers = (
{
hints = (
{
horizontal = 1;
place = (-199, 8);
place = (-199, 8);
type = Stem;
},
{
horizontal = 1;
place = (-8, 8);
place = (-8, 8);
type = Stem;
},
{
horizontal = 1;
place = (399, 8);
place = (399, 8);
type = Stem;
},
{
horizontal = 1;
place = (468, 30);
place = (468, 30);
type = Stem;
},
{
place = (25, 8);
place = (25, 8);
type = Stem;
},
{
place = (76, 30);
place = (76, 30);
type = Stem;
},
{
place = (150, 8);
place = (150, 8);
type = Stem;
}
);
layerId = m01;
shapes = (
{
closed = 1;
nodes = (
(150,58,ls),
(150,43,o),
(144,28,o),
(133,17,cs),
(122,6,o),
(107,0,o),
(91,0,cs),
(59,0,o),
(33,26,o),
(33,58,cs),
(33,341,ls),
(33,373,o),
(59,399,o),
(91,399,cs),
(124,399,o),
(150,373,o),
(150,341,cs)
);
},
{
closed = 1;
nodes = (
(25,-133,l),
(25,-169,o),
(55,-199,o),
(91,-199,cs),
(128,-199,o),
(158,-169,o),
(158,-133,cs),
(158,400,l),
(150,400,l),
(150,371,l),
(139,392,o),
(117,407,o),
(91,407,cs),
(55,407,o),
(25,377,o),
(25,341,cs),
(25,58,ls),
(25,22,o),
(55,-8,o),
(91,-8,cs),
(109,-8,o),
(126,-1,o),
(138,12,cs),
(143,17,o),
(147,22,o),
(150,28,c),
(150,-133,ls),
(150,-165,o),
(124,-191,o),
(91,-191,cs),
(59,-191,o),
(33,-165,o),
(33,-133,c)
);
},
{
closed = 1;
nodes = (
(76,475,o),
(83,468,o),
(91,468,cs),
(99,468,o),
(106,475,o),
(106,483,cs),
(106,491,o),
(99,498,o),
(91,498,cs),
(83,498,o),
(76,491,o),
(76,483,cs)
);
}
);
width = 183;
}
);
note = gdotaccent;
unicode = 289;
},
{
glyphname = gmacron;
kernLeft = g;
kernRight = g;
layers = (
{
hints = (
{
horizontal = 1;
place = (-199, 8);
place = (-199, 8);
type = Stem;
},
{
horizontal = 1;
place = (-8, 8);
place = (-8, 8);
type = Stem;
},
{
horizontal = 1;
place = (399, 8);
place = (399, 8);
type = Stem;
},
{
horizontal = 1;
place = (478, 8);
place = (478, 8);
type = Stem;
},
{
place = (25, 8);
place = (25, 8);
type = Stem;
},
{
place = (150, 8);
place = (150, 8);
type = Stem;
}
);
layerId = m01;
shapes = (
{
closed = 1;
nodes = (
(150,58,ls),
(150,43,o),
(144,28,o),
(133,17,cs),
(122,6,o),
(107,0,o),
(91,0,cs),
(59,0,o),
(33,26,o),
(33,58,cs),
(33,341,ls),
(33,373,o),
(59,399,o),
(91,399,cs),
(124,399,o),
(150,373,o),
(150,341,cs)
);
},
{
closed = 1;
nodes = (
(25,-133,l),
(25,-169,o),
(55,-199,o),
(91,-199,cs),
(128,-199,o),
(158,-169,o),
(158,-133,cs),
(158,400,l),
(150,400,l),
(150,371,l),
(139,392,o),
(117,407,o),
(91,407,cs),
(55,407,o),
(25,377,o),
(25,341,cs),
(25,58,ls),
(25,22,o),
(55,-8,o),
(91,-8,cs),
(109,-8,o),
(126,-1,o),
(138,12,cs),
(143,17,o),
(147,22,o),
(150,28,c),
(150,-133,ls),
(150,-165,o),
(124,-191,o),
(91,-191,cs),
(59,-191,o),
(33,-165,o),
(33,-133,c)
);
},
{
closed = 1;
nodes = (
(30,478,l),
(160,478,l),
(160,486,l),
(30,486,l)
);
}
);
width = 183;
}
);
note = uni1E21;
unicode = 7713;
},
{
glyphname = h;
layers = (
{
hints = (
{
horizontal = 1;
place = (0, 8);
place = (0, 8);
type = Stem;
},
{
horizontal = 1;
place = (399, 8);
place = (399, 8);
type = Stem;
},
{
horizontal = 1;
place = (593, 7);
place = (593, 7);
type = Stem;
},
{
place = (47, 7);
place = (47, 7);
type = Stem;
},
{
place = (172, 7);
place = (172, 7);
type = Stem;
}
);
layerId = m01;
shapes = (
{
closed = 1;
nodes = (
(179,341,ls),
(179,377,o),
(150,407,o),
(113,407,cs),
(87,407,o),
(65,392,o),
(54,371,c),
(54,600,l),
(30,600,l),
(30,593,l),
(39,593,o),
(47,585,o),
(47,576,cs),
(47,8,l),
(25,8,l),
(25,0,l),
(76,0,l),
(76,8,l),
(64,8,o),
(54,17,o),
(54,29,cs),
(54,339,ls),
(54,369,o),
(76,395,o),
(105,399,cs),
(141,404,o),
(172,376,o),
(172,341,cs),
(172,8,l),
(150,8,l),
(150,0,l),
(201,0,l),
(201,8,l),
(189,8,o),
(179,17,o),
(179,29,cs)
);
}
);
width = 226;
}
);
note = h;
unicode = 104;
},
{
glyphname = hbar;
layers = (
{
hints = (
{
horizontal = 1;
place = (0, 8);
place = (0, 8);
type = Stem;
},
{
horizontal = 1;
place = (399, 8);
place = (399, 8);
type = Stem;
},
{
horizontal = 1;
place = (532, 8);
place = (532, 8);
type = Stem;
},
{
horizontal = 1;
place = (593, 7);
place = (593, 7);
type = Stem;
},
{
place = (47, 7);
place = (47, 7);
type = Stem;
},
{
place = (172, 7);
place = (172, 7);
type = Stem;
}
);
layerId = m01;
shapes = (
{
closed = 1;
nodes = (
(179,341,ls),
(179,377,o),
(150,407,o),
(113,407,cs),
(87,407,o),
(65,392,o),
(54,371,c),
(54,532,l),
(93,532,l),
(93,540,l),
(54,540,l),
(54,600,l),
(30,600,l),
(30,593,l),
(39,593,o),
(47,585,o),
(47,576,cs),
(47,540,l),
(8,540,l),
(8,532,l),
(47,532,l),
(47,8,l),
(25,8,l),
(25,0,l),
(76,0,l),
(76,8,l),
(64,8,o),
(54,17,o),
(54,29,cs),
(54,339,ls),
(54,369,o),
(76,395,o),
(105,399,cs),
(141,404,o),
(172,376,o),
(172,341,cs),
(172,8,l),
(150,8,l),
(150,0,l),
(201,0,l),
(201,8,l),
(189,8,o),
(179,17,o),
(179,29,cs)
);
}
);
width = 226;
}
);
note = hbar;
unicode = 295;
},
{
glyphname = hcircumflex;
layers = (
{
hints = (
{
horizontal = 1;
place = (0, 8);
place = (0, 8);
type = Stem;
},
{
horizontal = 1;
place = (399, 8);
place = (399, 8);
type = Stem;
},
{
horizontal = 1;
place = (593, 7);
place = (593, 7);
type = Stem;
},
{
horizontal = 1;
place = (718, 9);
place = (718, 9);
type = Stem;
},
{
place = (47, 7);
place = (47, 7);
type = Stem;
},
{
place = (172, 7);
place = (172, 7);
type = Stem;
}
);
layerId = m01;
shapes = (
{
closed = 1;
nodes = (
(179,341,ls),
(179,377,o),
(150,407,o),
(113,407,cs),
(87,407,o),
(65,392,o),
(54,371,c),
(54,600,l),
(30,600,l),
(30,593,l),
(39,593,o),
(47,585,o),
(47,576,cs),
(47,8,l),
(25,8,l),
(25,0,l),
(76,0,l),
(76,8,l),
(64,8,o),
(54,17,o),
(54,29,cs),
(54,339,ls),
(54,369,o),
(76,395,o),
(105,399,cs),
(141,404,o),
(172,376,o),
(172,341,cs),
(172,8,l),
(150,8,l),
(150,0,l),
(201,0,l),
(201,8,l),
(189,8,o),
(179,17,o),
(179,29,cs)
);
},
{
closed = 1;
nodes = (
(4,651,l),
(12,651,l),
(44,718,l),
(75,651,l),
(83,651,l),
(48,727,l),
(40,727,l)
);
}
);
width = 226;
}
);
note = hcircumflex;
unicode = 293;
},
{
glyphname = i;
kernLeft = i;
kernRight = i;
layers = (
{
hints = (
{
horizontal = 1;
place = (0, 8);
place = (0, 8);
type = Stem;
},
{
horizontal = 1;
place = (392, 8);
place = (392, 8);
type = Stem;
},
{
horizontal = 1;
place = (430, 70);
place = (430, 70);
type = Stem;
},
{
place = (57, 7);
place = (57, 7);
type = Stem;
}
);
layerId = m01;
shapes = (
{
closed = 1;
nodes = (
(57,500,l),
(57,430,l),
(64,430,l),
(64,500,l)
);
},
{
closed = 1;
nodes = (
(35,0,l),
(86,0,l),
(86,8,l),
(74,8,o),
(64,17,o),
(64,29,cs),
(64,400,l),
(40,400,l),
(40,392,l),
(49,392,o),
(57,385,o),
(57,375,cs),
(57,8,l),
(35,8,l)
);
}
);
width = 121;
}
);
note = i;
unicode = 105;
},
{
glyphname = idotless;
kernLeft = i;
kernRight = i;
layers = (
{
hints = (
{
horizontal = 1;
place = (0, 8);
place = (0, 8);
type = Stem;
},
{
horizontal = 1;
place = (392, 8);
place = (392, 8);
type = Stem;
},
{
place = (47, 7);
place = (47, 7);
type = Stem;
}
);
layerId = m01;
shapes = (
{
closed = 1;
nodes = (
(76,0,l),
(76,8,l),
(64,8,o),
(54,17,o),
(54,29,cs),
(54,400,l),
(30,400,l),
(30,392,l),
(39,392,o),
(47,385,o),
(47,375,cs),
(47,8,l),
(25,8,l),
(25,0,l)
);
}
);
width = 101;
}
);
note = dotlessi;
unicode = 305;
},
{
glyphname = iacute;
kernLeft = i;
kernRight = i;
layers = (
{
hints = (
{
horizontal = 1;
place = (0, 8);
place = (0, 8);
type = Stem;
},
{
horizontal = 1;
place = (392, 8);
place = (392, 8);
type = Stem;
},
{
place = (42, 7);
place = (42, 7);
type = Stem;
}
);
layerId = m01;
shapes = (
{
closed = 1;
nodes = (
(71,0,l),
(71,8,l),
(59,8,o),
(49,17,o),
(49,29,cs),
(49,400,l),
(25,400,l),
(25,392,l),
(34,392,o),
(42,385,o),
(42,375,cs),
(42,8,l),
(20,8,l),
(20,0,l)
);
},
{
closed = 1;
nodes = (
(28,448,l),
(36,448,l),
(72,524,l),
(64,524,l)
);
}
);
width = 91;
}
);
note = iacute;
unicode = 237;
},
{
glyphname = icircumflex;
kernLeft = i;
kernRight = i;
layers = (
{
hints = (
{
horizontal = 1;
place = (0, 8);
place = (0, 8);
type = Stem;
},
{
horizontal = 1;
place = (392, 8);
place = (392, 8);
type = Stem;
},
{
horizontal = 1;
place = (515, 9);
place = (515, 9);
type = Stem;
},
{
place = (57, 7);
place = (57, 7);
type = Stem;
}
);
layerId = m01;
shapes = (
{
closed = 1;
nodes = (
(86,0,l),
(86,8,l),
(74,8,o),
(64,17,o),
(64,29,cs),
(64,400,l),
(40,400,l),
(40,392,l),
(49,392,o),
(57,385,o),
(57,375,cs),
(57,8,l),
(35,8,l),
(35,0,l)
);
},
{
closed = 1;
nodes = (
(15,448,l),
(23,448,l),
(55,515,l),
(86,448,l),
(94,448,l),
(59,524,l),
(51,524,l)
);
}
);
width = 119;
}
);
note = icircumflex;
unicode = 238;
},
{
glyphname = idieresis;
kernLeft = i;
kernRight = i;
layers = (
{
hints = (
{
horizontal = 1;
place = (0, 8);
place = (0, 8);
type = Stem;
},
{
horizontal = 1;
place = (392, 8);
place = (392, 8);
type = Stem;
},
{
horizontal = 1;
place = (468, 30);
place = (468, 30);
type = Stem;
},
{
place = (13, 30);
place = (13, 30);
type = Stem;
},
{
place = (78, 7);
place = (78, 7);
type = Stem;
},
{
place = (106, 30);
place = (106, 30);
type = Stem;
}
);
layerId = m01;
shapes = (
{
closed = 1;
nodes = (
(107,0,l),
(107,8,l),
(95,8,o),
(85,17,o),
(85,29,cs),
(85,400,l),
(61,400,l),
(61,392,l),
(70,392,o),
(78,385,o),
(78,375,cs),
(78,8,l),
(56,8,l),
(56,0,l)
);
},
{
closed = 1;
nodes = (
(13,475,o),
(20,468,o),
(28,468,cs),
(36,468,o),
(43,475,o),
(43,483,cs),
(43,491,o),
(36,498,o),
(28,498,cs),
(20,498,o),
(13,491,o),
(13,483,cs)
);
},
{
closed = 1;
nodes = (
(106,475,o),
(113,468,o),
(121,468,cs),
(129,468,o),
(136,475,o),
(136,483,cs),
(136,491,o),
(129,498,o),
(121,498,cs),
(113,498,o),
(106,491,o),
(106,483,cs)
);
}
);
width = 163;
}
);
note = idieresis;
unicode = 239;
},
{
glyphname = idotaccent;
kernLeft = i;
kernRight = i;
layers = (
{
hints = (
{
horizontal = 1;
place = (0, 8);
place = (0, 8);
type = Stem;
},
{
horizontal = 1;
place = (392, 8);
place = (392, 8);
type = Stem;
},
{
place = (42, 7);
place = (42, 7);
type = Stem;
},
{
horizontal = 1;
place = (468, 30);
place = (468, 30);
type = Stem;
},
{
place = (26, 30);
place = (26, 30);
type = Stem;
}
);
layerId = m01;
shapes = (
{
closed = 1;
nodes = (
(71,0,l),
(71,8,l),
(59,8,o),
(49,17,o),
(49,29,cs),
(49,400,l),
(25,400,l),
(25,392,l),
(34,392,o),
(42,385,o),
(42,375,cs),
(42,8,l),
(20,8,l),
(20,0,l)
);
},
{
closed = 1;
nodes = (
(26,475,o),
(33,468,o),
(41,468,cs),
(49,468,o),
(56,475,o),
(56,483,cs),
(56,491,o),
(49,498,o),
(41,498,cs),
(33,498,o),
(26,491,o),
(26,483,cs)
);
}
);
width = 91;
}
);
note = i.loclTRK;
},
{
glyphname = igrave;
kernLeft = i;
kernRight = i;
layers = (
{
hints = (
{
horizontal = 1;
place = (0, 8);
place = (0, 8);
type = Stem;
},
{
horizontal = 1;
place = (392, 8);
place = (392, 8);
type = Stem;
},
{
place = (42, 7);
place = (42, 7);
type = Stem;
}
);
layerId = m01;
shapes = (
{
closed = 1;
nodes = (
(71,0,l),
(71,8,l),
(59,8,o),
(49,17,o),
(49,29,cs),
(49,400,l),
(25,400,l),
(25,392,l),
(34,392,o),
(42,385,o),
(42,375,cs),
(42,8,l),
(20,8,l),
(20,0,l)
);
},
{
closed = 1;
nodes = (
(6,524,l),
(41,448,l),
(49,448,l),
(14,524,l)
);
}
);
width = 91;
}
);
note = igrave;
unicode = 236;
},
{
glyphname = ij;
kernLeft = i;
kernRight = ij;
layers = (
{
hints = (
{
horizontal = 1;
place = (-200, 8);
place = (-200, 8);
type = Stem;
},
{
horizontal = 1;
place = (0, 8);
place = (0, 8);
type = Stem;
},
{
horizontal = 1;
place = (392, 8);
place = (392, 8);
type = Stem;
},
{
horizontal = 1;
place = (430, 70);
place = (430, 70);
type = Stem;
},
{
place = (57, 7);
place = (57, 7);
type = Stem;
},
{
place = (169, 7);
place = (169, 7);
type = Stem;
}
);
layerId = m01;
shapes = (
{
closed = 1;
nodes = (
(57,500,l),
(57,430,l),
(64,430,l),
(64,500,l)
);
},
{
closed = 1;
nodes = (
(35,0,l),
(86,0,l),
(86,8,l),
(74,8,o),
(64,17,o),
(64,29,cs),
(64,400,l),
(40,400,l),
(40,392,l),
(49,392,o),
(57,385,o),
(57,375,cs),
(57,8,l),
(35,8,l)
);
},
{
closed = 1;
nodes = (
(110,-200,l),
(146,-200,o),
(176,-170,o),
(176,-134,cs),
(176,400,l),
(151,400,l),
(151,392,l),
(160,392,o),
(169,384,o),
(169,375,cs),
(169,-134,ls),
(169,-166,o),
(142,-192,o),
(110,-192,c)
);
},
{
closed = 1;
nodes = (
(169,430,l),
(176,430,l),
(176,500,l),
(169,500,l)
);
}
);
width = 201;
}
);
note = ij;
unicode = 307;
},
{
glyphname = imacron;
kernLeft = i;
kernRight = i;
layers = (
{
hints = (
{
horizontal = 1;
place = (0, 8);
place = (0, 8);
type = Stem;
},
{
horizontal = 1;
place = (392, 8);
place = (392, 8);
type = Stem;
},
{
horizontal = 1;
place = (478, 8);
place = (478, 8);
type = Stem;
},
{
place = (63, 7);
place = (63, 7);
type = Stem;
}
);
layerId = m01;
shapes = (
{
closed = 1;
nodes = (
(92,0,l),
(92,8,l),
(80,8,o),
(70,17,o),
(70,29,cs),
(70,400,l),
(46,400,l),
(46,392,l),
(55,392,o),
(63,385,o),
(63,375,cs),
(63,8,l),
(41,8,l),
(41,0,l)
);
},
{
closed = 1;
nodes = (
(0,478,l),
(130,478,l),
(130,486,l),
(0,486,l)
);
}
);
width = 130;
}
);
note = imacron;
unicode = 299;
},
{
glyphname = itilde;
kernLeft = i;
kernRight = i;
layers = (
{
hints = (
{
horizontal = 1;
place = (0, 8);
place = (0, 8);
type = Stem;
},
{
horizontal = 1;
place = (392, 8);
place = (392, 8);
type = Stem;
},
{
place = (54, 7);
place = (54, 7);
type = Stem;
}
);
layerId = m01;
shapes = (
{
closed = 1;
nodes = (
(83,0,l),
(83,8,l),
(71,8,o),
(61,17,o),
(61,29,cs),
(61,400,l),
(37,400,l),
(37,392,l),
(46,392,o),
(54,385,o),
(54,375,cs),
(54,8,l),
(32,8,l),
(32,0,l)
);
},
{
closed = 1;
nodes = (
(-10,455,l),
(-9,457,o),
(6,490,o),
(30,493,cs),
(43,494,o),
(56,487,o),
(67,472,cs),
(76,460,o),
(86,455,o),
(95,456,cs),
(113,457,o),
(127,485,o),
(127,485,c),
(134,482,l),
(133,481,o),
(118,450,o),
(95,448,cs),
(93,448,ls),
(82,448,o),
(71,454,o),
(61,467,cs),
(51,480,o),
(41,486,o),
(31,485,cs),
(11,483,o),
(-3,452,o),
(-3,452,c)
);
}
);
width = 124;
}
);
note = itilde;
unicode = 297;
},
{
glyphname = j;
kernLeft = j;
kernRight = ij;
layers = (
{
hints = (
{
horizontal = 1;
place = (-200, 8);
place = (-200, 8);
type = Stem;
},
{
horizontal = 1;
place = (392, 8);
place = (392, 8);
type = Stem;
},
{
horizontal = 1;
place = (430, 70);
place = (430, 70);
type = Stem;
},
{
place = (48, 7);
place = (48, 7);
type = Stem;
}
);
layerId = m01;
shapes = (
{
closed = 1;
nodes = (
(48,500,l),
(48,430,l),
(55,430,l),
(55,500,l)
);
},
{
closed = 1;
nodes = (
(-11,-200,l),
(25,-200,o),
(55,-170,o),
(55,-134,cs),
(55,400,l),
(30,400,l),
(30,392,l),
(39,392,o),
(48,384,o),
(48,375,cs),
(48,-134,ls),
(48,-166,o),
(21,-192,o),
(-11,-192,c)
);
}
);
width = 80;
}
);
note = j;
unicode = 106;
},
{
glyphname = jdotless;
kernLeft = j;
kernRight = ij;
layers = (
{
hints = (
{
horizontal = 1;
place = (-200, 8);
place = (-200, 8);
type = Stem;
},
{
horizontal = 1;
place = (392, 8);
place = (392, 8);
type = Stem;
},
{
place = (48, 7);
place = (48, 7);
type = Stem;
}
);
layerId = m01;
shapes = (
{
closed = 1;
nodes = (
(55,400,l),
(30,400,l),
(30,392,l),
(39,392,o),
(48,384,o),
(48,375,cs),
(48,-134,ls),
(48,-166,o),
(21,-192,o),
(-11,-192,c),
(-11,-200,l),
(25,-200,o),
(55,-170,o),
(55,-134,cs)
);
}
);
width = 80;
}
);
note = uni0237;
unicode = 567;
},
{
glyphname = j_acutecomb;
kernLeft = j;
kernRight = ij;
layers = (
{
hints = (
{
horizontal = 1;
place = (-200, 8);
place = (-200, 8);
type = Stem;
},
{
horizontal = 1;
place = (392, 8);
place = (392, 8);
type = Stem;
},
{
place = (48, 7);
place = (48, 7);
type = Stem;
}
);
layerId = m01;
shapes = (
{
closed = 1;
nodes = (
(55,400,l),
(30,400,l),
(30,392,l),
(39,392,o),
(48,384,o),
(48,375,cs),
(48,-134,ls),
(48,-166,o),
(21,-192,o),
(-11,-192,c),
(-11,-200,l),
(25,-200,o),
(55,-170,o),
(55,-134,cs)
);
},
{
closed = 1;
nodes = (
(33,448,l),
(41,448,l),
(77,524,l),
(69,524,l)
);
}
);
width = 80;
}
);
note = uni006A0301;
},
{
glyphname = jcircumflex;
kernLeft = j;
kernRight = ij;
layers = (
{
hints = (
{
horizontal = 1;
place = (-200, 8);
place = (-200, 8);
type = Stem;
},
{
horizontal = 1;
place = (392, 8);
place = (392, 8);
type = Stem;
},
{
horizontal = 1;
place = (515, 9);
place = (515, 9);
type = Stem;
},
{
place = (48, 7);
place = (48, 7);
type = Stem;
}
);
layerId = m01;
shapes = (
{
closed = 1;
nodes = (
(55,400,l),
(30,400,l),
(30,392,l),
(39,392,o),
(48,384,o),
(48,375,cs),
(48,-134,ls),
(48,-166,o),
(21,-192,o),
(-11,-192,c),
(-11,-200,l),
(25,-200,o),
(55,-170,o),
(55,-134,cs)
);
},
{
closed = 1;
nodes = (
(7,448,l),
(15,448,l),
(47,515,l),
(78,448,l),
(86,448,l),
(51,524,l),
(43,524,l)
);
}
);
width = 80;
}
);
note = jcircumflex;
unicode = 309;
},
{
glyphname = k;
kernRight = k;
layers = (
{
hints = (
{
horizontal = 1;
place = (0, 8);
place = (0, 8);
type = Stem;
},
{
horizontal = 1;
place = (392, 8);
place = (392, 8);
type = Stem;
},
{
horizontal = 1;
place = (593, 7);
place = (593, 7);
type = Stem;
},
{
place = (46, 153);
place = (46, 153);
type = Stem;
},
{
place = (46, 8);
place = (46, 8);
type = Stem;
},
{
place = (148, 51);
place = (148, 51);
type = Stem;
}
);
layerId = m01;
shapes = (
{
closed = 1;
nodes = (
(199,400,l),
(148,400,l),
(148,392,l),
(169,392,l),
(54,212,l),
(54,600,l),
(29,600,l),
(29,593,l),
(39,593,o),
(46,585,o),
(46,576,cs),
(46,8,l),
(25,8,l),
(25,0,l),
(76,0,l),
(76,8,l),
(64,8,o),
(54,17,o),
(54,29,cs),
(54,198,l),
(86,249,l),
(170,8,l),
(148,8,l),
(148,0,l),
(199,0,l),
(199,8,l),
(194,8,ls),
(185,8,o),
(176,13,o),
(173,22,cs),
(91,257,l),
(171,382,ls),
(175,389,o),
(182,392,o),
(190,392,cs),
(199,392,l)
);
}
);
width = 224;
}
);
note = k;
unicode = 107;
},
{
glyphname = l;
kernLeft = l;
kernRight = l;
layers = (
{
hints = (
{
horizontal = 1;
place = (0, 8);
place = (0, 8);
type = Stem;
},
{
horizontal = 1;
place = (593, 7);
place = (593, 7);
type = Stem;
},
{
place = (47, 8);
place = (47, 8);
type = Stem;
}
);
layerId = m01;
shapes = (
{
closed = 1;
nodes = (
(55,600,l),
(30,600,l),
(30,593,l),
(39,593,o),
(47,585,o),
(47,576,cs),
(47,8,l),
(25,8,l),
(25,0,l),
(76,0,l),
(76,8,l),
(64,8,o),
(55,17,o),
(55,29,cs)
);
}
);
width = 101;
}
);
note = l;
unicode = 108;
},
{
glyphname = m;
kernLeft = m;
kernRight = m;
layers = (
{
hints = (
{
horizontal = 1;
place = (0, 8);
place = (0, 8);
type = Stem;
},
{
horizontal = 1;
place = (399, 8);
place = (399, 8);
type = Stem;
},
{
place = (46, 7);
place = (46, 7);
type = Stem;
},
{
place = (158, 7);
place = (158, 7);
type = Stem;
},
{
place = (270, 7);
place = (270, 7);
type = Stem;
},
{
horizontal = 1;
place = (399, 7);
place = (399, 7);
type = Stem;
}
);
layerId = m01;
shapes = (
{
closed = 1;
nodes = (
(277,345,ls),
(277,376,o),
(255,403,o),
(225,406,cs),
(196,410,o),
(171,393,o),
(162,368,c),
(153,391,o),
(131,407,o),
(106,407,cs),
(83,407,o),
(64,395,o),
(53,376,c),
(53,400,l),
(46,400,l),
(46,8,l),
(25,8,l),
(25,0,l),
(76,0,l),
(76,8,l),
(63,8,o),
(53,17,o),
(53,29,cs),
(53,345,ls),
(53,372,o),
(73,396,o),
(100,399,cs),
(131,402,o),
(158,378,o),
(158,348,cs),
(158,8,l),
(136,8,l),
(136,0,l),
(187,0,l),
(187,8,l),
(175,8,o),
(165,17,o),
(165,29,cs),
(165,347,ls),
(165,378,o),
(192,402,o),
(223,399,cs),
(250,396,o),
(270,372,o),
(270,345,cs),
(270,8,l),
(248,8,l),
(248,0,l),
(299,0,l),
(299,8,l),
(287,8,o),
(277,17,o),
(277,29,cs)
);
}
);
width = 324;
}
);
note = m;
unicode = 109;
},
{
glyphname = n;
kernLeft = n;
layers = (
{
hints = (
{
horizontal = 1;
place = (0, 8);
place = (0, 8);
type = Stem;
},
{
horizontal = 1;
place = (399, 7);
place = (399, 7);
type = Stem;
},
{
place = (32, 7);
place = (32, 7);
type = Stem;
},
{
place = (144, 7);
place = (144, 7);
type = Stem;
}
);
layerId = m01;
shapes = (
{
closed = 1;
nodes = (
(151,345,ls),
(151,375,o),
(130,402,o),
(100,406,cs),
(74,410,o),
(51,397,o),
(39,376,c),
(39,400,l),
(32,400,l),
(32,8,l),
(10,8,l),
(10,0,l),
(61,0,l),
(61,8,l),
(49,8,o),
(39,17,o),
(39,29,cs),
(39,345,ls),
(39,372,o),
(59,397,o),
(86,399,cs),
(117,402,o),
(144,378,o),
(144,347,cs),
(144,8,l),
(122,8,l),
(122,0,l),
(173,0,l),
(173,8,l),
(161,8,o),
(151,17,o),
(151,29,cs)
);
}
);
width = 191;
}
);
note = n;
unicode = 110;
},
{
glyphname = ntilde;
kernLeft = n;
layers = (
{
hints = (
{
horizontal = 1;
place = (0, 8);
place = (0, 8);
type = Stem;
},
{
horizontal = 1;
place = (399, 7);
place = (399, 7);
type = Stem;
},
{
place = (32, 7);
place = (32, 7);
type = Stem;
},
{
place = (144, 7);
place = (144, 7);
type = Stem;
}
);
layerId = m01;
shapes = (
{
closed = 1;
nodes = (
(151,345,ls),
(151,375,o),
(130,402,o),
(100,406,cs),
(74,410,o),
(51,397,o),
(39,376,c),
(39,400,l),
(32,400,l),
(32,8,l),
(10,8,l),
(10,0,l),
(61,0,l),
(61,8,l),
(49,8,o),
(39,17,o),
(39,29,cs),
(39,345,ls),
(39,372,o),
(59,397,o),
(86,399,cs),
(117,402,o),
(144,378,o),
(144,347,cs),
(144,8,l),
(122,8,l),
(122,0,l),
(173,0,l),
(173,8,l),
(161,8,o),
(151,17,o),
(151,29,cs)
);
},
{
closed = 1;
nodes = (
(28,455,l),
(29,457,o),
(44,490,o),
(68,493,cs),
(81,494,o),
(94,487,o),
(105,472,cs),
(114,460,o),
(124,455,o),
(133,456,cs),
(151,457,o),
(165,485,o),
(165,485,c),
(172,482,l),
(171,481,o),
(156,450,o),
(133,448,cs),
(131,448,ls),
(120,448,o),
(109,454,o),
(99,467,cs),
(89,480,o),
(79,486,o),
(69,485,cs),
(49,483,o),
(35,452,o),
(35,452,c)
);
}
);
width = 191;
}
);
note = ntilde;
unicode = 241;
},
{
glyphname = o;
kernLeft = o;
kernRight = o;
layers = (
{
hints = (
{
horizontal = 1;
place = (-8, 8);
place = (-8, 8);
type = Stem;
},
{
horizontal = 1;
place = (399, 8);
place = (399, 8);
type = Stem;
},
{
place = (25, 8);
place = (25, 8);
type = Stem;
},
{
place = (150, 8);
place = (150, 8);
type = Stem;
}
);
layerId = m01;
shapes = (
{
closed = 1;
nodes = (
(150,58,ls),
(150,42,o),
(144,28,o),
(133,17,cs),
(122,6,o),
(107,0,o),
(91,0,cs),
(59,0,o),
(33,26,o),
(33,58,cs),
(33,340,ls),
(33,373,o),
(59,399,o),
(91,399,cs),
(124,399,o),
(150,373,o),
(150,340,cs)
);
},
{
closed = 1;
nodes = (
(25,58,ls),
(25,22,o),
(55,-8,o),
(91,-8,cs),
(109,-8,o),
(126,-1,o),
(138,11,cs),
(151,24,o),
(158,40,o),
(158,58,cs),
(158,340,ls),
(158,377,o),
(128,407,o),
(91,407,cs),
(55,407,o),
(25,377,o),
(25,340,cs)
);
}
);
width = 183;
}
);
note = o;
unicode = 111;
},
{
glyphname = oacute;
kernLeft = o;
kernRight = o;
layers = (
{
hints = (
{
horizontal = 1;
place = (-8, 8);
place = (-8, 8);
type = Stem;
},
{
horizontal = 1;
place = (399, 8);
place = (399, 8);
type = Stem;
},
{
place = (25, 8);
place = (25, 8);
type = Stem;
},
{
place = (150, 8);
place = (150, 8);
type = Stem;
}
);
layerId = m01;
shapes = (
{
closed = 1;
nodes = (
(150,58,ls),
(150,42,o),
(144,28,o),
(133,17,cs),
(122,6,o),
(107,0,o),
(91,0,cs),
(59,0,o),
(33,26,o),
(33,58,cs),
(33,340,ls),
(33,373,o),
(59,399,o),
(91,399,cs),
(124,399,o),
(150,373,o),
(150,340,cs)
);
},
{
closed = 1;
nodes = (
(25,58,ls),
(25,22,o),
(55,-8,o),
(91,-8,cs),
(109,-8,o),
(126,-1,o),
(138,11,cs),
(151,24,o),
(158,40,o),
(158,58,cs),
(158,340,ls),
(158,377,o),
(128,407,o),
(91,407,cs),
(55,407,o),
(25,377,o),
(25,340,cs)
);
},
{
closed = 1;
nodes = (
(69,448,l),
(77,448,l),
(113,524,l),
(105,524,l)
);
}
);
width = 183;
}
);
note = oacute;
unicode = 243;
},
{
glyphname = ocircumflex;
kernLeft = o;
kernRight = o;
layers = (
{
hints = (
{
horizontal = 1;
place = (-8, 8);
place = (-8, 8);
type = Stem;
},
{
horizontal = 1;
place = (399, 8);
place = (399, 8);
type = Stem;
},
{
horizontal = 1;
place = (515, 9);
place = (515, 9);
type = Stem;
},
{
place = (25, 8);
place = (25, 8);
type = Stem;
},
{
place = (150, 8);
place = (150, 8);
type = Stem;
}
);
layerId = m01;
shapes = (
{
closed = 1;
nodes = (
(150,58,ls),
(150,42,o),
(144,28,o),
(133,17,cs),
(122,6,o),
(107,0,o),
(91,0,cs),
(59,0,o),
(33,26,o),
(33,58,cs),
(33,340,ls),
(33,373,o),
(59,399,o),
(91,399,cs),
(124,399,o),
(150,373,o),
(150,340,cs)
);
},
{
closed = 1;
nodes = (
(25,58,ls),
(25,22,o),
(55,-8,o),
(91,-8,cs),
(109,-8,o),
(126,-1,o),
(138,11,cs),
(151,24,o),
(158,40,o),
(158,58,cs),
(158,340,ls),
(158,377,o),
(128,407,o),
(91,407,cs),
(55,407,o),
(25,377,o),
(25,340,cs)
);
},
{
closed = 1;
nodes = (
(52,448,l),
(60,448,l),
(92,515,l),
(123,448,l),
(131,448,l),
(96,524,l),
(88,524,l)
);
}
);
width = 183;
}
);
note = ocircumflex;
unicode = 244;
},
{
glyphname = odieresis;
kernLeft = o;
kernRight = o;
layers = (
{
hints = (
{
horizontal = 1;
place = (-8, 8);
place = (-8, 8);
type = Stem;
},
{
horizontal = 1;
place = (399, 8);
place = (399, 8);
type = Stem;
},
{
place = (25, 8);
place = (25, 8);
type = Stem;
},
{
place = (150, 8);
place = (150, 8);
type = Stem;
},
{
horizontal = 1;
place = (468, 30);
place = (468, 30);
type = Stem;
},
{
place = (26, 30);
place = (26, 30);
type = Stem;
},
{
place = (119, 30);
place = (119, 30);
type = Stem;
}
);
layerId = m01;
shapes = (
{
closed = 1;
nodes = (
(150,58,ls),
(150,42,o),
(144,28,o),
(133,17,cs),
(122,6,o),
(107,0,o),
(91,0,cs),
(59,0,o),
(33,26,o),
(33,58,cs),
(33,340,ls),
(33,373,o),
(59,399,o),
(91,399,cs),
(124,399,o),
(150,373,o),
(150,340,cs)
);
},
{
closed = 1;
nodes = (
(25,58,ls),
(25,22,o),
(55,-8,o),
(91,-8,cs),
(109,-8,o),
(126,-1,o),
(138,11,cs),
(151,24,o),
(158,40,o),
(158,58,cs),
(158,340,ls),
(158,377,o),
(128,407,o),
(91,407,cs),
(55,407,o),
(25,377,o),
(25,340,cs)
);
},
{
closed = 1;
nodes = (
(26,475,o),
(33,468,o),
(41,468,cs),
(49,468,o),
(56,475,o),
(56,483,cs),
(56,491,o),
(49,498,o),
(41,498,cs),
(33,498,o),
(26,491,o),
(26,483,cs)
);
},
{
closed = 1;
nodes = (
(119,475,o),
(126,468,o),
(134,468,cs),
(142,468,o),
(149,475,o),
(149,483,cs),
(149,491,o),
(142,498,o),
(134,498,cs),
(126,498,o),
(119,491,o),
(119,483,cs)
);
}
);
width = 183;
}
);
note = odieresis;
unicode = 246;
},
{
glyphname = ograve;
kernLeft = o;
kernRight = o;
layers = (
{
hints = (
{
horizontal = 1;
place = (-8, 8);
place = (-8, 8);
type = Stem;
},
{
horizontal = 1;
place = (399, 8);
place = (399, 8);
type = Stem;
},
{
place = (25, 8);
place = (25, 8);
type = Stem;
},
{
place = (150, 8);
place = (150, 8);
type = Stem;
}
);
layerId = m01;
shapes = (
{
closed = 1;
nodes = (
(150,58,ls),
(150,42,o),
(144,28,o),
(133,17,cs),
(122,6,o),
(107,0,o),
(91,0,cs),
(59,0,o),
(33,26,o),
(33,58,cs),
(33,340,ls),
(33,373,o),
(59,399,o),
(91,399,cs),
(124,399,o),
(150,373,o),
(150,340,cs)
);
},
{
closed = 1;
nodes = (
(25,58,ls),
(25,22,o),
(55,-8,o),
(91,-8,cs),
(109,-8,o),
(126,-1,o),
(138,11,cs),
(151,24,o),
(158,40,o),
(158,58,cs),
(158,340,ls),
(158,377,o),
(128,407,o),
(91,407,cs),
(55,407,o),
(25,377,o),
(25,340,cs)
);
},
{
closed = 1;
nodes = (
(60,524,l),
(95,448,l),
(103,448,l),
(68,524,l)
);
}
);
width = 183;
}
);
note = ograve;
unicode = 242;
},
{
glyphname = omacron;
kernLeft = o;
kernRight = o;
layers = (
{
hints = (
{
horizontal = 1;
place = (-8, 8);
place = (-8, 8);
type = Stem;
},
{
horizontal = 1;
place = (399, 8);
place = (399, 8);
type = Stem;
},
{
horizontal = 1;
place = (478, 8);
place = (478, 8);
type = Stem;
},
{
place = (25, 8);
place = (25, 8);
type = Stem;
},
{
place = (150, 8);
place = (150, 8);
type = Stem;
}
);
layerId = m01;
shapes = (
{
closed = 1;
nodes = (
(150,58,ls),
(150,42,o),
(144,28,o),
(133,17,cs),
(122,6,o),
(107,0,o),
(91,0,cs),
(59,0,o),
(33,26,o),
(33,58,cs),
(33,340,ls),
(33,373,o),
(59,399,o),
(91,399,cs),
(124,399,o),
(150,373,o),
(150,340,cs)
);
},
{
closed = 1;
nodes = (
(25,58,ls),
(25,22,o),
(55,-8,o),
(91,-8,cs),
(109,-8,o),
(126,-1,o),
(138,11,cs),
(151,24,o),
(158,40,o),
(158,58,cs),
(158,340,ls),
(158,377,o),
(128,407,o),
(91,407,cs),
(55,407,o),
(25,377,o),
(25,340,cs)
);
},
{
closed = 1;
nodes = (
(30,478,l),
(160,478,l),
(160,486,l),
(30,486,l)
);
}
);
width = 183;
}
);
note = omacron;
unicode = 333;
},
{
glyphname = oslash;
kernLeft = o;
kernRight = o;
layers = (
{
hints = (
{
horizontal = 1;
place = (-8, 8);
place = (-8, 8);
type = Stem;
},
{
horizontal = 1;
place = (399, 8);
place = (399, 8);
type = Stem;
},
{
place = (24, 8);
place = (24, 8);
type = Stem;
},
{
place = (149, 8);
place = (149, 8);
type = Stem;
},
{
horizontal = 1;
place = (0, 21);
target = up;
type = BottomGhost;
}
);
layerId = m01;
shapes = (
{
closed = 1;
nodes = (
(149,58,ls),
(149,42,o),
(143,28,o),
(132,17,cs),
(121,6,o),
(106,0,o),
(90,0,cs),
(60,0,o),
(36,22,o),
(32,51,c),
(145,362,l),
(148,355,o),
(149,348,o),
(149,340,cs)
);
},
{
closed = 1;
nodes = (
(6,0,l),
(14,0,l),
(27,37,l),
(36,11,o),
(61,-8,o),
(90,-8,cs),
(108,-8,o),
(125,-1,o),
(137,11,cs),
(150,24,o),
(157,40,o),
(157,58,cs),
(157,340,ls),
(157,352,o),
(154,363,o),
(149,372,c),
(159,400,l),
(151,400,l),
(144,380,l),
(132,396,o),
(112,407,o),
(90,407,cs),
(54,407,o),
(24,377,o),
(24,340,cs),
(24,58,l),
(24,51,l)
);
},
{
closed = 1;
nodes = (
(32,72,l),
(32,340,ls),
(32,373,o),
(58,399,o),
(90,399,cs),
(112,399,o),
(130,388,o),
(140,371,c)
);
}
);
width = 203;
}
);
note = oslash;
unicode = 248;
},
{
glyphname = otilde;
kernLeft = o;
kernRight = o;
layers = (
{
hints = (
{
horizontal = 1;
place = (-8, 8);
place = (-8, 8);
type = Stem;
},
{
horizontal = 1;
place = (399, 8);
place = (399, 8);
type = Stem;
},
{
place = (25, 8);
place = (25, 8);
type = Stem;
},
{
place = (150, 8);
place = (150, 8);
type = Stem;
}
);
layerId = m01;
shapes = (
{
closed = 1;
nodes = (
(150,58,ls),
(150,42,o),
(144,28,o),
(133,17,cs),
(122,6,o),
(107,0,o),
(91,0,cs),
(59,0,o),
(33,26,o),
(33,58,cs),
(33,340,ls),
(33,373,o),
(59,399,o),
(91,399,cs),
(124,399,o),
(150,373,o),
(150,340,cs)
);
},
{
closed = 1;
nodes = (
(20,455,l),
(21,457,o),
(36,490,o),
(60,493,cs),
(73,494,o),
(86,487,o),
(97,472,cs),
(106,460,o),
(116,455,o),
(125,456,cs),
(143,457,o),
(157,485,o),
(157,485,c),
(164,482,l),
(163,481,o),
(148,450,o),
(125,448,cs),
(123,448,ls),
(112,448,o),
(101,454,o),
(91,467,cs),
(81,480,o),
(71,486,o),
(61,485,cs),
(41,483,o),
(27,452,o),
(27,452,c)
);
},
{
closed = 1;
nodes = (
(25,58,ls),
(25,22,o),
(55,-8,o),
(91,-8,cs),
(109,-8,o),
(126,-1,o),
(138,11,cs),
(151,24,o),
(158,40,o),
(158,58,cs),
(158,340,ls),
(158,377,o),
(128,407,o),
(91,407,cs),
(55,407,o),
(25,377,o),
(25,340,cs)
);
}
);
width = 183;
}
);
note = otilde;
unicode = 245;
},
{
glyphname = oe;
kernLeft = o;
kernRight = ae;
layers = (
{
hints = (
{
horizontal = 1;
place = (-8, 8);
place = (-8, 8);
type = Stem;
},
{
horizontal = 1;
place = (250, 7);
place = (250, 7);
type = Stem;
},
{
horizontal = 1;
place = (399, 8);
place = (399, 8);
type = Stem;
},
{
place = (25, 8);
place = (25, 8);
type = Stem;
},
{
place = (150, 8);
place = (150, 8);
type = Stem;
},
{
place = (276, 7);
place = (276, 7);
type = Stem;
}
);
layerId = m01;
shapes = (
{
closed = 1;
nodes = (
(150,58,ls),
(150,42,o),
(144,28,o),
(133,17,cs),
(122,6,o),
(107,0,o),
(91,0,cs),
(59,0,o),
(33,26,o),
(33,58,cs),
(33,340,ls),
(33,373,o),
(59,399,o),
(91,399,cs),
(124,399,o),
(150,373,o),
(150,340,cs)
);
},
{
closed = 1;
nodes = (
(25,58,ls),
(25,22,o),
(55,-8,o),
(91,-8,cs),
(109,-8,o),
(126,-1,o),
(138,11,cs),
(146,19,o),
(151,27,o),
(154,37,c),
(163,11,o),
(188,-8,o),
(217,-8,cs),
(235,-8,o),
(251,-1,o),
(264,11,cs),
(276,24,o),
(283,40,o),
(283,58,c),
(276,58,l),
(276,42,o),
(269,28,o),
(258,17,cs),
(247,6,o),
(233,0,o),
(217,0,cs),
(185,0,o),
(158,26,o),
(158,58,cs),
(158,340,ls),
(158,373,o),
(185,399,o),
(217,399,cs),
(249,399,o),
(276,373,o),
(276,340,cs),
(276,271,ls),
(276,263,o),
(270,257,o),
(262,257,cs),
(194,257,l),
(194,250,l),
(262,250,ls),
(274,250,o),
(283,259,o),
(283,271,cs),
(283,340,ls),
(283,377,o),
(254,407,o),
(217,407,cs),
(188,407,o),
(163,388,o),
(154,362,c),
(145,388,o),
(120,407,o),
(91,407,cs),
(55,407,o),
(25,377,o),
(25,340,cs)
);
}
);
width = 308;
}
);
note = oe;
unicode = 339;
},
{
glyphname = p;
kernLeft = p;
kernRight = p;
layers = (
{
hints = (
{
horizontal = 1;
place = (-200, 7);
place = (-200, 7);
type = Stem;
},
{
horizontal = 1;
place = (-7, 7);
place = (-7, 7);
type = Stem;
},
{
horizontal = 1;
place = (399, 8);
place = (399, 8);
type = Stem;
},
{
place = (47, 7);
place = (47, 7);
type = Stem;
},
{
place = (172, 7);
place = (172, 7);
type = Stem;
}
);
layerId = m01;
shapes = (
{
closed = 1;
nodes = (
(172,59,ls),
(172,27,o),
(145,0,o),
(113,0,cs),
(81,0,o),
(54,27,o),
(54,59,cs),
(54,340,ls),
(54,356,o),
(60,371,o),
(72,382,cs),
(83,393,o),
(97,399,o),
(113,399,cs),
(145,399,o),
(172,373,o),
(172,340,cs)
);
},
{
closed = 1;
nodes = (
(25,-200,l),
(76,-200,l),
(76,-193,l),
(64,-193,o),
(54,-183,o),
(54,-171,cs),
(54,29,l),
(66,6,o),
(91,-9,o),
(119,-7,cs),
(153,-4,o),
(179,27,o),
(179,62,cs),
(179,340,ls),
(179,377,o),
(149,407,o),
(113,407,cs),
(105,407,o),
(98,406,o),
(91,403,cs),
(74,396,o),
(61,385,o),
(54,371,c),
(54,400,l),
(47,400,l),
(47,-193,l),
(25,-193,l)
);
}
);
width = 204;
}
);
note = p;
unicode = 112;
},
{
glyphname = thorn;
kernLeft = p;
kernRight = p;
layers = (
{
hints = (
{
horizontal = 1;
place = (-200, 7);
place = (-200, 7);
type = Stem;
},
{
horizontal = 1;
place = (-7, 7);
place = (-7, 7);
type = Stem;
},
{
horizontal = 1;
place = (279, 8);
place = (279, 8);
type = Stem;
},
{
horizontal = 1;
place = (393, 7);
place = (393, 7);
type = Stem;
},
{
place = (47.5, 7.5);
place = (47.5, 7.5);
type = Stem;
},
{
place = (172, 7);
place = (172, 7);
type = Stem;
},
{
place = (25, 29);
place = (25, 29);
type = Stem;
},
{
place = (47.5, 28.5);
place = (47.5, 28.5);
type = Stem;
}
);
layerId = m01;
shapes = (
{
closed = 1;
nodes = (
(172,59,ls),
(172,27,o),
(145,0,o),
(113,0,cs),
(81,0,o),
(54,27,o),
(54,59,cs),
(54,220,ls),
(54,236,o),
(60,251,o),
(72,262,cs),
(83,273,o),
(97,279,o),
(113,279,cs),
(145,279,o),
(172,253,o),
(172,220,cs)
);
},
{
closed = 1;
nodes = (
(25,-200,l),
(76,-200,l),
(76,-193,l),
(64,-193,o),
(54,-183,o),
(54,-171,cs),
(54,29,l),
(65,7,o),
(88,-7,o),
(114,-7,cs),
(150,-7,o),
(179,25,o),
(179,62,cs),
(179,220,ls),
(179,257,o),
(149,287,o),
(113,287,cs),
(105,287,o),
(98,286,o),
(91,283,cs),
(74,276,o),
(61,265,o),
(54,251,c),
(55,371,ls),
(55,383,o),
(65,393,o),
(77,393,c),
(77,400,l),
(26,400,l),
(26,393,l),
(48,393,l),
(47,-193,l),
(25,-193,l)
);
}
);
width = 204;
}
);
note = thorn;
unicode = 254;
},
{
glyphname = q;
kernLeft = q;
kernRight = q;
layers = (
{
hints = (
{
horizontal = 1;
place = (-200, 7);
place = (-200, 7);
type = Stem;
},
{
horizontal = 1;
place = (-8, 8);
place = (-8, 8);
type = Stem;
},
{
horizontal = 1;
place = (399, 8);
place = (399, 8);
type = Stem;
},
{
place = (25, 8);
place = (25, 8);
type = Stem;
},
{
place = (150, 8);
place = (150, 8);
type = Stem;
}
);
layerId = m01;
shapes = (
{
closed = 1;
nodes = (
(59,0,o),
(33,26,o),
(33,58,cs),
(33,341,ls),
(33,373,o),
(59,399,o),
(91,399,cs),
(107,399,o),
(122,393,o),
(133,382,cs),
(144,371,o),
(150,356,o),
(150,341,cs),
(150,58,ls),
(150,26,o),
(124,0,o),
(92,0,cs)
);
},
{
closed = 1;
nodes = (
(25,61,ls),
(25,26,o),
(51,-5,o),
(86,-8,cs),
(114,-10,o),
(138,5,o),
(150,28,c),
(150,-193,l),
(129,-193,l),
(129,-200,l),
(180,-200,l),
(180,-193,l),
(168,-193,o),
(158,-183,o),
(158,-171,cs),
(158,400,l),
(150,400,l),
(150,371,l),
(143,385,o),
(131,397,o),
(114,403,cs),
(107,406,o),
(99,407,o),
(91,407,cs),
(55,407,o),
(25,377,o),
(25,341,cs)
);
}
);
width = 205;
}
);
note = q;
unicode = 113;
},
{
glyphname = r;
kernLeft = r;
kernRight = r;
layers = (
{
hints = (
{
horizontal = 1;
place = (0, 8);
place = (0, 8);
type = Stem;
},
{
horizontal = 1;
place = (399, 8);
place = (399, 8);
type = Stem;
},
{
place = (34, 8);
place = (34, 8);
type = Stem;
},
{
place = (146, 7);
place = (146, 7);
type = Stem;
}
);
layerId = m01;
shapes = (
{
closed = 1;
nodes = (
(71,407,o),
(52,395,o),
(42,376,c),
(42,400,l),
(34,400,l),
(34,8,l),
(12,8,l),
(12,0,l),
(63,0,l),
(63,8,l),
(51,8,o),
(42,17,o),
(42,29,cs),
(42,345,ls),
(42,372,o),
(61,397,o),
(88,399,cs),
(120,402,o),
(146,378,o),
(146,347,c),
(153,347,l),
(153,380,o),
(127,407,o),
(94,407,cs)
);
}
);
width = 161;
}
);
note = r;
unicode = 114;
},
{
glyphname = racute;
kernLeft = r;
kernRight = r;
layers = (
{
hints = (
{
horizontal = 1;
place = (0, 8);
place = (0, 8);
type = Stem;
},
{
horizontal = 1;
place = (399, 8);
place = (399, 8);
type = Stem;
},
{
place = (34, 8);
place = (34, 8);
type = Stem;
},
{
place = (146, 7);
place = (146, 7);
type = Stem;
}
);
layerId = m01;
shapes = (
{
closed = 1;
nodes = (
(71,407,o),
(52,395,o),
(42,376,c),
(42,400,l),
(34,400,l),
(34,8,l),
(12,8,l),
(12,0,l),
(63,0,l),
(63,8,l),
(51,8,o),
(42,17,o),
(42,29,cs),
(42,345,ls),
(42,372,o),
(61,397,o),
(88,399,cs),
(120,402,o),
(146,378,o),
(146,347,c),
(153,347,l),
(153,380,o),
(127,407,o),
(94,407,cs)
);
},
{
closed = 1;
nodes = (
(78,448,l),
(86,448,l),
(122,524,l),
(114,524,l)
);
}
);
width = 161;
}
);
note = racute;
unicode = 341;
},
{
glyphname = s;
kernLeft = s;
layers = (
{
hints = (
{
horizontal = 1;
place = (-8, 8);
place = (-8, 8);
type = Stem;
},
{
horizontal = 1;
place = (96, 7);
place = (96, 7);
type = Stem;
},
{
place = (27, 8);
place = (27, 8);
type = Stem;
},
{
place = (151, 8);
place = (151, 8);
type = Stem;
},
{
place = (27, 7);
place = (27, 7);
type = Stem;
}
);
layerId = m01;
shapes = (
{
closed = 1;
nodes = (
(75,267,ls),
(52,282,o),
(37,307,o),
(35,335,cs),
(33,364,o),
(50,391,o),
(79,398,cs),
(117,407,o),
(151,378,o),
(151,342,cs),
(151,309,l),
(159,309,l),
(159,339,ls),
(159,373,o),
(135,402,o),
(102,407,cs),
(61,412,o),
(27,381,o),
(27,342,cs),
(27,309,o),
(44,278,o),
(71,261,cs),
(110,236,ls),
(136,219,o),
(152,190,o),
(152,158,cs),
(151,58,ls),
(151,26,o),
(126,1,o),
(94,0,cs),
(61,-2,o),
(34,27,o),
(34,60,cs),
(34,96,l),
(56,96,l),
(56,103,l),
(5,103,l),
(5,96,l),
(17,96,o),
(27,86,o),
(27,74,cs),
(27,58,ls),
(27,21,o),
(56,-8,o),
(93,-8,cs),
(129,-8,o),
(159,21,o),
(159,58,cs),
(159,158,ls),
(159,192,o),
(142,224,o),
(114,242,cs)
);
}
);
width = 184;
}
);
note = s;
unicode = 115;
},
{
glyphname = saltillo;
layers = (
{
hints = (
{
horizontal = 1;
place = (607, -20);
target = down;
type = TopGhost;
},
{
place = (25, 7);
place = (25, 7);
type = Stem;
}
);
layerId = m01;
shapes = (
{
closed = 1;
nodes = (
(32,607,l),
(25,607,l),
(25,514,l),
(32,514,l)
);
}
);
width = 57;
}
);
note = uniA78C;
unicode = 42892;
},
{
glyphname = scedilla;
kernLeft = s;
layers = (
{
hints = (
{
horizontal = 1;
place = (-152, 7);
place = (-152, 7);
type = Stem;
},
{
horizontal = 1;
place = (-82, 7);
place = (-82, 7);
type = Stem;
},
{
horizontal = 1;
place = (-8, 8);
place = (-8, 8);
type = Stem;
},
{
horizontal = 1;
place = (96, 7);
place = (96, 7);
type = Stem;
},
{
place = (27, 8);
place = (27, 8);
type = Stem;
},
{
place = (151, 8);
place = (151, 8);
type = Stem;
},
{
place = (27, 7);
place = (27, 7);
type = Stem;
},
{
place = (55, 7);
place = (55, 7);
type = Stem;
},
{
place = (142, 8);
place = (142, 8);
type = Stem;
}
);
layerId = m01;
shapes = (
{
closed = 1;
nodes = (
(75,267,ls),
(52,282,o),
(37,307,o),
(35,335,cs),
(33,364,o),
(50,391,o),
(79,398,cs),
(117,407,o),
(151,378,o),
(151,342,cs),
(151,309,l),
(159,309,l),
(159,339,ls),
(159,373,o),
(135,402,o),
(102,407,cs),
(61,412,o),
(27,381,o),
(27,342,cs),
(27,309,o),
(44,278,o),
(71,261,cs),
(110,236,ls),
(136,219,o),
(152,190,o),
(152,158,cs),
(151,58,ls),
(151,26,o),
(126,1,o),
(94,0,cs),
(61,-2,o),
(34,27,o),
(34,60,cs),
(34,96,l),
(56,96,l),
(56,103,l),
(5,103,l),
(5,96,l),
(17,96,o),
(27,86,o),
(27,74,cs),
(27,58,ls),
(27,23,o),
(54,-6,o),
(89,-8,c),
(55,-70,ls),
(52,-76,o),
(56,-82,o),
(64,-82,cs),
(111,-82,ls),
(128,-82,o),
(142,-96,o),
(142,-114,cs),
(142,-131,o),
(128,-145,o),
(111,-145,cs),
(52,-145,l),
(52,-152,l),
(111,-152,ls),
(132,-152,o),
(150,-135,o),
(150,-114,cs),
(150,-92,o),
(132,-75,o),
(111,-75,cs),
(64,-75,ls),
(62,-75,o),
(61,-74,o),
(62,-72,cs),
(97,-8,l),
(131,-6,o),
(159,22,o),
(159,58,cs),
(159,158,ls),
(159,192,o),
(142,224,o),
(114,242,cs)
);
}
);
width = 184;
}
);
note = scedilla;
unicode = 351;
},
{
glyphname = scircumflex;
kernLeft = s;
layers = (
{
hints = (
{
horizontal = 1;
place = (-8, 8);
place = (-8, 8);
type = Stem;
},
{
horizontal = 1;
place = (96, 7);
place = (96, 7);
type = Stem;
},
{
place = (27, 8);
place = (27, 8);
type = Stem;
},
{
place = (151, 8);
place = (151, 8);
type = Stem;
},
{
place = (27, 7);
place = (27, 7);
type = Stem;
},
{
horizontal = 1;
place = (515, 9);
place = (515, 9);
type = Stem;
}
);
layerId = m01;
shapes = (
{
closed = 1;
nodes = (
(75,267,ls),
(52,282,o),
(37,307,o),
(35,335,cs),
(33,364,o),
(50,391,o),
(79,398,cs),
(117,407,o),
(151,378,o),
(151,342,cs),
(151,309,l),
(159,309,l),
(159,339,ls),
(159,373,o),
(135,402,o),
(102,407,cs),
(61,412,o),
(27,381,o),
(27,342,cs),
(27,309,o),
(44,278,o),
(71,261,cs),
(110,236,ls),
(136,219,o),
(152,190,o),
(152,158,cs),
(151,58,ls),
(151,26,o),
(126,1,o),
(94,0,cs),
(61,-2,o),
(34,27,o),
(34,60,cs),
(34,96,l),
(56,96,l),
(56,103,l),
(5,103,l),
(5,96,l),
(17,96,o),
(27,86,o),
(27,74,cs),
(27,58,ls),
(27,21,o),
(56,-8,o),
(93,-8,cs),
(129,-8,o),
(159,21,o),
(159,58,cs),
(159,158,ls),
(159,192,o),
(142,224,o),
(114,242,cs)
);
},
{
closed = 1;
nodes = (
(55,448,l),
(63,448,l),
(95,515,l),
(126,448,l),
(134,448,l),
(99,524,l),
(91,524,l)
);
}
);
width = 184;
}
);
note = scircumflex;
unicode = 349;
},
{
glyphname = scommaaccent;
kernLeft = s;
layers = (
{
hints = (
{
horizontal = 1;
place = (-8, 8);
place = (-8, 8);
type = Stem;
},
{
horizontal = 1;
place = (96, 7);
place = (96, 7);
type = Stem;
},
{
place = (29, 8);
place = (29, 8);
type = Stem;
},
{
place = (153, 8);
place = (153, 8);
type = Stem;
},
{
place = (29, 7);
place = (29, 7);
type = Stem;
}
);
layerId = m01;
shapes = (
{
closed = 1;
nodes = (
(77,267,ls),
(54,282,o),
(39,307,o),
(37,335,cs),
(35,364,o),
(52,391,o),
(81,398,cs),
(119,407,o),
(153,378,o),
(153,342,cs),
(153,309,l),
(161,309,l),
(161,339,ls),
(161,373,o),
(137,402,o),
(104,407,cs),
(63,412,o),
(29,381,o),
(29,342,cs),
(29,309,o),
(46,278,o),
(73,261,cs),
(112,236,ls),
(138,219,o),
(154,190,o),
(154,158,cs),
(153,58,ls),
(153,26,o),
(128,1,o),
(96,0,cs),
(63,-2,o),
(36,27,o),
(36,60,cs),
(36,96,l),
(58,96,l),
(58,103,l),
(7,103,l),
(7,96,l),
(19,96,o),
(29,86,o),
(29,74,cs),
(29,58,ls),
(29,21,o),
(58,-8,o),
(95,-8,cs),
(131,-8,o),
(161,21,o),
(161,58,cs),
(161,158,ls),
(161,192,o),
(144,224,o),
(116,242,cs)
);
},
{
closed = 1;
nodes = (
(71,-127,l),
(79,-127,l),
(115,-51,l),
(107,-51,l)
);
}
);
width = 186;
}
);
note = uni0219;
unicode = 537;
},
{
glyphname = germandbls;
layers = (
{
hints = (
{
horizontal = 1;
place = (0, 8);
place = (0, 8);
type = Stem;
},
{
horizontal = 1;
place = (400, 7);
place = (400, 7);
type = Stem;
},
{
horizontal = 1;
place = (592, 8);
place = (592, 8);
type = Stem;
},
{
place = (46, 8);
place = (46, 8);
type = Stem;
},
{
place = (173, 8);
place = (173, 8);
type = Stem;
}
);
layerId = m01;
shapes = (
{
closed = 1;
nodes = (
(142,-8,l),
(165,8,o),
(181,35,o),
(181,66,cs),
(181,318,ls),
(181,359,o),
(154,393,o),
(117,404,c),
(154,414,o),
(181,448,o),
(181,489,cs),
(181,511,ls),
(181,560,o),
(141,600,o),
(92,600,cs),
(67,600,ls),
(56,600,o),
(46,590,o),
(46,579,cs),
(46,8,l),
(25,8,l),
(25,0,l),
(76,0,l),
(76,8,l),
(63,8,o),
(54,17,o),
(54,29,cs),
(54,579,ls),
(54,586,o),
(60,592,o),
(67,592,cs),
(92,592,ls),
(137,592,o),
(173,556,o),
(173,511,cs),
(173,489,ls),
(173,444,o),
(137,407,o),
(92,407,c),
(92,400,l),
(137,400,o),
(173,363,o),
(173,318,cs),
(173,66,ls),
(173,39,o),
(160,14,o),
(139,0,c)
);
}
);
width = 206;
}
);
note = germandbls;
unicode = 223;
},
{
glyphname = t;
kernLeft = t;
kernRight = t;
layers = (
{
hints = (
{
horizontal = 1;
place = (-8, 8);
place = (-8, 8);
type = Stem;
},
{
horizontal = 1;
place = (392, 8);
place = (392, 8);
type = Stem;
},
{
horizontal = 1;
place = (591, 8);
place = (591, 8);
type = Stem;
},
{
place = (51, 8);
place = (51, 8);
type = Stem;
}
);
layerId = m01;
shapes = (
{
closed = 1;
nodes = (
(59,400,l),
(59,599,l),
(34,599,l),
(34,591,l),
(44,591,o),
(51,584,o),
(51,574,cs),
(51,400,l),
(7,400,l),
(7,392,l),
(51,392,l),
(51,58,ls),
(51,22,o),
(81,-8,o),
(117,-8,c),
(117,0,l),
(85,0,o),
(59,26,o),
(59,58,cs),
(59,392,l),
(117,392,l),
(117,400,l)
);
}
);
width = 138;
}
);
note = t;
unicode = 116;
},
{
glyphname = tcommaaccent;
kernLeft = t;
kernRight = t;
layers = (
{
hints = (
{
horizontal = 1;
place = (-8, 8);
place = (-8, 8);
type = Stem;
},
{
horizontal = 1;
place = (392, 8);
place = (392, 8);
type = Stem;
},
{
horizontal = 1;
place = (591, 8);
place = (591, 8);
type = Stem;
},
{
place = (69, 8);
place = (69, 8);
type = Stem;
}
);
layerId = m01;
shapes = (
{
closed = 1;
nodes = (
(106,-51,l),
(98,-51,l),
(62,-127,l),
(70,-127,l)
);
},
{
closed = 1;
nodes = (
(25,392,l),
(69,392,l),
(69,58,ls),
(69,22,o),
(99,-8,o),
(135,-8,c),
(135,0,l),
(103,0,o),
(77,26,o),
(77,58,cs),
(77,392,l),
(135,392,l),
(135,400,l),
(77,400,l),
(77,599,l),
(52,599,l),
(52,591,l),
(62,591,o),
(69,584,o),
(69,574,cs),
(69,400,l),
(25,400,l)
);
}
);
width = 211;
}
);
note = uni021B;
unicode = 539;
},
{
glyphname = u;
kernLeft = u;
kernRight = u;
layers = (
{
hints = (
{
horizontal = 1;
place = (-8, 8);
place = (-8, 8);
type = Stem;
},
{
horizontal = 1;
place = (392, 8);
place = (392, 8);
type = Stem;
},
{
place = (47, 7);
place = (47, 7);
type = Stem;
},
{
place = (159, 7);
place = (159, 7);
type = Stem;
},
{
horizontal = 1;
place = (0, 21);
target = up;
type = BottomGhost;
}
);
layerId = m01;
shapes = (
{
closed = 1;
nodes = (
(137,400,l),
(137,392,l),
(159,392,l),
(159,54,ls),
(159,27,o),
(139,2,o),
(112,0,cs),
(81,-3,o),
(54,21,o),
(54,52,cs),
(54,370,ls),
(54,382,o),
(64,392,o),
(76,392,c),
(76,400,l),
(25,400,l),
(25,392,l),
(47,392,l),
(47,54,ls),
(47,24,o),
(68,-4,o),
(98,-8,cs),
(124,-11,o),
(147,2,o),
(159,23,c),
(159,0,l),
(166,0,l),
(166,370,ls),
(166,382,o),
(176,392,o),
(188,392,c),
(188,400,l)
);
}
);
width = 213;
}
);
note = u;
unicode = 117;
},
{
glyphname = uacute;
kernLeft = u;
kernRight = u;
layers = (
{
hints = (
{
horizontal = 1;
place = (-8, 8);
place = (-8, 8);
type = Stem;
},
{
horizontal = 1;
place = (392, 8);
place = (392, 8);
type = Stem;
},
{
place = (47, 7);
place = (47, 7);
type = Stem;
},
{
place = (159, 7);
place = (159, 7);
type = Stem;
},
{
horizontal = 1;
place = (0, 21);
target = up;
type = BottomGhost;
}
);
layerId = m01;
shapes = (
{
closed = 1;
nodes = (
(137,400,l),
(137,392,l),
(159,392,l),
(159,54,ls),
(159,27,o),
(139,2,o),
(112,0,cs),
(81,-3,o),
(54,21,o),
(54,52,cs),
(54,370,ls),
(54,382,o),
(64,392,o),
(76,392,c),
(76,400,l),
(25,400,l),
(25,392,l),
(47,392,l),
(47,54,ls),
(47,24,o),
(68,-4,o),
(98,-8,cs),
(124,-11,o),
(147,2,o),
(159,23,c),
(159,0,l),
(166,0,l),
(166,370,ls),
(166,382,o),
(176,392,o),
(188,392,c),
(188,400,l)
);
},
{
closed = 1;
nodes = (
(92,448,l),
(100,448,l),
(136,524,l),
(128,524,l)
);
}
);
width = 213;
}
);
note = uacute;
unicode = 250;
},
{
glyphname = ubreve;
kernLeft = u;
kernRight = u;
layers = (
{
hints = (
{
horizontal = 1;
place = (-8, 8);
place = (-8, 8);
type = Stem;
},
{
horizontal = 1;
place = (392, 8);
place = (392, 8);
type = Stem;
},
{
place = (47, 7);
place = (47, 7);
type = Stem;
},
{
place = (159, 7);
place = (159, 7);
type = Stem;
},
{
horizontal = 1;
place = (0, 21);
target = up;
type = BottomGhost;
}
);
layerId = m01;
shapes = (
{
closed = 1;
nodes = (
(137,400,l),
(137,392,l),
(159,392,l),
(159,54,ls),
(159,27,o),
(139,2,o),
(112,0,cs),
(81,-3,o),
(54,21,o),
(54,52,cs),
(54,370,ls),
(54,382,o),
(64,392,o),
(76,392,c),
(76,400,l),
(25,400,l),
(25,392,l),
(47,392,l),
(47,54,ls),
(47,24,o),
(68,-4,o),
(98,-8,cs),
(124,-11,o),
(147,2,o),
(159,23,c),
(159,0,l),
(166,0,l),
(166,370,ls),
(166,382,o),
(176,392,o),
(188,392,c),
(188,400,l)
);
},
{
closed = 1;
nodes = (
(36,487,l),
(56,465,o),
(82,453,o),
(108,453,cs),
(134,453,o),
(159,465,o),
(179,487,c),
(185,482,l),
(163,458,o),
(136,446,o),
(108,446,cs),
(80,446,o),
(52,458,o),
(31,482,c)
);
}
);
width = 213;
}
);
note = ubreve;
unicode = 365;
},
{
glyphname = ucircumflex;
kernLeft = u;
kernRight = u;
layers = (
{
hints = (
{
horizontal = 1;
place = (-8, 8);
place = (-8, 8);
type = Stem;
},
{
horizontal = 1;
place = (392, 8);
place = (392, 8);
type = Stem;
},
{
place = (47, 7);
place = (47, 7);
type = Stem;
},
{
place = (159, 7);
place = (159, 7);
type = Stem;
},
{
horizontal = 1;
place = (0, 21);
target = up;
type = BottomGhost;
},
{
horizontal = 1;
place = (515, 9);
place = (515, 9);
type = Stem;
}
);
layerId = m01;
shapes = (
{
closed = 1;
nodes = (
(137,400,l),
(137,392,l),
(159,392,l),
(159,54,ls),
(159,27,o),
(139,2,o),
(112,0,cs),
(81,-3,o),
(54,21,o),
(54,52,cs),
(54,370,ls),
(54,382,o),
(64,392,o),
(76,392,c),
(76,400,l),
(25,400,l),
(25,392,l),
(47,392,l),
(47,54,ls),
(47,24,o),
(68,-4,o),
(98,-8,cs),
(124,-11,o),
(147,2,o),
(159,23,c),
(159,0,l),
(166,0,l),
(166,370,ls),
(166,382,o),
(176,392,o),
(188,392,c),
(188,400,l)
);
},
{
closed = 1;
nodes = (
(67,448,l),
(75,448,l),
(107,515,l),
(138,448,l),
(146,448,l),
(111,524,l),
(103,524,l)
);
}
);
width = 213;
}
);
note = ucircumflex;
unicode = 251;
},
{
glyphname = udieresis;
kernLeft = u;
kernRight = u;
layers = (
{
hints = (
{
horizontal = 1;
place = (-8, 8);
place = (-8, 8);
type = Stem;
},
{
horizontal = 1;
place = (392, 8);
place = (392, 8);
type = Stem;
},
{
place = (47, 7);
place = (47, 7);
type = Stem;
},
{
place = (159, 7);
place = (159, 7);
type = Stem;
},
{
horizontal = 1;
place = (0, 21);
target = up;
type = BottomGhost;
},
{
horizontal = 1;
place = (468, 30);
place = (468, 30);
type = Stem;
},
{
place = (45, 30);
place = (45, 30);
type = Stem;
},
{
place = (138, 30);
place = (138, 30);
type = Stem;
}
);
layerId = m01;
shapes = (
{
closed = 1;
nodes = (
(137,400,l),
(137,392,l),
(159,392,l),
(159,54,ls),
(159,27,o),
(139,2,o),
(112,0,cs),
(81,-3,o),
(54,21,o),
(54,52,cs),
(54,370,ls),
(54,382,o),
(64,392,o),
(76,392,c),
(76,400,l),
(25,400,l),
(25,392,l),
(47,392,l),
(47,54,ls),
(47,24,o),
(68,-4,o),
(98,-8,cs),
(124,-11,o),
(147,2,o),
(159,23,c),
(159,0,l),
(166,0,l),
(166,370,ls),
(166,382,o),
(176,392,o),
(188,392,c),
(188,400,l)
);
},
{
closed = 1;
nodes = (
(45,475,o),
(52,468,o),
(60,468,cs),
(68,468,o),
(75,475,o),
(75,483,cs),
(75,491,o),
(68,498,o),
(60,498,cs),
(52,498,o),
(45,491,o),
(45,483,cs)
);
},
{
closed = 1;
nodes = (
(138,475,o),
(145,468,o),
(153,468,cs),
(161,468,o),
(168,475,o),
(168,483,cs),
(168,491,o),
(161,498,o),
(153,498,cs),
(145,498,o),
(138,491,o),
(138,483,cs)
);
}
);
width = 213;
}
);
note = udieresis;
unicode = 252;
},
{
glyphname = ugrave;
kernLeft = u;
kernRight = u;
layers = (
{
hints = (
{
horizontal = 1;
place = (-8, 8);
place = (-8, 8);
type = Stem;
},
{
horizontal = 1;
place = (392, 8);
place = (392, 8);
type = Stem;
},
{
place = (47, 7);
place = (47, 7);
type = Stem;
},
{
place = (159, 7);
place = (159, 7);
type = Stem;
},
{
horizontal = 1;
place = (0, 21);
target = up;
type = BottomGhost;
}
);
layerId = m01;
shapes = (
{
closed = 1;
nodes = (
(137,400,l),
(137,392,l),
(159,392,l),
(159,54,ls),
(159,27,o),
(139,2,o),
(112,0,cs),
(81,-3,o),
(54,21,o),
(54,52,cs),
(54,370,ls),
(54,382,o),
(64,392,o),
(76,392,c),
(76,400,l),
(25,400,l),
(25,392,l),
(47,392,l),
(47,54,ls),
(47,24,o),
(68,-4,o),
(98,-8,cs),
(124,-11,o),
(147,2,o),
(159,23,c),
(159,0,l),
(166,0,l),
(166,370,ls),
(166,382,o),
(176,392,o),
(188,392,c),
(188,400,l)
);
},
{
closed = 1;
nodes = (
(85,524,l),
(120,448,l),
(128,448,l),
(93,524,l)
);
}
);
width = 213;
}
);
note = ugrave;
unicode = 249;
},
{
glyphname = umacron;
kernLeft = u;
kernRight = u;
layers = (
{
hints = (
{
horizontal = 1;
place = (-8, 8);
place = (-8, 8);
type = Stem;
},
{
horizontal = 1;
place = (392, 8);
place = (392, 8);
type = Stem;
},
{
horizontal = 1;
place = (478, 8);
place = (478, 8);
type = Stem;
},
{
place = (47, 7);
place = (47, 7);
type = Stem;
},
{
place = (159, 7);
place = (159, 7);
type = Stem;
},
{
horizontal = 1;
place = (0, 21);
target = up;
type = BottomGhost;
}
);
layerId = m01;
shapes = (
{
closed = 1;
nodes = (
(137,400,l),
(137,392,l),
(159,392,l),
(159,54,ls),
(159,27,o),
(139,2,o),
(112,0,cs),
(81,-3,o),
(54,21,o),
(54,52,cs),
(54,370,ls),
(54,382,o),
(64,392,o),
(76,392,c),
(76,400,l),
(25,400,l),
(25,392,l),
(47,392,l),
(47,54,ls),
(47,24,o),
(68,-4,o),
(98,-8,cs),
(124,-11,o),
(147,2,o),
(159,23,c),
(159,0,l),
(166,0,l),
(166,370,ls),
(166,382,o),
(176,392,o),
(188,392,c),
(188,400,l)
);
},
{
closed = 1;
nodes = (
(43,478,l),
(173,478,l),
(173,486,l),
(43,486,l)
);
}
);
width = 213;
}
);
note = umacron;
unicode = 363;
},
